%TF.GenerationSoftware,KiCad,Pcbnew,(5.1.10)-1*%
%TF.CreationDate,2021-07-01T21:13:48+10:00*%
%TF.ProjectId,Converter,436f6e76-6572-4746-9572-2e6b69636164,rev?*%
%TF.SameCoordinates,Original*%
%TF.FileFunction,Soldermask,Top*%
%TF.FilePolarity,Negative*%
%FSLAX46Y46*%
G04 Gerber Fmt 4.6, Leading zero omitted, Abs format (unit mm)*
G04 Created by KiCad (PCBNEW (5.1.10)-1) date 2021-07-01 21:13:48*
%MOMM*%
%LPD*%
G01*
G04 APERTURE LIST*
%ADD10R,3.000000X0.650000*%
%ADD11O,3.000000X0.650000*%
%ADD12R,0.850000X0.850000*%
%ADD13O,0.850000X0.850000*%
%ADD14O,1.700000X1.700000*%
%ADD15R,1.700000X1.700000*%
G04 APERTURE END LIST*
D10*
%TO.C,J1*%
X112700000Y-87300000D03*
D11*
X112700000Y-88300000D03*
X112700000Y-89300000D03*
X112700000Y-90300000D03*
X112700000Y-91300000D03*
X112700000Y-92300000D03*
X112700000Y-93300000D03*
X112700000Y-94300000D03*
X112700000Y-95300000D03*
X112700000Y-96300000D03*
X112700000Y-97300000D03*
X112700000Y-98300000D03*
X112700000Y-99300000D03*
X112700000Y-100300000D03*
X112700000Y-101300000D03*
X112700000Y-102300000D03*
X112700000Y-103300000D03*
X112700000Y-104300000D03*
X112700000Y-105300000D03*
X112700000Y-106300000D03*
X112700000Y-107300000D03*
X112700000Y-108300000D03*
%TD*%
D12*
%TO.C,REF\u002A\u002A*%
X155000000Y-125000000D03*
D13*
X156000000Y-125000000D03*
X157000000Y-125000000D03*
%TD*%
D12*
%TO.C,REF\u002A\u002A*%
X155000000Y-70000000D03*
D13*
X156000000Y-70000000D03*
X157000000Y-70000000D03*
%TD*%
D12*
%TO.C,REF\u002A\u002A*%
X150000000Y-100000000D03*
%TD*%
%TO.C,REF\u002A\u002A*%
X145000000Y-100000000D03*
%TD*%
D14*
%TO.C,J2*%
X132400000Y-123740000D03*
X132400000Y-121200000D03*
X132400000Y-118660000D03*
X132400000Y-116120000D03*
X132400000Y-113580000D03*
X132400000Y-111040000D03*
X132400000Y-108500000D03*
X132400000Y-105960000D03*
X132400000Y-103420000D03*
X132400000Y-100880000D03*
X132400000Y-98340000D03*
X132400000Y-95800000D03*
X132400000Y-93260000D03*
X132400000Y-90720000D03*
X132400000Y-88180000D03*
X132400000Y-85640000D03*
X132400000Y-83100000D03*
X132400000Y-80560000D03*
X132400000Y-78020000D03*
X132400000Y-75480000D03*
X132400000Y-72940000D03*
D15*
X132400000Y-70400000D03*
%TD*%
%TO.C,J3*%
X165000000Y-100000000D03*
%TD*%
M02*
