%TF.GenerationSoftware,KiCad,Pcbnew,(5.1.10)-1*%
%TF.CreationDate,2021-07-07T12:53:47+10:00*%
%TF.ProjectId,Converter,436f6e76-6572-4746-9572-2e6b69636164,rev?*%
%TF.SameCoordinates,Original*%
%TF.FileFunction,Legend,Top*%
%TF.FilePolarity,Positive*%
%FSLAX46Y46*%
G04 Gerber Fmt 4.6, Leading zero omitted, Abs format (unit mm)*
G04 Created by KiCad (PCBNEW (5.1.10)-1) date 2021-07-07 12:53:47*
%MOMM*%
%LPD*%
G01*
G04 APERTURE LIST*
%ADD10C,0.120000*%
%ADD11C,0.150000*%
G04 APERTURE END LIST*
D10*
%TO.C,J1*%
X109950000Y-111725000D02*
X110752470Y-111725000D01*
X111367530Y-111725000D02*
X112170000Y-111725000D01*
X109950000Y-83850000D02*
X110496529Y-83850000D01*
X111623471Y-83850000D02*
X112170000Y-83850000D01*
X109950000Y-83090000D02*
X109950000Y-82330000D01*
X109950000Y-82330000D02*
X111060000Y-82330000D01*
%TO.C,REF\u002A\u002A*%
X147590000Y-119775000D02*
X147590000Y-119474493D01*
X147590000Y-118685507D02*
X147590000Y-118385000D01*
X145715000Y-119775000D02*
X147590000Y-119775000D01*
X145715000Y-118385000D02*
X147590000Y-118385000D01*
X145715000Y-119775000D02*
X145715000Y-119688276D01*
X145715000Y-118471724D02*
X145715000Y-118385000D01*
X145030000Y-119775000D02*
X144345000Y-119775000D01*
X144345000Y-119775000D02*
X144345000Y-119080000D01*
X145940000Y-81135000D02*
X145940000Y-80834493D01*
X145940000Y-80045507D02*
X145940000Y-79745000D01*
X144065000Y-81135000D02*
X145940000Y-81135000D01*
X144065000Y-79745000D02*
X145940000Y-79745000D01*
X144065000Y-81135000D02*
X144065000Y-81048276D01*
X144065000Y-79831724D02*
X144065000Y-79745000D01*
X143380000Y-81135000D02*
X142695000Y-81135000D01*
X142695000Y-81135000D02*
X142695000Y-80440000D01*
X149305000Y-100685000D02*
X150695000Y-100685000D01*
X149305000Y-100685000D02*
X149305000Y-100560000D01*
X150695000Y-100685000D02*
X150695000Y-100560000D01*
X149305000Y-100685000D02*
X149391724Y-100685000D01*
X150608276Y-100685000D02*
X150695000Y-100685000D01*
X149305000Y-100000000D02*
X149305000Y-99315000D01*
X149305000Y-99315000D02*
X150000000Y-99315000D01*
X144305000Y-100685000D02*
X145695000Y-100685000D01*
X144305000Y-100685000D02*
X144305000Y-100560000D01*
X145695000Y-100685000D02*
X145695000Y-100560000D01*
X144305000Y-100685000D02*
X144391724Y-100685000D01*
X145608276Y-100685000D02*
X145695000Y-100685000D01*
X144305000Y-100000000D02*
X144305000Y-99315000D01*
X144305000Y-99315000D02*
X145000000Y-99315000D01*
%TO.C,J2*%
X131070000Y-69070000D02*
X132400000Y-69070000D01*
X131070000Y-70400000D02*
X131070000Y-69070000D01*
X131070000Y-71670000D02*
X133730000Y-71670000D01*
X133730000Y-71670000D02*
X133730000Y-125070000D01*
X131070000Y-71670000D02*
X131070000Y-125070000D01*
X131070000Y-125070000D02*
X133730000Y-125070000D01*
%TO.C,J3*%
X141570000Y-91600000D02*
X144230000Y-91600000D01*
X141570000Y-91540000D02*
X141570000Y-91600000D01*
X144230000Y-91540000D02*
X144230000Y-91600000D01*
X141570000Y-91540000D02*
X144230000Y-91540000D01*
X141570000Y-90270000D02*
X141570000Y-88940000D01*
X141570000Y-88940000D02*
X142900000Y-88940000D01*
%TO.C,J1*%
D11*
X110726666Y-80982380D02*
X110726666Y-81696666D01*
X110679047Y-81839523D01*
X110583809Y-81934761D01*
X110440952Y-81982380D01*
X110345714Y-81982380D01*
X111726666Y-81982380D02*
X111155238Y-81982380D01*
X111440952Y-81982380D02*
X111440952Y-80982380D01*
X111345714Y-81125238D01*
X111250476Y-81220476D01*
X111155238Y-81268095D01*
X112838095Y-108037619D02*
X112885714Y-107990000D01*
X112980952Y-107942380D01*
X113219047Y-107942380D01*
X113314285Y-107990000D01*
X113361904Y-108037619D01*
X113409523Y-108132857D01*
X113409523Y-108228095D01*
X113361904Y-108370952D01*
X112790476Y-108942380D01*
X113409523Y-108942380D01*
X114361904Y-108942380D02*
X113790476Y-108942380D01*
X114076190Y-108942380D02*
X114076190Y-107942380D01*
X113980952Y-108085238D01*
X113885714Y-108180476D01*
X113790476Y-108228095D01*
X113409523Y-106402380D02*
X112838095Y-106402380D01*
X113123809Y-106402380D02*
X113123809Y-105402380D01*
X113028571Y-105545238D01*
X112933333Y-105640476D01*
X112838095Y-105688095D01*
X113885714Y-106402380D02*
X114076190Y-106402380D01*
X114171428Y-106354761D01*
X114219047Y-106307142D01*
X114314285Y-106164285D01*
X114361904Y-105973809D01*
X114361904Y-105592857D01*
X114314285Y-105497619D01*
X114266666Y-105450000D01*
X114171428Y-105402380D01*
X113980952Y-105402380D01*
X113885714Y-105450000D01*
X113838095Y-105497619D01*
X113790476Y-105592857D01*
X113790476Y-105830952D01*
X113838095Y-105926190D01*
X113885714Y-105973809D01*
X113980952Y-106021428D01*
X114171428Y-106021428D01*
X114266666Y-105973809D01*
X114314285Y-105926190D01*
X114361904Y-105830952D01*
X113409523Y-103862380D02*
X112838095Y-103862380D01*
X113123809Y-103862380D02*
X113123809Y-102862380D01*
X113028571Y-103005238D01*
X112933333Y-103100476D01*
X112838095Y-103148095D01*
X113742857Y-102862380D02*
X114409523Y-102862380D01*
X113980952Y-103862380D01*
X113409523Y-101322380D02*
X112838095Y-101322380D01*
X113123809Y-101322380D02*
X113123809Y-100322380D01*
X113028571Y-100465238D01*
X112933333Y-100560476D01*
X112838095Y-100608095D01*
X114314285Y-100322380D02*
X113838095Y-100322380D01*
X113790476Y-100798571D01*
X113838095Y-100750952D01*
X113933333Y-100703333D01*
X114171428Y-100703333D01*
X114266666Y-100750952D01*
X114314285Y-100798571D01*
X114361904Y-100893809D01*
X114361904Y-101131904D01*
X114314285Y-101227142D01*
X114266666Y-101274761D01*
X114171428Y-101322380D01*
X113933333Y-101322380D01*
X113838095Y-101274761D01*
X113790476Y-101227142D01*
X113409523Y-98782380D02*
X112838095Y-98782380D01*
X113123809Y-98782380D02*
X113123809Y-97782380D01*
X113028571Y-97925238D01*
X112933333Y-98020476D01*
X112838095Y-98068095D01*
X113742857Y-97782380D02*
X114361904Y-97782380D01*
X114028571Y-98163333D01*
X114171428Y-98163333D01*
X114266666Y-98210952D01*
X114314285Y-98258571D01*
X114361904Y-98353809D01*
X114361904Y-98591904D01*
X114314285Y-98687142D01*
X114266666Y-98734761D01*
X114171428Y-98782380D01*
X113885714Y-98782380D01*
X113790476Y-98734761D01*
X113742857Y-98687142D01*
X113409523Y-96242380D02*
X112838095Y-96242380D01*
X113123809Y-96242380D02*
X113123809Y-95242380D01*
X113028571Y-95385238D01*
X112933333Y-95480476D01*
X112838095Y-95528095D01*
X114361904Y-96242380D02*
X113790476Y-96242380D01*
X114076190Y-96242380D02*
X114076190Y-95242380D01*
X113980952Y-95385238D01*
X113885714Y-95480476D01*
X113790476Y-95528095D01*
X113069523Y-93702380D02*
X113260000Y-93702380D01*
X113355238Y-93654761D01*
X113402857Y-93607142D01*
X113498095Y-93464285D01*
X113545714Y-93273809D01*
X113545714Y-92892857D01*
X113498095Y-92797619D01*
X113450476Y-92750000D01*
X113355238Y-92702380D01*
X113164761Y-92702380D01*
X113069523Y-92750000D01*
X113021904Y-92797619D01*
X112974285Y-92892857D01*
X112974285Y-93130952D01*
X113021904Y-93226190D01*
X113069523Y-93273809D01*
X113164761Y-93321428D01*
X113355238Y-93321428D01*
X113450476Y-93273809D01*
X113498095Y-93226190D01*
X113545714Y-93130952D01*
X112926666Y-90162380D02*
X113593333Y-90162380D01*
X113164761Y-91162380D01*
X113838095Y-87622380D02*
X113361904Y-87622380D01*
X113314285Y-88098571D01*
X113361904Y-88050952D01*
X113457142Y-88003333D01*
X113695238Y-88003333D01*
X113790476Y-88050952D01*
X113838095Y-88098571D01*
X113885714Y-88193809D01*
X113885714Y-88431904D01*
X113838095Y-88527142D01*
X113790476Y-88574761D01*
X113695238Y-88622380D01*
X113457142Y-88622380D01*
X113361904Y-88574761D01*
X113314285Y-88527142D01*
X113266666Y-85082380D02*
X113885714Y-85082380D01*
X113552380Y-85463333D01*
X113695238Y-85463333D01*
X113790476Y-85510952D01*
X113838095Y-85558571D01*
X113885714Y-85653809D01*
X113885714Y-85891904D01*
X113838095Y-85987142D01*
X113790476Y-86034761D01*
X113695238Y-86082380D01*
X113409523Y-86082380D01*
X113314285Y-86034761D01*
X113266666Y-85987142D01*
X113885714Y-83542380D02*
X113314285Y-83542380D01*
X113600000Y-83542380D02*
X113600000Y-82542380D01*
X113504761Y-82685238D01*
X113409523Y-82780476D01*
X113314285Y-82828095D01*
X108329523Y-102592380D02*
X107758095Y-102592380D01*
X108043809Y-102592380D02*
X108043809Y-101592380D01*
X107948571Y-101735238D01*
X107853333Y-101830476D01*
X107758095Y-101878095D01*
X109186666Y-101592380D02*
X108996190Y-101592380D01*
X108900952Y-101640000D01*
X108853333Y-101687619D01*
X108758095Y-101830476D01*
X108710476Y-102020952D01*
X108710476Y-102401904D01*
X108758095Y-102497142D01*
X108805714Y-102544761D01*
X108900952Y-102592380D01*
X109091428Y-102592380D01*
X109186666Y-102544761D01*
X109234285Y-102497142D01*
X109281904Y-102401904D01*
X109281904Y-102163809D01*
X109234285Y-102068571D01*
X109186666Y-102020952D01*
X109091428Y-101973333D01*
X108900952Y-101973333D01*
X108805714Y-102020952D01*
X108758095Y-102068571D01*
X108710476Y-102163809D01*
%TO.C,REF\u002A\u002A*%
X143922380Y-120413333D02*
X143446190Y-120746666D01*
X143922380Y-120984761D02*
X142922380Y-120984761D01*
X142922380Y-120603809D01*
X142970000Y-120508571D01*
X143017619Y-120460952D01*
X143112857Y-120413333D01*
X143255714Y-120413333D01*
X143350952Y-120460952D01*
X143398571Y-120508571D01*
X143446190Y-120603809D01*
X143446190Y-120984761D01*
X143398571Y-119984761D02*
X143398571Y-119651428D01*
X143922380Y-119508571D02*
X143922380Y-119984761D01*
X142922380Y-119984761D01*
X142922380Y-119508571D01*
X143398571Y-118746666D02*
X143398571Y-119080000D01*
X143922380Y-119080000D02*
X142922380Y-119080000D01*
X142922380Y-118603809D01*
X142922380Y-118080000D02*
X143160476Y-118080000D01*
X143065238Y-118318095D02*
X143160476Y-118080000D01*
X143065238Y-117841904D01*
X143350952Y-118222857D02*
X143160476Y-118080000D01*
X143350952Y-117937142D01*
X142922380Y-117318095D02*
X143160476Y-117318095D01*
X143065238Y-117556190D02*
X143160476Y-117318095D01*
X143065238Y-117080000D01*
X143350952Y-117460952D02*
X143160476Y-117318095D01*
X143350952Y-117175238D01*
X142272380Y-81773333D02*
X141796190Y-82106666D01*
X142272380Y-82344761D02*
X141272380Y-82344761D01*
X141272380Y-81963809D01*
X141320000Y-81868571D01*
X141367619Y-81820952D01*
X141462857Y-81773333D01*
X141605714Y-81773333D01*
X141700952Y-81820952D01*
X141748571Y-81868571D01*
X141796190Y-81963809D01*
X141796190Y-82344761D01*
X141748571Y-81344761D02*
X141748571Y-81011428D01*
X142272380Y-80868571D02*
X142272380Y-81344761D01*
X141272380Y-81344761D01*
X141272380Y-80868571D01*
X141748571Y-80106666D02*
X141748571Y-80440000D01*
X142272380Y-80440000D02*
X141272380Y-80440000D01*
X141272380Y-79963809D01*
X141272380Y-79440000D02*
X141510476Y-79440000D01*
X141415238Y-79678095D02*
X141510476Y-79440000D01*
X141415238Y-79201904D01*
X141700952Y-79582857D02*
X141510476Y-79440000D01*
X141700952Y-79297142D01*
X141272380Y-78678095D02*
X141510476Y-78678095D01*
X141415238Y-78916190D02*
X141510476Y-78678095D01*
X141415238Y-78440000D01*
X141700952Y-78820952D02*
X141510476Y-78678095D01*
X141700952Y-78535238D01*
X148666666Y-98892380D02*
X148333333Y-98416190D01*
X148095238Y-98892380D02*
X148095238Y-97892380D01*
X148476190Y-97892380D01*
X148571428Y-97940000D01*
X148619047Y-97987619D01*
X148666666Y-98082857D01*
X148666666Y-98225714D01*
X148619047Y-98320952D01*
X148571428Y-98368571D01*
X148476190Y-98416190D01*
X148095238Y-98416190D01*
X149095238Y-98368571D02*
X149428571Y-98368571D01*
X149571428Y-98892380D02*
X149095238Y-98892380D01*
X149095238Y-97892380D01*
X149571428Y-97892380D01*
X150333333Y-98368571D02*
X150000000Y-98368571D01*
X150000000Y-98892380D02*
X150000000Y-97892380D01*
X150476190Y-97892380D01*
X151000000Y-97892380D02*
X151000000Y-98130476D01*
X150761904Y-98035238D02*
X151000000Y-98130476D01*
X151238095Y-98035238D01*
X150857142Y-98320952D02*
X151000000Y-98130476D01*
X151142857Y-98320952D01*
X151761904Y-97892380D02*
X151761904Y-98130476D01*
X151523809Y-98035238D02*
X151761904Y-98130476D01*
X152000000Y-98035238D01*
X151619047Y-98320952D02*
X151761904Y-98130476D01*
X151904761Y-98320952D01*
X143666666Y-98892380D02*
X143333333Y-98416190D01*
X143095238Y-98892380D02*
X143095238Y-97892380D01*
X143476190Y-97892380D01*
X143571428Y-97940000D01*
X143619047Y-97987619D01*
X143666666Y-98082857D01*
X143666666Y-98225714D01*
X143619047Y-98320952D01*
X143571428Y-98368571D01*
X143476190Y-98416190D01*
X143095238Y-98416190D01*
X144095238Y-98368571D02*
X144428571Y-98368571D01*
X144571428Y-98892380D02*
X144095238Y-98892380D01*
X144095238Y-97892380D01*
X144571428Y-97892380D01*
X145333333Y-98368571D02*
X145000000Y-98368571D01*
X145000000Y-98892380D02*
X145000000Y-97892380D01*
X145476190Y-97892380D01*
X146000000Y-97892380D02*
X146000000Y-98130476D01*
X145761904Y-98035238D02*
X146000000Y-98130476D01*
X146238095Y-98035238D01*
X145857142Y-98320952D02*
X146000000Y-98130476D01*
X146142857Y-98320952D01*
X146761904Y-97892380D02*
X146761904Y-98130476D01*
X146523809Y-98035238D02*
X146761904Y-98130476D01*
X147000000Y-98035238D01*
X146619047Y-98320952D02*
X146761904Y-98130476D01*
X146904761Y-98320952D01*
%TO.C,J2*%
X132066666Y-67522380D02*
X132066666Y-68236666D01*
X132019047Y-68379523D01*
X131923809Y-68474761D01*
X131780952Y-68522380D01*
X131685714Y-68522380D01*
X132495238Y-67617619D02*
X132542857Y-67570000D01*
X132638095Y-67522380D01*
X132876190Y-67522380D01*
X132971428Y-67570000D01*
X133019047Y-67617619D01*
X133066666Y-67712857D01*
X133066666Y-67808095D01*
X133019047Y-67950952D01*
X132447619Y-68522380D01*
X133066666Y-68522380D01*
X134178095Y-123287619D02*
X134225714Y-123240000D01*
X134320952Y-123192380D01*
X134559047Y-123192380D01*
X134654285Y-123240000D01*
X134701904Y-123287619D01*
X134749523Y-123382857D01*
X134749523Y-123478095D01*
X134701904Y-123620952D01*
X134130476Y-124192380D01*
X134749523Y-124192380D01*
X135130476Y-123287619D02*
X135178095Y-123240000D01*
X135273333Y-123192380D01*
X135511428Y-123192380D01*
X135606666Y-123240000D01*
X135654285Y-123287619D01*
X135701904Y-123382857D01*
X135701904Y-123478095D01*
X135654285Y-123620952D01*
X135082857Y-124192380D01*
X135701904Y-124192380D01*
X134178095Y-120747619D02*
X134225714Y-120700000D01*
X134320952Y-120652380D01*
X134559047Y-120652380D01*
X134654285Y-120700000D01*
X134701904Y-120747619D01*
X134749523Y-120842857D01*
X134749523Y-120938095D01*
X134701904Y-121080952D01*
X134130476Y-121652380D01*
X134749523Y-121652380D01*
X135701904Y-121652380D02*
X135130476Y-121652380D01*
X135416190Y-121652380D02*
X135416190Y-120652380D01*
X135320952Y-120795238D01*
X135225714Y-120890476D01*
X135130476Y-120938095D01*
X134178095Y-118207619D02*
X134225714Y-118160000D01*
X134320952Y-118112380D01*
X134559047Y-118112380D01*
X134654285Y-118160000D01*
X134701904Y-118207619D01*
X134749523Y-118302857D01*
X134749523Y-118398095D01*
X134701904Y-118540952D01*
X134130476Y-119112380D01*
X134749523Y-119112380D01*
X135368571Y-118112380D02*
X135463809Y-118112380D01*
X135559047Y-118160000D01*
X135606666Y-118207619D01*
X135654285Y-118302857D01*
X135701904Y-118493333D01*
X135701904Y-118731428D01*
X135654285Y-118921904D01*
X135606666Y-119017142D01*
X135559047Y-119064761D01*
X135463809Y-119112380D01*
X135368571Y-119112380D01*
X135273333Y-119064761D01*
X135225714Y-119017142D01*
X135178095Y-118921904D01*
X135130476Y-118731428D01*
X135130476Y-118493333D01*
X135178095Y-118302857D01*
X135225714Y-118207619D01*
X135273333Y-118160000D01*
X135368571Y-118112380D01*
X134749523Y-116572380D02*
X134178095Y-116572380D01*
X134463809Y-116572380D02*
X134463809Y-115572380D01*
X134368571Y-115715238D01*
X134273333Y-115810476D01*
X134178095Y-115858095D01*
X135225714Y-116572380D02*
X135416190Y-116572380D01*
X135511428Y-116524761D01*
X135559047Y-116477142D01*
X135654285Y-116334285D01*
X135701904Y-116143809D01*
X135701904Y-115762857D01*
X135654285Y-115667619D01*
X135606666Y-115620000D01*
X135511428Y-115572380D01*
X135320952Y-115572380D01*
X135225714Y-115620000D01*
X135178095Y-115667619D01*
X135130476Y-115762857D01*
X135130476Y-116000952D01*
X135178095Y-116096190D01*
X135225714Y-116143809D01*
X135320952Y-116191428D01*
X135511428Y-116191428D01*
X135606666Y-116143809D01*
X135654285Y-116096190D01*
X135701904Y-116000952D01*
X134749523Y-114032380D02*
X134178095Y-114032380D01*
X134463809Y-114032380D02*
X134463809Y-113032380D01*
X134368571Y-113175238D01*
X134273333Y-113270476D01*
X134178095Y-113318095D01*
X135320952Y-113460952D02*
X135225714Y-113413333D01*
X135178095Y-113365714D01*
X135130476Y-113270476D01*
X135130476Y-113222857D01*
X135178095Y-113127619D01*
X135225714Y-113080000D01*
X135320952Y-113032380D01*
X135511428Y-113032380D01*
X135606666Y-113080000D01*
X135654285Y-113127619D01*
X135701904Y-113222857D01*
X135701904Y-113270476D01*
X135654285Y-113365714D01*
X135606666Y-113413333D01*
X135511428Y-113460952D01*
X135320952Y-113460952D01*
X135225714Y-113508571D01*
X135178095Y-113556190D01*
X135130476Y-113651428D01*
X135130476Y-113841904D01*
X135178095Y-113937142D01*
X135225714Y-113984761D01*
X135320952Y-114032380D01*
X135511428Y-114032380D01*
X135606666Y-113984761D01*
X135654285Y-113937142D01*
X135701904Y-113841904D01*
X135701904Y-113651428D01*
X135654285Y-113556190D01*
X135606666Y-113508571D01*
X135511428Y-113460952D01*
X134749523Y-111492380D02*
X134178095Y-111492380D01*
X134463809Y-111492380D02*
X134463809Y-110492380D01*
X134368571Y-110635238D01*
X134273333Y-110730476D01*
X134178095Y-110778095D01*
X135082857Y-110492380D02*
X135749523Y-110492380D01*
X135320952Y-111492380D01*
X134749523Y-108952380D02*
X134178095Y-108952380D01*
X134463809Y-108952380D02*
X134463809Y-107952380D01*
X134368571Y-108095238D01*
X134273333Y-108190476D01*
X134178095Y-108238095D01*
X135606666Y-107952380D02*
X135416190Y-107952380D01*
X135320952Y-108000000D01*
X135273333Y-108047619D01*
X135178095Y-108190476D01*
X135130476Y-108380952D01*
X135130476Y-108761904D01*
X135178095Y-108857142D01*
X135225714Y-108904761D01*
X135320952Y-108952380D01*
X135511428Y-108952380D01*
X135606666Y-108904761D01*
X135654285Y-108857142D01*
X135701904Y-108761904D01*
X135701904Y-108523809D01*
X135654285Y-108428571D01*
X135606666Y-108380952D01*
X135511428Y-108333333D01*
X135320952Y-108333333D01*
X135225714Y-108380952D01*
X135178095Y-108428571D01*
X135130476Y-108523809D01*
X134749523Y-106412380D02*
X134178095Y-106412380D01*
X134463809Y-106412380D02*
X134463809Y-105412380D01*
X134368571Y-105555238D01*
X134273333Y-105650476D01*
X134178095Y-105698095D01*
X135654285Y-105412380D02*
X135178095Y-105412380D01*
X135130476Y-105888571D01*
X135178095Y-105840952D01*
X135273333Y-105793333D01*
X135511428Y-105793333D01*
X135606666Y-105840952D01*
X135654285Y-105888571D01*
X135701904Y-105983809D01*
X135701904Y-106221904D01*
X135654285Y-106317142D01*
X135606666Y-106364761D01*
X135511428Y-106412380D01*
X135273333Y-106412380D01*
X135178095Y-106364761D01*
X135130476Y-106317142D01*
X134749523Y-103872380D02*
X134178095Y-103872380D01*
X134463809Y-103872380D02*
X134463809Y-102872380D01*
X134368571Y-103015238D01*
X134273333Y-103110476D01*
X134178095Y-103158095D01*
X135606666Y-103205714D02*
X135606666Y-103872380D01*
X135368571Y-102824761D02*
X135130476Y-103539047D01*
X135749523Y-103539047D01*
X134749523Y-101332380D02*
X134178095Y-101332380D01*
X134463809Y-101332380D02*
X134463809Y-100332380D01*
X134368571Y-100475238D01*
X134273333Y-100570476D01*
X134178095Y-100618095D01*
X135082857Y-100332380D02*
X135701904Y-100332380D01*
X135368571Y-100713333D01*
X135511428Y-100713333D01*
X135606666Y-100760952D01*
X135654285Y-100808571D01*
X135701904Y-100903809D01*
X135701904Y-101141904D01*
X135654285Y-101237142D01*
X135606666Y-101284761D01*
X135511428Y-101332380D01*
X135225714Y-101332380D01*
X135130476Y-101284761D01*
X135082857Y-101237142D01*
X134749523Y-98792380D02*
X134178095Y-98792380D01*
X134463809Y-98792380D02*
X134463809Y-97792380D01*
X134368571Y-97935238D01*
X134273333Y-98030476D01*
X134178095Y-98078095D01*
X135130476Y-97887619D02*
X135178095Y-97840000D01*
X135273333Y-97792380D01*
X135511428Y-97792380D01*
X135606666Y-97840000D01*
X135654285Y-97887619D01*
X135701904Y-97982857D01*
X135701904Y-98078095D01*
X135654285Y-98220952D01*
X135082857Y-98792380D01*
X135701904Y-98792380D01*
X134749523Y-96252380D02*
X134178095Y-96252380D01*
X134463809Y-96252380D02*
X134463809Y-95252380D01*
X134368571Y-95395238D01*
X134273333Y-95490476D01*
X134178095Y-95538095D01*
X135701904Y-96252380D02*
X135130476Y-96252380D01*
X135416190Y-96252380D02*
X135416190Y-95252380D01*
X135320952Y-95395238D01*
X135225714Y-95490476D01*
X135130476Y-95538095D01*
X134749523Y-93712380D02*
X134178095Y-93712380D01*
X134463809Y-93712380D02*
X134463809Y-92712380D01*
X134368571Y-92855238D01*
X134273333Y-92950476D01*
X134178095Y-92998095D01*
X135368571Y-92712380D02*
X135463809Y-92712380D01*
X135559047Y-92760000D01*
X135606666Y-92807619D01*
X135654285Y-92902857D01*
X135701904Y-93093333D01*
X135701904Y-93331428D01*
X135654285Y-93521904D01*
X135606666Y-93617142D01*
X135559047Y-93664761D01*
X135463809Y-93712380D01*
X135368571Y-93712380D01*
X135273333Y-93664761D01*
X135225714Y-93617142D01*
X135178095Y-93521904D01*
X135130476Y-93331428D01*
X135130476Y-93093333D01*
X135178095Y-92902857D01*
X135225714Y-92807619D01*
X135273333Y-92760000D01*
X135368571Y-92712380D01*
X134749523Y-91172380D02*
X134940000Y-91172380D01*
X135035238Y-91124761D01*
X135082857Y-91077142D01*
X135178095Y-90934285D01*
X135225714Y-90743809D01*
X135225714Y-90362857D01*
X135178095Y-90267619D01*
X135130476Y-90220000D01*
X135035238Y-90172380D01*
X134844761Y-90172380D01*
X134749523Y-90220000D01*
X134701904Y-90267619D01*
X134654285Y-90362857D01*
X134654285Y-90600952D01*
X134701904Y-90696190D01*
X134749523Y-90743809D01*
X134844761Y-90791428D01*
X135035238Y-90791428D01*
X135130476Y-90743809D01*
X135178095Y-90696190D01*
X135225714Y-90600952D01*
X134844761Y-88060952D02*
X134749523Y-88013333D01*
X134701904Y-87965714D01*
X134654285Y-87870476D01*
X134654285Y-87822857D01*
X134701904Y-87727619D01*
X134749523Y-87680000D01*
X134844761Y-87632380D01*
X135035238Y-87632380D01*
X135130476Y-87680000D01*
X135178095Y-87727619D01*
X135225714Y-87822857D01*
X135225714Y-87870476D01*
X135178095Y-87965714D01*
X135130476Y-88013333D01*
X135035238Y-88060952D01*
X134844761Y-88060952D01*
X134749523Y-88108571D01*
X134701904Y-88156190D01*
X134654285Y-88251428D01*
X134654285Y-88441904D01*
X134701904Y-88537142D01*
X134749523Y-88584761D01*
X134844761Y-88632380D01*
X135035238Y-88632380D01*
X135130476Y-88584761D01*
X135178095Y-88537142D01*
X135225714Y-88441904D01*
X135225714Y-88251428D01*
X135178095Y-88156190D01*
X135130476Y-88108571D01*
X135035238Y-88060952D01*
X134606666Y-85092380D02*
X135273333Y-85092380D01*
X134844761Y-86092380D01*
X135130476Y-82552380D02*
X134940000Y-82552380D01*
X134844761Y-82600000D01*
X134797142Y-82647619D01*
X134701904Y-82790476D01*
X134654285Y-82980952D01*
X134654285Y-83361904D01*
X134701904Y-83457142D01*
X134749523Y-83504761D01*
X134844761Y-83552380D01*
X135035238Y-83552380D01*
X135130476Y-83504761D01*
X135178095Y-83457142D01*
X135225714Y-83361904D01*
X135225714Y-83123809D01*
X135178095Y-83028571D01*
X135130476Y-82980952D01*
X135035238Y-82933333D01*
X134844761Y-82933333D01*
X134749523Y-82980952D01*
X134701904Y-83028571D01*
X134654285Y-83123809D01*
X135178095Y-80012380D02*
X134701904Y-80012380D01*
X134654285Y-80488571D01*
X134701904Y-80440952D01*
X134797142Y-80393333D01*
X135035238Y-80393333D01*
X135130476Y-80440952D01*
X135178095Y-80488571D01*
X135225714Y-80583809D01*
X135225714Y-80821904D01*
X135178095Y-80917142D01*
X135130476Y-80964761D01*
X135035238Y-81012380D01*
X134797142Y-81012380D01*
X134701904Y-80964761D01*
X134654285Y-80917142D01*
X135130476Y-77805714D02*
X135130476Y-78472380D01*
X134892380Y-77424761D02*
X134654285Y-78139047D01*
X135273333Y-78139047D01*
X134606666Y-74932380D02*
X135225714Y-74932380D01*
X134892380Y-75313333D01*
X135035238Y-75313333D01*
X135130476Y-75360952D01*
X135178095Y-75408571D01*
X135225714Y-75503809D01*
X135225714Y-75741904D01*
X135178095Y-75837142D01*
X135130476Y-75884761D01*
X135035238Y-75932380D01*
X134749523Y-75932380D01*
X134654285Y-75884761D01*
X134606666Y-75837142D01*
X134654285Y-72487619D02*
X134701904Y-72440000D01*
X134797142Y-72392380D01*
X135035238Y-72392380D01*
X135130476Y-72440000D01*
X135178095Y-72487619D01*
X135225714Y-72582857D01*
X135225714Y-72678095D01*
X135178095Y-72820952D01*
X134606666Y-73392380D01*
X135225714Y-73392380D01*
X135225714Y-70852380D02*
X134654285Y-70852380D01*
X134940000Y-70852380D02*
X134940000Y-69852380D01*
X134844761Y-69995238D01*
X134749523Y-70090476D01*
X134654285Y-70138095D01*
%TO.C,J3*%
X142566666Y-87392380D02*
X142566666Y-88106666D01*
X142519047Y-88249523D01*
X142423809Y-88344761D01*
X142280952Y-88392380D01*
X142185714Y-88392380D01*
X142947619Y-87392380D02*
X143566666Y-87392380D01*
X143233333Y-87773333D01*
X143376190Y-87773333D01*
X143471428Y-87820952D01*
X143519047Y-87868571D01*
X143566666Y-87963809D01*
X143566666Y-88201904D01*
X143519047Y-88297142D01*
X143471428Y-88344761D01*
X143376190Y-88392380D01*
X143090476Y-88392380D01*
X142995238Y-88344761D01*
X142947619Y-88297142D01*
%TD*%
M02*
