%TF.GenerationSoftware,KiCad,Pcbnew,(5.1.10)-1*%
%TF.CreationDate,2021-07-01T21:13:48+10:00*%
%TF.ProjectId,Converter,436f6e76-6572-4746-9572-2e6b69636164,rev?*%
%TF.SameCoordinates,Original*%
%TF.FileFunction,Copper,L1,Top*%
%TF.FilePolarity,Positive*%
%FSLAX46Y46*%
G04 Gerber Fmt 4.6, Leading zero omitted, Abs format (unit mm)*
G04 Created by KiCad (PCBNEW (5.1.10)-1) date 2021-07-01 21:13:48*
%MOMM*%
%LPD*%
G01*
G04 APERTURE LIST*
%TA.AperFunction,SMDPad,CuDef*%
%ADD10R,3.000000X0.650000*%
%TD*%
%TA.AperFunction,SMDPad,CuDef*%
%ADD11O,3.000000X0.650000*%
%TD*%
%TA.AperFunction,ComponentPad*%
%ADD12R,0.850000X0.850000*%
%TD*%
%TA.AperFunction,ComponentPad*%
%ADD13O,0.850000X0.850000*%
%TD*%
%TA.AperFunction,ComponentPad*%
%ADD14O,1.700000X1.700000*%
%TD*%
%TA.AperFunction,ComponentPad*%
%ADD15R,1.700000X1.700000*%
%TD*%
%TA.AperFunction,ViaPad*%
%ADD16C,0.800000*%
%TD*%
%TA.AperFunction,Conductor*%
%ADD17C,0.250000*%
%TD*%
%TA.AperFunction,Conductor*%
%ADD18C,0.300000*%
%TD*%
%TA.AperFunction,Conductor*%
%ADD19C,0.100000*%
%TD*%
G04 APERTURE END LIST*
D10*
%TO.P,J1,1*%
%TO.N,Net-(J1-Pad1)*%
X112700000Y-87300000D03*
D11*
%TO.P,J1,2*%
%TO.N,Net-(J1-Pad2)*%
X112700000Y-88300000D03*
%TO.P,J1,3*%
%TO.N,Net-(J1-Pad3)*%
X112700000Y-89300000D03*
%TO.P,J1,4*%
%TO.N,Net-(J1-Pad4)*%
X112700000Y-90300000D03*
%TO.P,J1,5*%
%TO.N,Net-(J1-Pad5)*%
X112700000Y-91300000D03*
%TO.P,J1,6*%
%TO.N,Net-(J1-Pad6)*%
X112700000Y-92300000D03*
%TO.P,J1,7*%
%TO.N,Net-(J1-Pad7)*%
X112700000Y-93300000D03*
%TO.P,J1,8*%
%TO.N,Net-(J1-Pad8)*%
X112700000Y-94300000D03*
%TO.P,J1,9*%
%TO.N,Net-(J1-Pad9)*%
X112700000Y-95300000D03*
%TO.P,J1,10*%
%TO.N,Net-(J1-Pad10)*%
X112700000Y-96300000D03*
%TO.P,J1,11*%
%TO.N,Net-(J1-Pad11)*%
X112700000Y-97300000D03*
%TO.P,J1,12*%
%TO.N,Net-(J1-Pad12)*%
X112700000Y-98300000D03*
%TO.P,J1,13*%
%TO.N,Net-(J1-Pad13)*%
X112700000Y-99300000D03*
%TO.P,J1,14*%
%TO.N,Net-(J1-Pad14)*%
X112700000Y-100300000D03*
%TO.P,J1,15*%
%TO.N,Net-(J1-Pad15)*%
X112700000Y-101300000D03*
%TO.P,J1,16*%
%TO.N,Net-(J1-Pad16)*%
X112700000Y-102300000D03*
%TO.P,J1,17*%
%TO.N,Net-(J1-Pad17)*%
X112700000Y-103300000D03*
%TO.P,J1,18*%
%TO.N,Net-(J1-Pad18)*%
X112700000Y-104300000D03*
%TO.P,J1,19*%
%TO.N,Net-(J1-Pad19)*%
X112700000Y-105300000D03*
%TO.P,J1,20*%
%TO.N,Net-(J1-Pad20)*%
X112700000Y-106300000D03*
%TO.P,J1,21*%
%TO.N,Net-(J1-Pad21)*%
X112700000Y-107300000D03*
%TO.P,J1,22*%
%TO.N,Net-(J1-Pad22)*%
X112700000Y-108300000D03*
%TD*%
D12*
%TO.P,REF\u002A\u002A,1*%
%TO.N,GND*%
X155000000Y-125000000D03*
D13*
%TO.P,REF\u002A\u002A,2*%
X156000000Y-125000000D03*
%TO.P,REF\u002A\u002A,3*%
X157000000Y-125000000D03*
%TD*%
D12*
%TO.P,REF\u002A\u002A,1*%
%TO.N,GND*%
X155000000Y-70000000D03*
D13*
%TO.P,REF\u002A\u002A,2*%
X156000000Y-70000000D03*
%TO.P,REF\u002A\u002A,3*%
X157000000Y-70000000D03*
%TD*%
D12*
%TO.P,REF\u002A\u002A,1*%
%TO.N,GND*%
X150000000Y-100000000D03*
%TD*%
%TO.P,REF\u002A\u002A,1*%
%TO.N,GND*%
X145000000Y-100000000D03*
%TD*%
D14*
%TO.P,J2,22*%
%TO.N,Net-(J1-Pad22)*%
X132400000Y-123740000D03*
%TO.P,J2,21*%
%TO.N,Net-(J1-Pad21)*%
X132400000Y-121200000D03*
%TO.P,J2,20*%
%TO.N,Net-(J1-Pad20)*%
X132400000Y-118660000D03*
%TO.P,J2,19*%
%TO.N,Net-(J1-Pad19)*%
X132400000Y-116120000D03*
%TO.P,J2,18*%
%TO.N,Net-(J1-Pad18)*%
X132400000Y-113580000D03*
%TO.P,J2,17*%
%TO.N,Net-(J1-Pad17)*%
X132400000Y-111040000D03*
%TO.P,J2,16*%
%TO.N,Net-(J1-Pad16)*%
X132400000Y-108500000D03*
%TO.P,J2,15*%
%TO.N,Net-(J1-Pad15)*%
X132400000Y-105960000D03*
%TO.P,J2,14*%
%TO.N,Net-(J1-Pad14)*%
X132400000Y-103420000D03*
%TO.P,J2,13*%
%TO.N,Net-(J1-Pad13)*%
X132400000Y-100880000D03*
%TO.P,J2,12*%
%TO.N,Net-(J1-Pad12)*%
X132400000Y-98340000D03*
%TO.P,J2,11*%
%TO.N,Net-(J1-Pad11)*%
X132400000Y-95800000D03*
%TO.P,J2,10*%
%TO.N,Net-(J1-Pad10)*%
X132400000Y-93260000D03*
%TO.P,J2,9*%
%TO.N,Net-(J1-Pad9)*%
X132400000Y-90720000D03*
%TO.P,J2,8*%
%TO.N,Net-(J1-Pad8)*%
X132400000Y-88180000D03*
%TO.P,J2,7*%
%TO.N,Net-(J1-Pad7)*%
X132400000Y-85640000D03*
%TO.P,J2,6*%
%TO.N,Net-(J1-Pad6)*%
X132400000Y-83100000D03*
%TO.P,J2,5*%
%TO.N,Net-(J1-Pad5)*%
X132400000Y-80560000D03*
%TO.P,J2,4*%
%TO.N,Net-(J1-Pad4)*%
X132400000Y-78020000D03*
%TO.P,J2,3*%
%TO.N,Net-(J1-Pad3)*%
X132400000Y-75480000D03*
%TO.P,J2,2*%
%TO.N,Net-(J1-Pad2)*%
X132400000Y-72940000D03*
D15*
%TO.P,J2,1*%
%TO.N,Net-(J1-Pad1)*%
X132400000Y-70400000D03*
%TD*%
%TO.P,J3,1*%
%TO.N,GND*%
X165000000Y-100000000D03*
%TD*%
D16*
%TO.N,*%
X165000000Y-125000000D03*
X120000000Y-125000000D03*
X120000000Y-70000000D03*
X115000000Y-80000000D03*
X115000000Y-70000000D03*
X115000000Y-115000000D03*
X140000000Y-125000000D03*
X140000000Y-115000000D03*
X140000000Y-105000000D03*
X140000000Y-95000000D03*
X140000000Y-85000000D03*
X140000000Y-75000000D03*
X140000000Y-65000000D03*
X155000000Y-65000000D03*
X155000000Y-75000000D03*
X155000000Y-85000000D03*
X155000000Y-95000000D03*
X155000000Y-105000000D03*
X150000000Y-115000000D03*
X150000000Y-75000000D03*
X160000000Y-80000000D03*
X165000000Y-70000000D03*
X165000000Y-95000000D03*
X165000000Y-110000000D03*
%TD*%
D17*
%TO.N,GND*%
X150000000Y-100000000D02*
X145000000Y-100000000D01*
X145000000Y-100000000D02*
X145000000Y-115000000D01*
X155000000Y-110000000D02*
X145000000Y-100000000D01*
X155000000Y-125000000D02*
X155000000Y-110000000D01*
%TO.N,Net-(J1-Pad1)*%
X131300000Y-70400000D02*
X114400000Y-87300000D01*
X114400000Y-87300000D02*
X112700000Y-87300000D01*
X132400000Y-70400000D02*
X131300000Y-70400000D01*
%TO.N,Net-(J1-Pad2)*%
X117040000Y-88300000D02*
X112700000Y-88300000D01*
X132400000Y-72940000D02*
X117040000Y-88300000D01*
%TO.N,Net-(J1-Pad3)*%
X118580000Y-89300000D02*
X112700000Y-89300000D01*
X132400000Y-75480000D02*
X118580000Y-89300000D01*
%TO.N,Net-(J1-Pad4)*%
X120120000Y-90300000D02*
X112700000Y-90300000D01*
X132400000Y-78020000D02*
X120120000Y-90300000D01*
%TO.N,Net-(J1-Pad5)*%
X121660000Y-91300000D02*
X112700000Y-91300000D01*
X132400000Y-80560000D02*
X121660000Y-91300000D01*
%TO.N,Net-(J1-Pad6)*%
X123200000Y-92300000D02*
X112700000Y-92300000D01*
X132400000Y-83100000D02*
X123200000Y-92300000D01*
%TO.N,Net-(J1-Pad7)*%
X124740000Y-93300000D02*
X112700000Y-93300000D01*
X132400000Y-85640000D02*
X124740000Y-93300000D01*
%TO.N,Net-(J1-Pad8)*%
X126280000Y-94300000D02*
X112700000Y-94300000D01*
X132400000Y-88180000D02*
X126280000Y-94300000D01*
%TO.N,Net-(J1-Pad9)*%
X127820000Y-95300000D02*
X112700000Y-95300000D01*
X132400000Y-90720000D02*
X127820000Y-95300000D01*
%TO.N,Net-(J1-Pad10)*%
X129360000Y-96300000D02*
X112700000Y-96300000D01*
X132400000Y-93260000D02*
X129360000Y-96300000D01*
%TO.N,Net-(J1-Pad11)*%
X130900000Y-97300000D02*
X112700000Y-97300000D01*
X132400000Y-95800000D02*
X130900000Y-97300000D01*
%TO.N,Net-(J1-Pad12)*%
X112740000Y-98340000D02*
X112700000Y-98300000D01*
X132400000Y-98340000D02*
X112740000Y-98340000D01*
%TO.N,Net-(J1-Pad13)*%
X130820000Y-99300000D02*
X112700000Y-99300000D01*
X132400000Y-100880000D02*
X130820000Y-99300000D01*
%TO.N,Net-(J1-Pad14)*%
X129280000Y-100300000D02*
X112700000Y-100300000D01*
X132400000Y-103420000D02*
X129280000Y-100300000D01*
%TO.N,Net-(J1-Pad15)*%
X127740000Y-101300000D02*
X112700000Y-101300000D01*
X132400000Y-105960000D02*
X127740000Y-101300000D01*
%TO.N,Net-(J1-Pad16)*%
X126200000Y-102300000D02*
X112700000Y-102300000D01*
X132400000Y-108500000D02*
X126200000Y-102300000D01*
%TO.N,Net-(J1-Pad17)*%
X124660000Y-103300000D02*
X112700000Y-103300000D01*
X132400000Y-111040000D02*
X124660000Y-103300000D01*
%TO.N,Net-(J1-Pad18)*%
X123120000Y-104300000D02*
X112700000Y-104300000D01*
X132400000Y-113580000D02*
X123120000Y-104300000D01*
%TO.N,Net-(J1-Pad19)*%
X121580000Y-105300000D02*
X112700000Y-105300000D01*
X132400000Y-116120000D02*
X121580000Y-105300000D01*
%TO.N,Net-(J1-Pad20)*%
X120040000Y-106300000D02*
X112700000Y-106300000D01*
X132400000Y-118660000D02*
X120040000Y-106300000D01*
%TO.N,Net-(J1-Pad21)*%
X118500000Y-107300000D02*
X112700000Y-107300000D01*
X132400000Y-121200000D02*
X118500000Y-107300000D01*
%TO.N,Net-(J1-Pad22)*%
X116960000Y-108300000D02*
X112700000Y-108300000D01*
X132400000Y-123740000D02*
X116960000Y-108300000D01*
%TD*%
D18*
%TO.N,GND*%
X138982659Y-65308607D02*
X139062413Y-65501151D01*
X139178198Y-65674436D01*
X139325564Y-65821802D01*
X139498849Y-65937587D01*
X139691393Y-66017341D01*
X139895796Y-66058000D01*
X140104204Y-66058000D01*
X140308607Y-66017341D01*
X140501151Y-65937587D01*
X140674436Y-65821802D01*
X140821802Y-65674436D01*
X140937587Y-65501151D01*
X141017341Y-65308607D01*
X141048890Y-65150000D01*
X153951110Y-65150000D01*
X153982659Y-65308607D01*
X154062413Y-65501151D01*
X154178198Y-65674436D01*
X154325564Y-65821802D01*
X154498849Y-65937587D01*
X154691393Y-66017341D01*
X154895796Y-66058000D01*
X155104204Y-66058000D01*
X155308607Y-66017341D01*
X155501151Y-65937587D01*
X155674436Y-65821802D01*
X155821802Y-65674436D01*
X155937587Y-65501151D01*
X156017341Y-65308607D01*
X156048890Y-65150000D01*
X169850000Y-65150000D01*
X169850000Y-129850000D01*
X115150000Y-129850000D01*
X115150000Y-124895796D01*
X118942000Y-124895796D01*
X118942000Y-125104204D01*
X118982659Y-125308607D01*
X119062413Y-125501151D01*
X119178198Y-125674436D01*
X119325564Y-125821802D01*
X119498849Y-125937587D01*
X119691393Y-126017341D01*
X119895796Y-126058000D01*
X120104204Y-126058000D01*
X120308607Y-126017341D01*
X120501151Y-125937587D01*
X120674436Y-125821802D01*
X120821802Y-125674436D01*
X120937587Y-125501151D01*
X121017341Y-125308607D01*
X121058000Y-125104204D01*
X121058000Y-124895796D01*
X121017341Y-124691393D01*
X120937587Y-124498849D01*
X120821802Y-124325564D01*
X120674436Y-124178198D01*
X120501151Y-124062413D01*
X120308607Y-123982659D01*
X120104204Y-123942000D01*
X119895796Y-123942000D01*
X119691393Y-123982659D01*
X119498849Y-124062413D01*
X119325564Y-124178198D01*
X119178198Y-124325564D01*
X119062413Y-124498849D01*
X118982659Y-124691393D01*
X118942000Y-124895796D01*
X115150000Y-124895796D01*
X115150000Y-116048890D01*
X115308607Y-116017341D01*
X115501151Y-115937587D01*
X115674436Y-115821802D01*
X115821802Y-115674436D01*
X115937587Y-115501151D01*
X116017341Y-115308607D01*
X116058000Y-115104204D01*
X116058000Y-114895796D01*
X116017341Y-114691393D01*
X115937587Y-114498849D01*
X115821802Y-114325564D01*
X115674436Y-114178198D01*
X115501151Y-114062413D01*
X115308607Y-113982659D01*
X115150000Y-113951110D01*
X115150000Y-109083000D01*
X116635672Y-109083000D01*
X130933833Y-123381162D01*
X130892000Y-123591475D01*
X130892000Y-123888525D01*
X130949951Y-124179868D01*
X131063627Y-124454306D01*
X131228660Y-124701294D01*
X131438706Y-124911340D01*
X131685694Y-125076373D01*
X131960132Y-125190049D01*
X132251475Y-125248000D01*
X132548525Y-125248000D01*
X132839868Y-125190049D01*
X133114306Y-125076373D01*
X133361294Y-124911340D01*
X133376838Y-124895796D01*
X138942000Y-124895796D01*
X138942000Y-125104204D01*
X138982659Y-125308607D01*
X139062413Y-125501151D01*
X139178198Y-125674436D01*
X139325564Y-125821802D01*
X139498849Y-125937587D01*
X139691393Y-126017341D01*
X139895796Y-126058000D01*
X140104204Y-126058000D01*
X140308607Y-126017341D01*
X140501151Y-125937587D01*
X140674436Y-125821802D01*
X140821802Y-125674436D01*
X140937587Y-125501151D01*
X140969129Y-125425000D01*
X153913816Y-125425000D01*
X153926520Y-125553991D01*
X153964146Y-125678024D01*
X154025246Y-125792334D01*
X154107472Y-125892528D01*
X154207666Y-125974754D01*
X154321976Y-126035854D01*
X154446009Y-126073480D01*
X154575000Y-126086184D01*
X154731500Y-126083000D01*
X154896000Y-125918500D01*
X154896000Y-125271356D01*
X154951541Y-125271356D01*
X155024626Y-125470686D01*
X155104000Y-125600795D01*
X155104000Y-125918500D01*
X155268500Y-126083000D01*
X155425000Y-126086184D01*
X155553991Y-126073480D01*
X155678024Y-126035854D01*
X155681310Y-126034098D01*
X155728645Y-126048454D01*
X155896000Y-125912593D01*
X155896000Y-125888297D01*
X155974754Y-125792334D01*
X156035854Y-125678024D01*
X156073480Y-125553991D01*
X156073753Y-125551215D01*
X156104000Y-125600795D01*
X156104000Y-125912593D01*
X156271355Y-126048454D01*
X156356868Y-126022519D01*
X156500000Y-125956187D01*
X156643132Y-126022519D01*
X156728645Y-126048454D01*
X156896000Y-125912593D01*
X156896000Y-125600795D01*
X156975374Y-125470686D01*
X157048459Y-125271356D01*
X156913500Y-125104000D01*
X157104000Y-125104000D01*
X157104000Y-125912593D01*
X157271355Y-126048454D01*
X157356868Y-126022519D01*
X157549494Y-125933250D01*
X157721004Y-125808117D01*
X157864806Y-125651928D01*
X157975374Y-125470686D01*
X158048459Y-125271356D01*
X157913500Y-125104000D01*
X157104000Y-125104000D01*
X156913500Y-125104000D01*
X156086500Y-125104000D01*
X156011502Y-125197002D01*
X155918500Y-125104000D01*
X155086500Y-125104000D01*
X154951541Y-125271356D01*
X154896000Y-125271356D01*
X154896000Y-125104000D01*
X154081500Y-125104000D01*
X153917000Y-125268500D01*
X153913816Y-125425000D01*
X140969129Y-125425000D01*
X141017341Y-125308607D01*
X141058000Y-125104204D01*
X141058000Y-124895796D01*
X141017341Y-124691393D01*
X140969130Y-124575000D01*
X153913816Y-124575000D01*
X153917000Y-124731500D01*
X154081500Y-124896000D01*
X154896000Y-124896000D01*
X154896000Y-124728644D01*
X154951541Y-124728644D01*
X155086500Y-124896000D01*
X155918500Y-124896000D01*
X156011502Y-124802998D01*
X156086500Y-124896000D01*
X156913500Y-124896000D01*
X157048459Y-124728644D01*
X156975374Y-124529314D01*
X156896000Y-124399205D01*
X156896000Y-124087407D01*
X157104000Y-124087407D01*
X157104000Y-124896000D01*
X157913500Y-124896000D01*
X157913664Y-124895796D01*
X163942000Y-124895796D01*
X163942000Y-125104204D01*
X163982659Y-125308607D01*
X164062413Y-125501151D01*
X164178198Y-125674436D01*
X164325564Y-125821802D01*
X164498849Y-125937587D01*
X164691393Y-126017341D01*
X164895796Y-126058000D01*
X165104204Y-126058000D01*
X165308607Y-126017341D01*
X165501151Y-125937587D01*
X165674436Y-125821802D01*
X165821802Y-125674436D01*
X165937587Y-125501151D01*
X166017341Y-125308607D01*
X166058000Y-125104204D01*
X166058000Y-124895796D01*
X166017341Y-124691393D01*
X165937587Y-124498849D01*
X165821802Y-124325564D01*
X165674436Y-124178198D01*
X165501151Y-124062413D01*
X165308607Y-123982659D01*
X165104204Y-123942000D01*
X164895796Y-123942000D01*
X164691393Y-123982659D01*
X164498849Y-124062413D01*
X164325564Y-124178198D01*
X164178198Y-124325564D01*
X164062413Y-124498849D01*
X163982659Y-124691393D01*
X163942000Y-124895796D01*
X157913664Y-124895796D01*
X158048459Y-124728644D01*
X157975374Y-124529314D01*
X157864806Y-124348072D01*
X157721004Y-124191883D01*
X157549494Y-124066750D01*
X157356868Y-123977481D01*
X157271355Y-123951546D01*
X157104000Y-124087407D01*
X156896000Y-124087407D01*
X156728645Y-123951546D01*
X156643132Y-123977481D01*
X156500000Y-124043813D01*
X156356868Y-123977481D01*
X156271355Y-123951546D01*
X156104000Y-124087407D01*
X156104000Y-124399205D01*
X156073753Y-124448785D01*
X156073480Y-124446009D01*
X156035854Y-124321976D01*
X155974754Y-124207666D01*
X155896000Y-124111703D01*
X155896000Y-124087407D01*
X155728645Y-123951546D01*
X155681310Y-123965902D01*
X155678024Y-123964146D01*
X155553991Y-123926520D01*
X155425000Y-123913816D01*
X155268500Y-123917000D01*
X155104000Y-124081500D01*
X155104000Y-124399205D01*
X155024626Y-124529314D01*
X154951541Y-124728644D01*
X154896000Y-124728644D01*
X154896000Y-124081500D01*
X154731500Y-123917000D01*
X154575000Y-123913816D01*
X154446009Y-123926520D01*
X154321976Y-123964146D01*
X154207666Y-124025246D01*
X154107472Y-124107472D01*
X154025246Y-124207666D01*
X153964146Y-124321976D01*
X153926520Y-124446009D01*
X153913816Y-124575000D01*
X140969130Y-124575000D01*
X140937587Y-124498849D01*
X140821802Y-124325564D01*
X140674436Y-124178198D01*
X140501151Y-124062413D01*
X140308607Y-123982659D01*
X140104204Y-123942000D01*
X139895796Y-123942000D01*
X139691393Y-123982659D01*
X139498849Y-124062413D01*
X139325564Y-124178198D01*
X139178198Y-124325564D01*
X139062413Y-124498849D01*
X138982659Y-124691393D01*
X138942000Y-124895796D01*
X133376838Y-124895796D01*
X133571340Y-124701294D01*
X133736373Y-124454306D01*
X133850049Y-124179868D01*
X133908000Y-123888525D01*
X133908000Y-123591475D01*
X133850049Y-123300132D01*
X133736373Y-123025694D01*
X133571340Y-122778706D01*
X133361294Y-122568660D01*
X133213640Y-122470000D01*
X133361294Y-122371340D01*
X133571340Y-122161294D01*
X133736373Y-121914306D01*
X133850049Y-121639868D01*
X133908000Y-121348525D01*
X133908000Y-121051475D01*
X133850049Y-120760132D01*
X133736373Y-120485694D01*
X133571340Y-120238706D01*
X133361294Y-120028660D01*
X133213640Y-119930000D01*
X133361294Y-119831340D01*
X133571340Y-119621294D01*
X133736373Y-119374306D01*
X133850049Y-119099868D01*
X133908000Y-118808525D01*
X133908000Y-118511475D01*
X133850049Y-118220132D01*
X133736373Y-117945694D01*
X133571340Y-117698706D01*
X133361294Y-117488660D01*
X133213640Y-117390000D01*
X133361294Y-117291340D01*
X133571340Y-117081294D01*
X133736373Y-116834306D01*
X133850049Y-116559868D01*
X133908000Y-116268525D01*
X133908000Y-115971475D01*
X133850049Y-115680132D01*
X133736373Y-115405694D01*
X133571340Y-115158706D01*
X133361294Y-114948660D01*
X133282179Y-114895796D01*
X138942000Y-114895796D01*
X138942000Y-115104204D01*
X138982659Y-115308607D01*
X139062413Y-115501151D01*
X139178198Y-115674436D01*
X139325564Y-115821802D01*
X139498849Y-115937587D01*
X139691393Y-116017341D01*
X139895796Y-116058000D01*
X140104204Y-116058000D01*
X140308607Y-116017341D01*
X140501151Y-115937587D01*
X140674436Y-115821802D01*
X140821802Y-115674436D01*
X140937587Y-115501151D01*
X141017341Y-115308607D01*
X141058000Y-115104204D01*
X141058000Y-114895796D01*
X148942000Y-114895796D01*
X148942000Y-115104204D01*
X148982659Y-115308607D01*
X149062413Y-115501151D01*
X149178198Y-115674436D01*
X149325564Y-115821802D01*
X149498849Y-115937587D01*
X149691393Y-116017341D01*
X149895796Y-116058000D01*
X150104204Y-116058000D01*
X150308607Y-116017341D01*
X150501151Y-115937587D01*
X150674436Y-115821802D01*
X150821802Y-115674436D01*
X150937587Y-115501151D01*
X151017341Y-115308607D01*
X151058000Y-115104204D01*
X151058000Y-114895796D01*
X151017341Y-114691393D01*
X150937587Y-114498849D01*
X150821802Y-114325564D01*
X150674436Y-114178198D01*
X150501151Y-114062413D01*
X150308607Y-113982659D01*
X150104204Y-113942000D01*
X149895796Y-113942000D01*
X149691393Y-113982659D01*
X149498849Y-114062413D01*
X149325564Y-114178198D01*
X149178198Y-114325564D01*
X149062413Y-114498849D01*
X148982659Y-114691393D01*
X148942000Y-114895796D01*
X141058000Y-114895796D01*
X141017341Y-114691393D01*
X140937587Y-114498849D01*
X140821802Y-114325564D01*
X140674436Y-114178198D01*
X140501151Y-114062413D01*
X140308607Y-113982659D01*
X140104204Y-113942000D01*
X139895796Y-113942000D01*
X139691393Y-113982659D01*
X139498849Y-114062413D01*
X139325564Y-114178198D01*
X139178198Y-114325564D01*
X139062413Y-114498849D01*
X138982659Y-114691393D01*
X138942000Y-114895796D01*
X133282179Y-114895796D01*
X133213640Y-114850000D01*
X133361294Y-114751340D01*
X133571340Y-114541294D01*
X133736373Y-114294306D01*
X133850049Y-114019868D01*
X133908000Y-113728525D01*
X133908000Y-113431475D01*
X133850049Y-113140132D01*
X133736373Y-112865694D01*
X133571340Y-112618706D01*
X133361294Y-112408660D01*
X133213640Y-112310000D01*
X133361294Y-112211340D01*
X133571340Y-112001294D01*
X133736373Y-111754306D01*
X133850049Y-111479868D01*
X133908000Y-111188525D01*
X133908000Y-110891475D01*
X133850049Y-110600132D01*
X133736373Y-110325694D01*
X133571340Y-110078706D01*
X133388430Y-109895796D01*
X163942000Y-109895796D01*
X163942000Y-110104204D01*
X163982659Y-110308607D01*
X164062413Y-110501151D01*
X164178198Y-110674436D01*
X164325564Y-110821802D01*
X164498849Y-110937587D01*
X164691393Y-111017341D01*
X164895796Y-111058000D01*
X165104204Y-111058000D01*
X165308607Y-111017341D01*
X165501151Y-110937587D01*
X165674436Y-110821802D01*
X165821802Y-110674436D01*
X165937587Y-110501151D01*
X166017341Y-110308607D01*
X166058000Y-110104204D01*
X166058000Y-109895796D01*
X166017341Y-109691393D01*
X165937587Y-109498849D01*
X165821802Y-109325564D01*
X165674436Y-109178198D01*
X165501151Y-109062413D01*
X165308607Y-108982659D01*
X165104204Y-108942000D01*
X164895796Y-108942000D01*
X164691393Y-108982659D01*
X164498849Y-109062413D01*
X164325564Y-109178198D01*
X164178198Y-109325564D01*
X164062413Y-109498849D01*
X163982659Y-109691393D01*
X163942000Y-109895796D01*
X133388430Y-109895796D01*
X133361294Y-109868660D01*
X133213640Y-109770000D01*
X133361294Y-109671340D01*
X133571340Y-109461294D01*
X133736373Y-109214306D01*
X133850049Y-108939868D01*
X133908000Y-108648525D01*
X133908000Y-108351475D01*
X133850049Y-108060132D01*
X133736373Y-107785694D01*
X133571340Y-107538706D01*
X133361294Y-107328660D01*
X133213640Y-107230000D01*
X133361294Y-107131340D01*
X133571340Y-106921294D01*
X133736373Y-106674306D01*
X133850049Y-106399868D01*
X133908000Y-106108525D01*
X133908000Y-105811475D01*
X133850049Y-105520132D01*
X133736373Y-105245694D01*
X133571340Y-104998706D01*
X133468430Y-104895796D01*
X138942000Y-104895796D01*
X138942000Y-105104204D01*
X138982659Y-105308607D01*
X139062413Y-105501151D01*
X139178198Y-105674436D01*
X139325564Y-105821802D01*
X139498849Y-105937587D01*
X139691393Y-106017341D01*
X139895796Y-106058000D01*
X140104204Y-106058000D01*
X140308607Y-106017341D01*
X140501151Y-105937587D01*
X140674436Y-105821802D01*
X140821802Y-105674436D01*
X140937587Y-105501151D01*
X141017341Y-105308607D01*
X141058000Y-105104204D01*
X141058000Y-104895796D01*
X153942000Y-104895796D01*
X153942000Y-105104204D01*
X153982659Y-105308607D01*
X154062413Y-105501151D01*
X154178198Y-105674436D01*
X154325564Y-105821802D01*
X154498849Y-105937587D01*
X154691393Y-106017341D01*
X154895796Y-106058000D01*
X155104204Y-106058000D01*
X155308607Y-106017341D01*
X155501151Y-105937587D01*
X155674436Y-105821802D01*
X155821802Y-105674436D01*
X155937587Y-105501151D01*
X156017341Y-105308607D01*
X156058000Y-105104204D01*
X156058000Y-104895796D01*
X156017341Y-104691393D01*
X155937587Y-104498849D01*
X155821802Y-104325564D01*
X155674436Y-104178198D01*
X155501151Y-104062413D01*
X155308607Y-103982659D01*
X155104204Y-103942000D01*
X154895796Y-103942000D01*
X154691393Y-103982659D01*
X154498849Y-104062413D01*
X154325564Y-104178198D01*
X154178198Y-104325564D01*
X154062413Y-104498849D01*
X153982659Y-104691393D01*
X153942000Y-104895796D01*
X141058000Y-104895796D01*
X141017341Y-104691393D01*
X140937587Y-104498849D01*
X140821802Y-104325564D01*
X140674436Y-104178198D01*
X140501151Y-104062413D01*
X140308607Y-103982659D01*
X140104204Y-103942000D01*
X139895796Y-103942000D01*
X139691393Y-103982659D01*
X139498849Y-104062413D01*
X139325564Y-104178198D01*
X139178198Y-104325564D01*
X139062413Y-104498849D01*
X138982659Y-104691393D01*
X138942000Y-104895796D01*
X133468430Y-104895796D01*
X133361294Y-104788660D01*
X133213640Y-104690000D01*
X133361294Y-104591340D01*
X133571340Y-104381294D01*
X133736373Y-104134306D01*
X133850049Y-103859868D01*
X133908000Y-103568525D01*
X133908000Y-103271475D01*
X133850049Y-102980132D01*
X133736373Y-102705694D01*
X133571340Y-102458706D01*
X133361294Y-102248660D01*
X133213640Y-102150000D01*
X133361294Y-102051340D01*
X133571340Y-101841294D01*
X133736373Y-101594306D01*
X133850049Y-101319868D01*
X133908000Y-101028525D01*
X133908000Y-100731475D01*
X133850049Y-100440132D01*
X133843782Y-100425000D01*
X143913816Y-100425000D01*
X143926520Y-100553991D01*
X143964146Y-100678024D01*
X144025246Y-100792334D01*
X144107472Y-100892528D01*
X144207666Y-100974754D01*
X144321976Y-101035854D01*
X144446009Y-101073480D01*
X144575000Y-101086184D01*
X144731500Y-101083000D01*
X144896000Y-100918500D01*
X144896000Y-100104000D01*
X145104000Y-100104000D01*
X145104000Y-100918500D01*
X145268500Y-101083000D01*
X145425000Y-101086184D01*
X145553991Y-101073480D01*
X145678024Y-101035854D01*
X145792334Y-100974754D01*
X145892528Y-100892528D01*
X145974754Y-100792334D01*
X146035854Y-100678024D01*
X146073480Y-100553991D01*
X146086184Y-100425000D01*
X148913816Y-100425000D01*
X148926520Y-100553991D01*
X148964146Y-100678024D01*
X149025246Y-100792334D01*
X149107472Y-100892528D01*
X149207666Y-100974754D01*
X149321976Y-101035854D01*
X149446009Y-101073480D01*
X149575000Y-101086184D01*
X149731500Y-101083000D01*
X149896000Y-100918500D01*
X149896000Y-100104000D01*
X150104000Y-100104000D01*
X150104000Y-100918500D01*
X150268500Y-101083000D01*
X150425000Y-101086184D01*
X150553991Y-101073480D01*
X150678024Y-101035854D01*
X150792334Y-100974754D01*
X150892528Y-100892528D01*
X150927429Y-100850000D01*
X163488816Y-100850000D01*
X163501520Y-100978991D01*
X163539146Y-101103024D01*
X163600246Y-101217334D01*
X163682472Y-101317528D01*
X163782666Y-101399754D01*
X163896976Y-101460854D01*
X164021009Y-101498480D01*
X164150000Y-101511184D01*
X164731500Y-101508000D01*
X164896000Y-101343500D01*
X164896000Y-100104000D01*
X165104000Y-100104000D01*
X165104000Y-101343500D01*
X165268500Y-101508000D01*
X165850000Y-101511184D01*
X165978991Y-101498480D01*
X166103024Y-101460854D01*
X166217334Y-101399754D01*
X166317528Y-101317528D01*
X166399754Y-101217334D01*
X166460854Y-101103024D01*
X166498480Y-100978991D01*
X166511184Y-100850000D01*
X166508000Y-100268500D01*
X166343500Y-100104000D01*
X165104000Y-100104000D01*
X164896000Y-100104000D01*
X163656500Y-100104000D01*
X163492000Y-100268500D01*
X163488816Y-100850000D01*
X150927429Y-100850000D01*
X150974754Y-100792334D01*
X151035854Y-100678024D01*
X151073480Y-100553991D01*
X151086184Y-100425000D01*
X151083000Y-100268500D01*
X150918500Y-100104000D01*
X150104000Y-100104000D01*
X149896000Y-100104000D01*
X149081500Y-100104000D01*
X148917000Y-100268500D01*
X148913816Y-100425000D01*
X146086184Y-100425000D01*
X146083000Y-100268500D01*
X145918500Y-100104000D01*
X145104000Y-100104000D01*
X144896000Y-100104000D01*
X144081500Y-100104000D01*
X143917000Y-100268500D01*
X143913816Y-100425000D01*
X133843782Y-100425000D01*
X133736373Y-100165694D01*
X133571340Y-99918706D01*
X133361294Y-99708660D01*
X133213640Y-99610000D01*
X133266020Y-99575000D01*
X143913816Y-99575000D01*
X143917000Y-99731500D01*
X144081500Y-99896000D01*
X144896000Y-99896000D01*
X144896000Y-99081500D01*
X145104000Y-99081500D01*
X145104000Y-99896000D01*
X145918500Y-99896000D01*
X146083000Y-99731500D01*
X146086184Y-99575000D01*
X148913816Y-99575000D01*
X148917000Y-99731500D01*
X149081500Y-99896000D01*
X149896000Y-99896000D01*
X149896000Y-99081500D01*
X150104000Y-99081500D01*
X150104000Y-99896000D01*
X150918500Y-99896000D01*
X151083000Y-99731500D01*
X151086184Y-99575000D01*
X151073480Y-99446009D01*
X151035854Y-99321976D01*
X150974754Y-99207666D01*
X150927430Y-99150000D01*
X163488816Y-99150000D01*
X163492000Y-99731500D01*
X163656500Y-99896000D01*
X164896000Y-99896000D01*
X164896000Y-98656500D01*
X165104000Y-98656500D01*
X165104000Y-99896000D01*
X166343500Y-99896000D01*
X166508000Y-99731500D01*
X166511184Y-99150000D01*
X166498480Y-99021009D01*
X166460854Y-98896976D01*
X166399754Y-98782666D01*
X166317528Y-98682472D01*
X166217334Y-98600246D01*
X166103024Y-98539146D01*
X165978991Y-98501520D01*
X165850000Y-98488816D01*
X165268500Y-98492000D01*
X165104000Y-98656500D01*
X164896000Y-98656500D01*
X164731500Y-98492000D01*
X164150000Y-98488816D01*
X164021009Y-98501520D01*
X163896976Y-98539146D01*
X163782666Y-98600246D01*
X163682472Y-98682472D01*
X163600246Y-98782666D01*
X163539146Y-98896976D01*
X163501520Y-99021009D01*
X163488816Y-99150000D01*
X150927430Y-99150000D01*
X150892528Y-99107472D01*
X150792334Y-99025246D01*
X150678024Y-98964146D01*
X150553991Y-98926520D01*
X150425000Y-98913816D01*
X150268500Y-98917000D01*
X150104000Y-99081500D01*
X149896000Y-99081500D01*
X149731500Y-98917000D01*
X149575000Y-98913816D01*
X149446009Y-98926520D01*
X149321976Y-98964146D01*
X149207666Y-99025246D01*
X149107472Y-99107472D01*
X149025246Y-99207666D01*
X148964146Y-99321976D01*
X148926520Y-99446009D01*
X148913816Y-99575000D01*
X146086184Y-99575000D01*
X146073480Y-99446009D01*
X146035854Y-99321976D01*
X145974754Y-99207666D01*
X145892528Y-99107472D01*
X145792334Y-99025246D01*
X145678024Y-98964146D01*
X145553991Y-98926520D01*
X145425000Y-98913816D01*
X145268500Y-98917000D01*
X145104000Y-99081500D01*
X144896000Y-99081500D01*
X144731500Y-98917000D01*
X144575000Y-98913816D01*
X144446009Y-98926520D01*
X144321976Y-98964146D01*
X144207666Y-99025246D01*
X144107472Y-99107472D01*
X144025246Y-99207666D01*
X143964146Y-99321976D01*
X143926520Y-99446009D01*
X143913816Y-99575000D01*
X133266020Y-99575000D01*
X133361294Y-99511340D01*
X133571340Y-99301294D01*
X133736373Y-99054306D01*
X133850049Y-98779868D01*
X133908000Y-98488525D01*
X133908000Y-98191475D01*
X133850049Y-97900132D01*
X133736373Y-97625694D01*
X133571340Y-97378706D01*
X133361294Y-97168660D01*
X133213640Y-97070000D01*
X133361294Y-96971340D01*
X133571340Y-96761294D01*
X133736373Y-96514306D01*
X133850049Y-96239868D01*
X133908000Y-95948525D01*
X133908000Y-95651475D01*
X133850049Y-95360132D01*
X133736373Y-95085694D01*
X133609487Y-94895796D01*
X138942000Y-94895796D01*
X138942000Y-95104204D01*
X138982659Y-95308607D01*
X139062413Y-95501151D01*
X139178198Y-95674436D01*
X139325564Y-95821802D01*
X139498849Y-95937587D01*
X139691393Y-96017341D01*
X139895796Y-96058000D01*
X140104204Y-96058000D01*
X140308607Y-96017341D01*
X140501151Y-95937587D01*
X140674436Y-95821802D01*
X140821802Y-95674436D01*
X140937587Y-95501151D01*
X141017341Y-95308607D01*
X141058000Y-95104204D01*
X141058000Y-94895796D01*
X153942000Y-94895796D01*
X153942000Y-95104204D01*
X153982659Y-95308607D01*
X154062413Y-95501151D01*
X154178198Y-95674436D01*
X154325564Y-95821802D01*
X154498849Y-95937587D01*
X154691393Y-96017341D01*
X154895796Y-96058000D01*
X155104204Y-96058000D01*
X155308607Y-96017341D01*
X155501151Y-95937587D01*
X155674436Y-95821802D01*
X155821802Y-95674436D01*
X155937587Y-95501151D01*
X156017341Y-95308607D01*
X156058000Y-95104204D01*
X156058000Y-94895796D01*
X163942000Y-94895796D01*
X163942000Y-95104204D01*
X163982659Y-95308607D01*
X164062413Y-95501151D01*
X164178198Y-95674436D01*
X164325564Y-95821802D01*
X164498849Y-95937587D01*
X164691393Y-96017341D01*
X164895796Y-96058000D01*
X165104204Y-96058000D01*
X165308607Y-96017341D01*
X165501151Y-95937587D01*
X165674436Y-95821802D01*
X165821802Y-95674436D01*
X165937587Y-95501151D01*
X166017341Y-95308607D01*
X166058000Y-95104204D01*
X166058000Y-94895796D01*
X166017341Y-94691393D01*
X165937587Y-94498849D01*
X165821802Y-94325564D01*
X165674436Y-94178198D01*
X165501151Y-94062413D01*
X165308607Y-93982659D01*
X165104204Y-93942000D01*
X164895796Y-93942000D01*
X164691393Y-93982659D01*
X164498849Y-94062413D01*
X164325564Y-94178198D01*
X164178198Y-94325564D01*
X164062413Y-94498849D01*
X163982659Y-94691393D01*
X163942000Y-94895796D01*
X156058000Y-94895796D01*
X156017341Y-94691393D01*
X155937587Y-94498849D01*
X155821802Y-94325564D01*
X155674436Y-94178198D01*
X155501151Y-94062413D01*
X155308607Y-93982659D01*
X155104204Y-93942000D01*
X154895796Y-93942000D01*
X154691393Y-93982659D01*
X154498849Y-94062413D01*
X154325564Y-94178198D01*
X154178198Y-94325564D01*
X154062413Y-94498849D01*
X153982659Y-94691393D01*
X153942000Y-94895796D01*
X141058000Y-94895796D01*
X141017341Y-94691393D01*
X140937587Y-94498849D01*
X140821802Y-94325564D01*
X140674436Y-94178198D01*
X140501151Y-94062413D01*
X140308607Y-93982659D01*
X140104204Y-93942000D01*
X139895796Y-93942000D01*
X139691393Y-93982659D01*
X139498849Y-94062413D01*
X139325564Y-94178198D01*
X139178198Y-94325564D01*
X139062413Y-94498849D01*
X138982659Y-94691393D01*
X138942000Y-94895796D01*
X133609487Y-94895796D01*
X133571340Y-94838706D01*
X133361294Y-94628660D01*
X133213640Y-94530000D01*
X133361294Y-94431340D01*
X133571340Y-94221294D01*
X133736373Y-93974306D01*
X133850049Y-93699868D01*
X133908000Y-93408525D01*
X133908000Y-93111475D01*
X133850049Y-92820132D01*
X133736373Y-92545694D01*
X133571340Y-92298706D01*
X133361294Y-92088660D01*
X133213640Y-91990000D01*
X133361294Y-91891340D01*
X133571340Y-91681294D01*
X133736373Y-91434306D01*
X133850049Y-91159868D01*
X133908000Y-90868525D01*
X133908000Y-90571475D01*
X133850049Y-90280132D01*
X133736373Y-90005694D01*
X133571340Y-89758706D01*
X133361294Y-89548660D01*
X133213640Y-89450000D01*
X133361294Y-89351340D01*
X133571340Y-89141294D01*
X133736373Y-88894306D01*
X133850049Y-88619868D01*
X133908000Y-88328525D01*
X133908000Y-88031475D01*
X133850049Y-87740132D01*
X133736373Y-87465694D01*
X133571340Y-87218706D01*
X133361294Y-87008660D01*
X133213640Y-86910000D01*
X133361294Y-86811340D01*
X133571340Y-86601294D01*
X133736373Y-86354306D01*
X133850049Y-86079868D01*
X133908000Y-85788525D01*
X133908000Y-85491475D01*
X133850049Y-85200132D01*
X133736373Y-84925694D01*
X133716396Y-84895796D01*
X138942000Y-84895796D01*
X138942000Y-85104204D01*
X138982659Y-85308607D01*
X139062413Y-85501151D01*
X139178198Y-85674436D01*
X139325564Y-85821802D01*
X139498849Y-85937587D01*
X139691393Y-86017341D01*
X139895796Y-86058000D01*
X140104204Y-86058000D01*
X140308607Y-86017341D01*
X140501151Y-85937587D01*
X140674436Y-85821802D01*
X140821802Y-85674436D01*
X140937587Y-85501151D01*
X141017341Y-85308607D01*
X141058000Y-85104204D01*
X141058000Y-84895796D01*
X153942000Y-84895796D01*
X153942000Y-85104204D01*
X153982659Y-85308607D01*
X154062413Y-85501151D01*
X154178198Y-85674436D01*
X154325564Y-85821802D01*
X154498849Y-85937587D01*
X154691393Y-86017341D01*
X154895796Y-86058000D01*
X155104204Y-86058000D01*
X155308607Y-86017341D01*
X155501151Y-85937587D01*
X155674436Y-85821802D01*
X155821802Y-85674436D01*
X155937587Y-85501151D01*
X156017341Y-85308607D01*
X156058000Y-85104204D01*
X156058000Y-84895796D01*
X156017341Y-84691393D01*
X155937587Y-84498849D01*
X155821802Y-84325564D01*
X155674436Y-84178198D01*
X155501151Y-84062413D01*
X155308607Y-83982659D01*
X155104204Y-83942000D01*
X154895796Y-83942000D01*
X154691393Y-83982659D01*
X154498849Y-84062413D01*
X154325564Y-84178198D01*
X154178198Y-84325564D01*
X154062413Y-84498849D01*
X153982659Y-84691393D01*
X153942000Y-84895796D01*
X141058000Y-84895796D01*
X141017341Y-84691393D01*
X140937587Y-84498849D01*
X140821802Y-84325564D01*
X140674436Y-84178198D01*
X140501151Y-84062413D01*
X140308607Y-83982659D01*
X140104204Y-83942000D01*
X139895796Y-83942000D01*
X139691393Y-83982659D01*
X139498849Y-84062413D01*
X139325564Y-84178198D01*
X139178198Y-84325564D01*
X139062413Y-84498849D01*
X138982659Y-84691393D01*
X138942000Y-84895796D01*
X133716396Y-84895796D01*
X133571340Y-84678706D01*
X133361294Y-84468660D01*
X133213640Y-84370000D01*
X133361294Y-84271340D01*
X133571340Y-84061294D01*
X133736373Y-83814306D01*
X133850049Y-83539868D01*
X133908000Y-83248525D01*
X133908000Y-82951475D01*
X133850049Y-82660132D01*
X133736373Y-82385694D01*
X133571340Y-82138706D01*
X133361294Y-81928660D01*
X133213640Y-81830000D01*
X133361294Y-81731340D01*
X133571340Y-81521294D01*
X133736373Y-81274306D01*
X133850049Y-80999868D01*
X133908000Y-80708525D01*
X133908000Y-80411475D01*
X133850049Y-80120132D01*
X133757126Y-79895796D01*
X158942000Y-79895796D01*
X158942000Y-80104204D01*
X158982659Y-80308607D01*
X159062413Y-80501151D01*
X159178198Y-80674436D01*
X159325564Y-80821802D01*
X159498849Y-80937587D01*
X159691393Y-81017341D01*
X159895796Y-81058000D01*
X160104204Y-81058000D01*
X160308607Y-81017341D01*
X160501151Y-80937587D01*
X160674436Y-80821802D01*
X160821802Y-80674436D01*
X160937587Y-80501151D01*
X161017341Y-80308607D01*
X161058000Y-80104204D01*
X161058000Y-79895796D01*
X161017341Y-79691393D01*
X160937587Y-79498849D01*
X160821802Y-79325564D01*
X160674436Y-79178198D01*
X160501151Y-79062413D01*
X160308607Y-78982659D01*
X160104204Y-78942000D01*
X159895796Y-78942000D01*
X159691393Y-78982659D01*
X159498849Y-79062413D01*
X159325564Y-79178198D01*
X159178198Y-79325564D01*
X159062413Y-79498849D01*
X158982659Y-79691393D01*
X158942000Y-79895796D01*
X133757126Y-79895796D01*
X133736373Y-79845694D01*
X133571340Y-79598706D01*
X133361294Y-79388660D01*
X133213640Y-79290000D01*
X133361294Y-79191340D01*
X133571340Y-78981294D01*
X133736373Y-78734306D01*
X133850049Y-78459868D01*
X133908000Y-78168525D01*
X133908000Y-77871475D01*
X133850049Y-77580132D01*
X133736373Y-77305694D01*
X133571340Y-77058706D01*
X133361294Y-76848660D01*
X133213640Y-76750000D01*
X133361294Y-76651340D01*
X133571340Y-76441294D01*
X133736373Y-76194306D01*
X133850049Y-75919868D01*
X133908000Y-75628525D01*
X133908000Y-75331475D01*
X133850049Y-75040132D01*
X133790264Y-74895796D01*
X138942000Y-74895796D01*
X138942000Y-75104204D01*
X138982659Y-75308607D01*
X139062413Y-75501151D01*
X139178198Y-75674436D01*
X139325564Y-75821802D01*
X139498849Y-75937587D01*
X139691393Y-76017341D01*
X139895796Y-76058000D01*
X140104204Y-76058000D01*
X140308607Y-76017341D01*
X140501151Y-75937587D01*
X140674436Y-75821802D01*
X140821802Y-75674436D01*
X140937587Y-75501151D01*
X141017341Y-75308607D01*
X141058000Y-75104204D01*
X141058000Y-74895796D01*
X148942000Y-74895796D01*
X148942000Y-75104204D01*
X148982659Y-75308607D01*
X149062413Y-75501151D01*
X149178198Y-75674436D01*
X149325564Y-75821802D01*
X149498849Y-75937587D01*
X149691393Y-76017341D01*
X149895796Y-76058000D01*
X150104204Y-76058000D01*
X150308607Y-76017341D01*
X150501151Y-75937587D01*
X150674436Y-75821802D01*
X150821802Y-75674436D01*
X150937587Y-75501151D01*
X151017341Y-75308607D01*
X151058000Y-75104204D01*
X151058000Y-74895796D01*
X153942000Y-74895796D01*
X153942000Y-75104204D01*
X153982659Y-75308607D01*
X154062413Y-75501151D01*
X154178198Y-75674436D01*
X154325564Y-75821802D01*
X154498849Y-75937587D01*
X154691393Y-76017341D01*
X154895796Y-76058000D01*
X155104204Y-76058000D01*
X155308607Y-76017341D01*
X155501151Y-75937587D01*
X155674436Y-75821802D01*
X155821802Y-75674436D01*
X155937587Y-75501151D01*
X156017341Y-75308607D01*
X156058000Y-75104204D01*
X156058000Y-74895796D01*
X156017341Y-74691393D01*
X155937587Y-74498849D01*
X155821802Y-74325564D01*
X155674436Y-74178198D01*
X155501151Y-74062413D01*
X155308607Y-73982659D01*
X155104204Y-73942000D01*
X154895796Y-73942000D01*
X154691393Y-73982659D01*
X154498849Y-74062413D01*
X154325564Y-74178198D01*
X154178198Y-74325564D01*
X154062413Y-74498849D01*
X153982659Y-74691393D01*
X153942000Y-74895796D01*
X151058000Y-74895796D01*
X151017341Y-74691393D01*
X150937587Y-74498849D01*
X150821802Y-74325564D01*
X150674436Y-74178198D01*
X150501151Y-74062413D01*
X150308607Y-73982659D01*
X150104204Y-73942000D01*
X149895796Y-73942000D01*
X149691393Y-73982659D01*
X149498849Y-74062413D01*
X149325564Y-74178198D01*
X149178198Y-74325564D01*
X149062413Y-74498849D01*
X148982659Y-74691393D01*
X148942000Y-74895796D01*
X141058000Y-74895796D01*
X141017341Y-74691393D01*
X140937587Y-74498849D01*
X140821802Y-74325564D01*
X140674436Y-74178198D01*
X140501151Y-74062413D01*
X140308607Y-73982659D01*
X140104204Y-73942000D01*
X139895796Y-73942000D01*
X139691393Y-73982659D01*
X139498849Y-74062413D01*
X139325564Y-74178198D01*
X139178198Y-74325564D01*
X139062413Y-74498849D01*
X138982659Y-74691393D01*
X138942000Y-74895796D01*
X133790264Y-74895796D01*
X133736373Y-74765694D01*
X133571340Y-74518706D01*
X133361294Y-74308660D01*
X133213640Y-74210000D01*
X133361294Y-74111340D01*
X133571340Y-73901294D01*
X133736373Y-73654306D01*
X133850049Y-73379868D01*
X133908000Y-73088525D01*
X133908000Y-72791475D01*
X133850049Y-72500132D01*
X133736373Y-72225694D01*
X133571340Y-71978706D01*
X133465017Y-71872383D01*
X133503024Y-71860853D01*
X133617334Y-71799754D01*
X133717527Y-71717527D01*
X133799754Y-71617334D01*
X133860853Y-71503024D01*
X133898479Y-71378990D01*
X133911183Y-71250000D01*
X133911183Y-70425000D01*
X153913816Y-70425000D01*
X153926520Y-70553991D01*
X153964146Y-70678024D01*
X154025246Y-70792334D01*
X154107472Y-70892528D01*
X154207666Y-70974754D01*
X154321976Y-71035854D01*
X154446009Y-71073480D01*
X154575000Y-71086184D01*
X154731500Y-71083000D01*
X154896000Y-70918500D01*
X154896000Y-70271356D01*
X154951541Y-70271356D01*
X155024626Y-70470686D01*
X155104000Y-70600795D01*
X155104000Y-70918500D01*
X155268500Y-71083000D01*
X155425000Y-71086184D01*
X155553991Y-71073480D01*
X155678024Y-71035854D01*
X155681310Y-71034098D01*
X155728645Y-71048454D01*
X155896000Y-70912593D01*
X155896000Y-70888297D01*
X155974754Y-70792334D01*
X156035854Y-70678024D01*
X156073480Y-70553991D01*
X156073753Y-70551215D01*
X156104000Y-70600795D01*
X156104000Y-70912593D01*
X156271355Y-71048454D01*
X156356868Y-71022519D01*
X156500000Y-70956187D01*
X156643132Y-71022519D01*
X156728645Y-71048454D01*
X156896000Y-70912593D01*
X156896000Y-70600795D01*
X156975374Y-70470686D01*
X157048459Y-70271356D01*
X156913500Y-70104000D01*
X157104000Y-70104000D01*
X157104000Y-70912593D01*
X157271355Y-71048454D01*
X157356868Y-71022519D01*
X157549494Y-70933250D01*
X157721004Y-70808117D01*
X157864806Y-70651928D01*
X157975374Y-70470686D01*
X158048459Y-70271356D01*
X157913500Y-70104000D01*
X157104000Y-70104000D01*
X156913500Y-70104000D01*
X156086500Y-70104000D01*
X156011502Y-70197002D01*
X155918500Y-70104000D01*
X155086500Y-70104000D01*
X154951541Y-70271356D01*
X154896000Y-70271356D01*
X154896000Y-70104000D01*
X154081500Y-70104000D01*
X153917000Y-70268500D01*
X153913816Y-70425000D01*
X133911183Y-70425000D01*
X133911183Y-69575000D01*
X153913816Y-69575000D01*
X153917000Y-69731500D01*
X154081500Y-69896000D01*
X154896000Y-69896000D01*
X154896000Y-69728644D01*
X154951541Y-69728644D01*
X155086500Y-69896000D01*
X155918500Y-69896000D01*
X156011502Y-69802998D01*
X156086500Y-69896000D01*
X156913500Y-69896000D01*
X157048459Y-69728644D01*
X156975374Y-69529314D01*
X156896000Y-69399205D01*
X156896000Y-69087407D01*
X157104000Y-69087407D01*
X157104000Y-69896000D01*
X157913500Y-69896000D01*
X157913664Y-69895796D01*
X163942000Y-69895796D01*
X163942000Y-70104204D01*
X163982659Y-70308607D01*
X164062413Y-70501151D01*
X164178198Y-70674436D01*
X164325564Y-70821802D01*
X164498849Y-70937587D01*
X164691393Y-71017341D01*
X164895796Y-71058000D01*
X165104204Y-71058000D01*
X165308607Y-71017341D01*
X165501151Y-70937587D01*
X165674436Y-70821802D01*
X165821802Y-70674436D01*
X165937587Y-70501151D01*
X166017341Y-70308607D01*
X166058000Y-70104204D01*
X166058000Y-69895796D01*
X166017341Y-69691393D01*
X165937587Y-69498849D01*
X165821802Y-69325564D01*
X165674436Y-69178198D01*
X165501151Y-69062413D01*
X165308607Y-68982659D01*
X165104204Y-68942000D01*
X164895796Y-68942000D01*
X164691393Y-68982659D01*
X164498849Y-69062413D01*
X164325564Y-69178198D01*
X164178198Y-69325564D01*
X164062413Y-69498849D01*
X163982659Y-69691393D01*
X163942000Y-69895796D01*
X157913664Y-69895796D01*
X158048459Y-69728644D01*
X157975374Y-69529314D01*
X157864806Y-69348072D01*
X157721004Y-69191883D01*
X157549494Y-69066750D01*
X157356868Y-68977481D01*
X157271355Y-68951546D01*
X157104000Y-69087407D01*
X156896000Y-69087407D01*
X156728645Y-68951546D01*
X156643132Y-68977481D01*
X156500000Y-69043813D01*
X156356868Y-68977481D01*
X156271355Y-68951546D01*
X156104000Y-69087407D01*
X156104000Y-69399205D01*
X156073753Y-69448785D01*
X156073480Y-69446009D01*
X156035854Y-69321976D01*
X155974754Y-69207666D01*
X155896000Y-69111703D01*
X155896000Y-69087407D01*
X155728645Y-68951546D01*
X155681310Y-68965902D01*
X155678024Y-68964146D01*
X155553991Y-68926520D01*
X155425000Y-68913816D01*
X155268500Y-68917000D01*
X155104000Y-69081500D01*
X155104000Y-69399205D01*
X155024626Y-69529314D01*
X154951541Y-69728644D01*
X154896000Y-69728644D01*
X154896000Y-69081500D01*
X154731500Y-68917000D01*
X154575000Y-68913816D01*
X154446009Y-68926520D01*
X154321976Y-68964146D01*
X154207666Y-69025246D01*
X154107472Y-69107472D01*
X154025246Y-69207666D01*
X153964146Y-69321976D01*
X153926520Y-69446009D01*
X153913816Y-69575000D01*
X133911183Y-69575000D01*
X133911183Y-69550000D01*
X133898479Y-69421010D01*
X133860853Y-69296976D01*
X133799754Y-69182666D01*
X133717527Y-69082473D01*
X133617334Y-69000246D01*
X133503024Y-68939147D01*
X133378990Y-68901521D01*
X133250000Y-68888817D01*
X131550000Y-68888817D01*
X131421010Y-68901521D01*
X131296976Y-68939147D01*
X131182666Y-69000246D01*
X131082473Y-69082473D01*
X131000246Y-69182666D01*
X130939147Y-69296976D01*
X130901521Y-69421010D01*
X130888817Y-69550000D01*
X130888817Y-69731948D01*
X130862884Y-69745810D01*
X130743657Y-69843657D01*
X130719140Y-69873531D01*
X115150000Y-85442672D01*
X115150000Y-81048890D01*
X115308607Y-81017341D01*
X115501151Y-80937587D01*
X115674436Y-80821802D01*
X115821802Y-80674436D01*
X115937587Y-80501151D01*
X116017341Y-80308607D01*
X116058000Y-80104204D01*
X116058000Y-79895796D01*
X116017341Y-79691393D01*
X115937587Y-79498849D01*
X115821802Y-79325564D01*
X115674436Y-79178198D01*
X115501151Y-79062413D01*
X115308607Y-78982659D01*
X115150000Y-78951110D01*
X115150000Y-71048890D01*
X115308607Y-71017341D01*
X115501151Y-70937587D01*
X115674436Y-70821802D01*
X115821802Y-70674436D01*
X115937587Y-70501151D01*
X116017341Y-70308607D01*
X116058000Y-70104204D01*
X116058000Y-69895796D01*
X118942000Y-69895796D01*
X118942000Y-70104204D01*
X118982659Y-70308607D01*
X119062413Y-70501151D01*
X119178198Y-70674436D01*
X119325564Y-70821802D01*
X119498849Y-70937587D01*
X119691393Y-71017341D01*
X119895796Y-71058000D01*
X120104204Y-71058000D01*
X120308607Y-71017341D01*
X120501151Y-70937587D01*
X120674436Y-70821802D01*
X120821802Y-70674436D01*
X120937587Y-70501151D01*
X121017341Y-70308607D01*
X121058000Y-70104204D01*
X121058000Y-69895796D01*
X121017341Y-69691393D01*
X120937587Y-69498849D01*
X120821802Y-69325564D01*
X120674436Y-69178198D01*
X120501151Y-69062413D01*
X120308607Y-68982659D01*
X120104204Y-68942000D01*
X119895796Y-68942000D01*
X119691393Y-68982659D01*
X119498849Y-69062413D01*
X119325564Y-69178198D01*
X119178198Y-69325564D01*
X119062413Y-69498849D01*
X118982659Y-69691393D01*
X118942000Y-69895796D01*
X116058000Y-69895796D01*
X116017341Y-69691393D01*
X115937587Y-69498849D01*
X115821802Y-69325564D01*
X115674436Y-69178198D01*
X115501151Y-69062413D01*
X115308607Y-68982659D01*
X115150000Y-68951110D01*
X115150000Y-65150000D01*
X138951110Y-65150000D01*
X138982659Y-65308607D01*
%TA.AperFunction,Conductor*%
D19*
G36*
X138982659Y-65308607D02*
G01*
X139062413Y-65501151D01*
X139178198Y-65674436D01*
X139325564Y-65821802D01*
X139498849Y-65937587D01*
X139691393Y-66017341D01*
X139895796Y-66058000D01*
X140104204Y-66058000D01*
X140308607Y-66017341D01*
X140501151Y-65937587D01*
X140674436Y-65821802D01*
X140821802Y-65674436D01*
X140937587Y-65501151D01*
X141017341Y-65308607D01*
X141048890Y-65150000D01*
X153951110Y-65150000D01*
X153982659Y-65308607D01*
X154062413Y-65501151D01*
X154178198Y-65674436D01*
X154325564Y-65821802D01*
X154498849Y-65937587D01*
X154691393Y-66017341D01*
X154895796Y-66058000D01*
X155104204Y-66058000D01*
X155308607Y-66017341D01*
X155501151Y-65937587D01*
X155674436Y-65821802D01*
X155821802Y-65674436D01*
X155937587Y-65501151D01*
X156017341Y-65308607D01*
X156048890Y-65150000D01*
X169850000Y-65150000D01*
X169850000Y-129850000D01*
X115150000Y-129850000D01*
X115150000Y-124895796D01*
X118942000Y-124895796D01*
X118942000Y-125104204D01*
X118982659Y-125308607D01*
X119062413Y-125501151D01*
X119178198Y-125674436D01*
X119325564Y-125821802D01*
X119498849Y-125937587D01*
X119691393Y-126017341D01*
X119895796Y-126058000D01*
X120104204Y-126058000D01*
X120308607Y-126017341D01*
X120501151Y-125937587D01*
X120674436Y-125821802D01*
X120821802Y-125674436D01*
X120937587Y-125501151D01*
X121017341Y-125308607D01*
X121058000Y-125104204D01*
X121058000Y-124895796D01*
X121017341Y-124691393D01*
X120937587Y-124498849D01*
X120821802Y-124325564D01*
X120674436Y-124178198D01*
X120501151Y-124062413D01*
X120308607Y-123982659D01*
X120104204Y-123942000D01*
X119895796Y-123942000D01*
X119691393Y-123982659D01*
X119498849Y-124062413D01*
X119325564Y-124178198D01*
X119178198Y-124325564D01*
X119062413Y-124498849D01*
X118982659Y-124691393D01*
X118942000Y-124895796D01*
X115150000Y-124895796D01*
X115150000Y-116048890D01*
X115308607Y-116017341D01*
X115501151Y-115937587D01*
X115674436Y-115821802D01*
X115821802Y-115674436D01*
X115937587Y-115501151D01*
X116017341Y-115308607D01*
X116058000Y-115104204D01*
X116058000Y-114895796D01*
X116017341Y-114691393D01*
X115937587Y-114498849D01*
X115821802Y-114325564D01*
X115674436Y-114178198D01*
X115501151Y-114062413D01*
X115308607Y-113982659D01*
X115150000Y-113951110D01*
X115150000Y-109083000D01*
X116635672Y-109083000D01*
X130933833Y-123381162D01*
X130892000Y-123591475D01*
X130892000Y-123888525D01*
X130949951Y-124179868D01*
X131063627Y-124454306D01*
X131228660Y-124701294D01*
X131438706Y-124911340D01*
X131685694Y-125076373D01*
X131960132Y-125190049D01*
X132251475Y-125248000D01*
X132548525Y-125248000D01*
X132839868Y-125190049D01*
X133114306Y-125076373D01*
X133361294Y-124911340D01*
X133376838Y-124895796D01*
X138942000Y-124895796D01*
X138942000Y-125104204D01*
X138982659Y-125308607D01*
X139062413Y-125501151D01*
X139178198Y-125674436D01*
X139325564Y-125821802D01*
X139498849Y-125937587D01*
X139691393Y-126017341D01*
X139895796Y-126058000D01*
X140104204Y-126058000D01*
X140308607Y-126017341D01*
X140501151Y-125937587D01*
X140674436Y-125821802D01*
X140821802Y-125674436D01*
X140937587Y-125501151D01*
X140969129Y-125425000D01*
X153913816Y-125425000D01*
X153926520Y-125553991D01*
X153964146Y-125678024D01*
X154025246Y-125792334D01*
X154107472Y-125892528D01*
X154207666Y-125974754D01*
X154321976Y-126035854D01*
X154446009Y-126073480D01*
X154575000Y-126086184D01*
X154731500Y-126083000D01*
X154896000Y-125918500D01*
X154896000Y-125271356D01*
X154951541Y-125271356D01*
X155024626Y-125470686D01*
X155104000Y-125600795D01*
X155104000Y-125918500D01*
X155268500Y-126083000D01*
X155425000Y-126086184D01*
X155553991Y-126073480D01*
X155678024Y-126035854D01*
X155681310Y-126034098D01*
X155728645Y-126048454D01*
X155896000Y-125912593D01*
X155896000Y-125888297D01*
X155974754Y-125792334D01*
X156035854Y-125678024D01*
X156073480Y-125553991D01*
X156073753Y-125551215D01*
X156104000Y-125600795D01*
X156104000Y-125912593D01*
X156271355Y-126048454D01*
X156356868Y-126022519D01*
X156500000Y-125956187D01*
X156643132Y-126022519D01*
X156728645Y-126048454D01*
X156896000Y-125912593D01*
X156896000Y-125600795D01*
X156975374Y-125470686D01*
X157048459Y-125271356D01*
X156913500Y-125104000D01*
X157104000Y-125104000D01*
X157104000Y-125912593D01*
X157271355Y-126048454D01*
X157356868Y-126022519D01*
X157549494Y-125933250D01*
X157721004Y-125808117D01*
X157864806Y-125651928D01*
X157975374Y-125470686D01*
X158048459Y-125271356D01*
X157913500Y-125104000D01*
X157104000Y-125104000D01*
X156913500Y-125104000D01*
X156086500Y-125104000D01*
X156011502Y-125197002D01*
X155918500Y-125104000D01*
X155086500Y-125104000D01*
X154951541Y-125271356D01*
X154896000Y-125271356D01*
X154896000Y-125104000D01*
X154081500Y-125104000D01*
X153917000Y-125268500D01*
X153913816Y-125425000D01*
X140969129Y-125425000D01*
X141017341Y-125308607D01*
X141058000Y-125104204D01*
X141058000Y-124895796D01*
X141017341Y-124691393D01*
X140969130Y-124575000D01*
X153913816Y-124575000D01*
X153917000Y-124731500D01*
X154081500Y-124896000D01*
X154896000Y-124896000D01*
X154896000Y-124728644D01*
X154951541Y-124728644D01*
X155086500Y-124896000D01*
X155918500Y-124896000D01*
X156011502Y-124802998D01*
X156086500Y-124896000D01*
X156913500Y-124896000D01*
X157048459Y-124728644D01*
X156975374Y-124529314D01*
X156896000Y-124399205D01*
X156896000Y-124087407D01*
X157104000Y-124087407D01*
X157104000Y-124896000D01*
X157913500Y-124896000D01*
X157913664Y-124895796D01*
X163942000Y-124895796D01*
X163942000Y-125104204D01*
X163982659Y-125308607D01*
X164062413Y-125501151D01*
X164178198Y-125674436D01*
X164325564Y-125821802D01*
X164498849Y-125937587D01*
X164691393Y-126017341D01*
X164895796Y-126058000D01*
X165104204Y-126058000D01*
X165308607Y-126017341D01*
X165501151Y-125937587D01*
X165674436Y-125821802D01*
X165821802Y-125674436D01*
X165937587Y-125501151D01*
X166017341Y-125308607D01*
X166058000Y-125104204D01*
X166058000Y-124895796D01*
X166017341Y-124691393D01*
X165937587Y-124498849D01*
X165821802Y-124325564D01*
X165674436Y-124178198D01*
X165501151Y-124062413D01*
X165308607Y-123982659D01*
X165104204Y-123942000D01*
X164895796Y-123942000D01*
X164691393Y-123982659D01*
X164498849Y-124062413D01*
X164325564Y-124178198D01*
X164178198Y-124325564D01*
X164062413Y-124498849D01*
X163982659Y-124691393D01*
X163942000Y-124895796D01*
X157913664Y-124895796D01*
X158048459Y-124728644D01*
X157975374Y-124529314D01*
X157864806Y-124348072D01*
X157721004Y-124191883D01*
X157549494Y-124066750D01*
X157356868Y-123977481D01*
X157271355Y-123951546D01*
X157104000Y-124087407D01*
X156896000Y-124087407D01*
X156728645Y-123951546D01*
X156643132Y-123977481D01*
X156500000Y-124043813D01*
X156356868Y-123977481D01*
X156271355Y-123951546D01*
X156104000Y-124087407D01*
X156104000Y-124399205D01*
X156073753Y-124448785D01*
X156073480Y-124446009D01*
X156035854Y-124321976D01*
X155974754Y-124207666D01*
X155896000Y-124111703D01*
X155896000Y-124087407D01*
X155728645Y-123951546D01*
X155681310Y-123965902D01*
X155678024Y-123964146D01*
X155553991Y-123926520D01*
X155425000Y-123913816D01*
X155268500Y-123917000D01*
X155104000Y-124081500D01*
X155104000Y-124399205D01*
X155024626Y-124529314D01*
X154951541Y-124728644D01*
X154896000Y-124728644D01*
X154896000Y-124081500D01*
X154731500Y-123917000D01*
X154575000Y-123913816D01*
X154446009Y-123926520D01*
X154321976Y-123964146D01*
X154207666Y-124025246D01*
X154107472Y-124107472D01*
X154025246Y-124207666D01*
X153964146Y-124321976D01*
X153926520Y-124446009D01*
X153913816Y-124575000D01*
X140969130Y-124575000D01*
X140937587Y-124498849D01*
X140821802Y-124325564D01*
X140674436Y-124178198D01*
X140501151Y-124062413D01*
X140308607Y-123982659D01*
X140104204Y-123942000D01*
X139895796Y-123942000D01*
X139691393Y-123982659D01*
X139498849Y-124062413D01*
X139325564Y-124178198D01*
X139178198Y-124325564D01*
X139062413Y-124498849D01*
X138982659Y-124691393D01*
X138942000Y-124895796D01*
X133376838Y-124895796D01*
X133571340Y-124701294D01*
X133736373Y-124454306D01*
X133850049Y-124179868D01*
X133908000Y-123888525D01*
X133908000Y-123591475D01*
X133850049Y-123300132D01*
X133736373Y-123025694D01*
X133571340Y-122778706D01*
X133361294Y-122568660D01*
X133213640Y-122470000D01*
X133361294Y-122371340D01*
X133571340Y-122161294D01*
X133736373Y-121914306D01*
X133850049Y-121639868D01*
X133908000Y-121348525D01*
X133908000Y-121051475D01*
X133850049Y-120760132D01*
X133736373Y-120485694D01*
X133571340Y-120238706D01*
X133361294Y-120028660D01*
X133213640Y-119930000D01*
X133361294Y-119831340D01*
X133571340Y-119621294D01*
X133736373Y-119374306D01*
X133850049Y-119099868D01*
X133908000Y-118808525D01*
X133908000Y-118511475D01*
X133850049Y-118220132D01*
X133736373Y-117945694D01*
X133571340Y-117698706D01*
X133361294Y-117488660D01*
X133213640Y-117390000D01*
X133361294Y-117291340D01*
X133571340Y-117081294D01*
X133736373Y-116834306D01*
X133850049Y-116559868D01*
X133908000Y-116268525D01*
X133908000Y-115971475D01*
X133850049Y-115680132D01*
X133736373Y-115405694D01*
X133571340Y-115158706D01*
X133361294Y-114948660D01*
X133282179Y-114895796D01*
X138942000Y-114895796D01*
X138942000Y-115104204D01*
X138982659Y-115308607D01*
X139062413Y-115501151D01*
X139178198Y-115674436D01*
X139325564Y-115821802D01*
X139498849Y-115937587D01*
X139691393Y-116017341D01*
X139895796Y-116058000D01*
X140104204Y-116058000D01*
X140308607Y-116017341D01*
X140501151Y-115937587D01*
X140674436Y-115821802D01*
X140821802Y-115674436D01*
X140937587Y-115501151D01*
X141017341Y-115308607D01*
X141058000Y-115104204D01*
X141058000Y-114895796D01*
X148942000Y-114895796D01*
X148942000Y-115104204D01*
X148982659Y-115308607D01*
X149062413Y-115501151D01*
X149178198Y-115674436D01*
X149325564Y-115821802D01*
X149498849Y-115937587D01*
X149691393Y-116017341D01*
X149895796Y-116058000D01*
X150104204Y-116058000D01*
X150308607Y-116017341D01*
X150501151Y-115937587D01*
X150674436Y-115821802D01*
X150821802Y-115674436D01*
X150937587Y-115501151D01*
X151017341Y-115308607D01*
X151058000Y-115104204D01*
X151058000Y-114895796D01*
X151017341Y-114691393D01*
X150937587Y-114498849D01*
X150821802Y-114325564D01*
X150674436Y-114178198D01*
X150501151Y-114062413D01*
X150308607Y-113982659D01*
X150104204Y-113942000D01*
X149895796Y-113942000D01*
X149691393Y-113982659D01*
X149498849Y-114062413D01*
X149325564Y-114178198D01*
X149178198Y-114325564D01*
X149062413Y-114498849D01*
X148982659Y-114691393D01*
X148942000Y-114895796D01*
X141058000Y-114895796D01*
X141017341Y-114691393D01*
X140937587Y-114498849D01*
X140821802Y-114325564D01*
X140674436Y-114178198D01*
X140501151Y-114062413D01*
X140308607Y-113982659D01*
X140104204Y-113942000D01*
X139895796Y-113942000D01*
X139691393Y-113982659D01*
X139498849Y-114062413D01*
X139325564Y-114178198D01*
X139178198Y-114325564D01*
X139062413Y-114498849D01*
X138982659Y-114691393D01*
X138942000Y-114895796D01*
X133282179Y-114895796D01*
X133213640Y-114850000D01*
X133361294Y-114751340D01*
X133571340Y-114541294D01*
X133736373Y-114294306D01*
X133850049Y-114019868D01*
X133908000Y-113728525D01*
X133908000Y-113431475D01*
X133850049Y-113140132D01*
X133736373Y-112865694D01*
X133571340Y-112618706D01*
X133361294Y-112408660D01*
X133213640Y-112310000D01*
X133361294Y-112211340D01*
X133571340Y-112001294D01*
X133736373Y-111754306D01*
X133850049Y-111479868D01*
X133908000Y-111188525D01*
X133908000Y-110891475D01*
X133850049Y-110600132D01*
X133736373Y-110325694D01*
X133571340Y-110078706D01*
X133388430Y-109895796D01*
X163942000Y-109895796D01*
X163942000Y-110104204D01*
X163982659Y-110308607D01*
X164062413Y-110501151D01*
X164178198Y-110674436D01*
X164325564Y-110821802D01*
X164498849Y-110937587D01*
X164691393Y-111017341D01*
X164895796Y-111058000D01*
X165104204Y-111058000D01*
X165308607Y-111017341D01*
X165501151Y-110937587D01*
X165674436Y-110821802D01*
X165821802Y-110674436D01*
X165937587Y-110501151D01*
X166017341Y-110308607D01*
X166058000Y-110104204D01*
X166058000Y-109895796D01*
X166017341Y-109691393D01*
X165937587Y-109498849D01*
X165821802Y-109325564D01*
X165674436Y-109178198D01*
X165501151Y-109062413D01*
X165308607Y-108982659D01*
X165104204Y-108942000D01*
X164895796Y-108942000D01*
X164691393Y-108982659D01*
X164498849Y-109062413D01*
X164325564Y-109178198D01*
X164178198Y-109325564D01*
X164062413Y-109498849D01*
X163982659Y-109691393D01*
X163942000Y-109895796D01*
X133388430Y-109895796D01*
X133361294Y-109868660D01*
X133213640Y-109770000D01*
X133361294Y-109671340D01*
X133571340Y-109461294D01*
X133736373Y-109214306D01*
X133850049Y-108939868D01*
X133908000Y-108648525D01*
X133908000Y-108351475D01*
X133850049Y-108060132D01*
X133736373Y-107785694D01*
X133571340Y-107538706D01*
X133361294Y-107328660D01*
X133213640Y-107230000D01*
X133361294Y-107131340D01*
X133571340Y-106921294D01*
X133736373Y-106674306D01*
X133850049Y-106399868D01*
X133908000Y-106108525D01*
X133908000Y-105811475D01*
X133850049Y-105520132D01*
X133736373Y-105245694D01*
X133571340Y-104998706D01*
X133468430Y-104895796D01*
X138942000Y-104895796D01*
X138942000Y-105104204D01*
X138982659Y-105308607D01*
X139062413Y-105501151D01*
X139178198Y-105674436D01*
X139325564Y-105821802D01*
X139498849Y-105937587D01*
X139691393Y-106017341D01*
X139895796Y-106058000D01*
X140104204Y-106058000D01*
X140308607Y-106017341D01*
X140501151Y-105937587D01*
X140674436Y-105821802D01*
X140821802Y-105674436D01*
X140937587Y-105501151D01*
X141017341Y-105308607D01*
X141058000Y-105104204D01*
X141058000Y-104895796D01*
X153942000Y-104895796D01*
X153942000Y-105104204D01*
X153982659Y-105308607D01*
X154062413Y-105501151D01*
X154178198Y-105674436D01*
X154325564Y-105821802D01*
X154498849Y-105937587D01*
X154691393Y-106017341D01*
X154895796Y-106058000D01*
X155104204Y-106058000D01*
X155308607Y-106017341D01*
X155501151Y-105937587D01*
X155674436Y-105821802D01*
X155821802Y-105674436D01*
X155937587Y-105501151D01*
X156017341Y-105308607D01*
X156058000Y-105104204D01*
X156058000Y-104895796D01*
X156017341Y-104691393D01*
X155937587Y-104498849D01*
X155821802Y-104325564D01*
X155674436Y-104178198D01*
X155501151Y-104062413D01*
X155308607Y-103982659D01*
X155104204Y-103942000D01*
X154895796Y-103942000D01*
X154691393Y-103982659D01*
X154498849Y-104062413D01*
X154325564Y-104178198D01*
X154178198Y-104325564D01*
X154062413Y-104498849D01*
X153982659Y-104691393D01*
X153942000Y-104895796D01*
X141058000Y-104895796D01*
X141017341Y-104691393D01*
X140937587Y-104498849D01*
X140821802Y-104325564D01*
X140674436Y-104178198D01*
X140501151Y-104062413D01*
X140308607Y-103982659D01*
X140104204Y-103942000D01*
X139895796Y-103942000D01*
X139691393Y-103982659D01*
X139498849Y-104062413D01*
X139325564Y-104178198D01*
X139178198Y-104325564D01*
X139062413Y-104498849D01*
X138982659Y-104691393D01*
X138942000Y-104895796D01*
X133468430Y-104895796D01*
X133361294Y-104788660D01*
X133213640Y-104690000D01*
X133361294Y-104591340D01*
X133571340Y-104381294D01*
X133736373Y-104134306D01*
X133850049Y-103859868D01*
X133908000Y-103568525D01*
X133908000Y-103271475D01*
X133850049Y-102980132D01*
X133736373Y-102705694D01*
X133571340Y-102458706D01*
X133361294Y-102248660D01*
X133213640Y-102150000D01*
X133361294Y-102051340D01*
X133571340Y-101841294D01*
X133736373Y-101594306D01*
X133850049Y-101319868D01*
X133908000Y-101028525D01*
X133908000Y-100731475D01*
X133850049Y-100440132D01*
X133843782Y-100425000D01*
X143913816Y-100425000D01*
X143926520Y-100553991D01*
X143964146Y-100678024D01*
X144025246Y-100792334D01*
X144107472Y-100892528D01*
X144207666Y-100974754D01*
X144321976Y-101035854D01*
X144446009Y-101073480D01*
X144575000Y-101086184D01*
X144731500Y-101083000D01*
X144896000Y-100918500D01*
X144896000Y-100104000D01*
X145104000Y-100104000D01*
X145104000Y-100918500D01*
X145268500Y-101083000D01*
X145425000Y-101086184D01*
X145553991Y-101073480D01*
X145678024Y-101035854D01*
X145792334Y-100974754D01*
X145892528Y-100892528D01*
X145974754Y-100792334D01*
X146035854Y-100678024D01*
X146073480Y-100553991D01*
X146086184Y-100425000D01*
X148913816Y-100425000D01*
X148926520Y-100553991D01*
X148964146Y-100678024D01*
X149025246Y-100792334D01*
X149107472Y-100892528D01*
X149207666Y-100974754D01*
X149321976Y-101035854D01*
X149446009Y-101073480D01*
X149575000Y-101086184D01*
X149731500Y-101083000D01*
X149896000Y-100918500D01*
X149896000Y-100104000D01*
X150104000Y-100104000D01*
X150104000Y-100918500D01*
X150268500Y-101083000D01*
X150425000Y-101086184D01*
X150553991Y-101073480D01*
X150678024Y-101035854D01*
X150792334Y-100974754D01*
X150892528Y-100892528D01*
X150927429Y-100850000D01*
X163488816Y-100850000D01*
X163501520Y-100978991D01*
X163539146Y-101103024D01*
X163600246Y-101217334D01*
X163682472Y-101317528D01*
X163782666Y-101399754D01*
X163896976Y-101460854D01*
X164021009Y-101498480D01*
X164150000Y-101511184D01*
X164731500Y-101508000D01*
X164896000Y-101343500D01*
X164896000Y-100104000D01*
X165104000Y-100104000D01*
X165104000Y-101343500D01*
X165268500Y-101508000D01*
X165850000Y-101511184D01*
X165978991Y-101498480D01*
X166103024Y-101460854D01*
X166217334Y-101399754D01*
X166317528Y-101317528D01*
X166399754Y-101217334D01*
X166460854Y-101103024D01*
X166498480Y-100978991D01*
X166511184Y-100850000D01*
X166508000Y-100268500D01*
X166343500Y-100104000D01*
X165104000Y-100104000D01*
X164896000Y-100104000D01*
X163656500Y-100104000D01*
X163492000Y-100268500D01*
X163488816Y-100850000D01*
X150927429Y-100850000D01*
X150974754Y-100792334D01*
X151035854Y-100678024D01*
X151073480Y-100553991D01*
X151086184Y-100425000D01*
X151083000Y-100268500D01*
X150918500Y-100104000D01*
X150104000Y-100104000D01*
X149896000Y-100104000D01*
X149081500Y-100104000D01*
X148917000Y-100268500D01*
X148913816Y-100425000D01*
X146086184Y-100425000D01*
X146083000Y-100268500D01*
X145918500Y-100104000D01*
X145104000Y-100104000D01*
X144896000Y-100104000D01*
X144081500Y-100104000D01*
X143917000Y-100268500D01*
X143913816Y-100425000D01*
X133843782Y-100425000D01*
X133736373Y-100165694D01*
X133571340Y-99918706D01*
X133361294Y-99708660D01*
X133213640Y-99610000D01*
X133266020Y-99575000D01*
X143913816Y-99575000D01*
X143917000Y-99731500D01*
X144081500Y-99896000D01*
X144896000Y-99896000D01*
X144896000Y-99081500D01*
X145104000Y-99081500D01*
X145104000Y-99896000D01*
X145918500Y-99896000D01*
X146083000Y-99731500D01*
X146086184Y-99575000D01*
X148913816Y-99575000D01*
X148917000Y-99731500D01*
X149081500Y-99896000D01*
X149896000Y-99896000D01*
X149896000Y-99081500D01*
X150104000Y-99081500D01*
X150104000Y-99896000D01*
X150918500Y-99896000D01*
X151083000Y-99731500D01*
X151086184Y-99575000D01*
X151073480Y-99446009D01*
X151035854Y-99321976D01*
X150974754Y-99207666D01*
X150927430Y-99150000D01*
X163488816Y-99150000D01*
X163492000Y-99731500D01*
X163656500Y-99896000D01*
X164896000Y-99896000D01*
X164896000Y-98656500D01*
X165104000Y-98656500D01*
X165104000Y-99896000D01*
X166343500Y-99896000D01*
X166508000Y-99731500D01*
X166511184Y-99150000D01*
X166498480Y-99021009D01*
X166460854Y-98896976D01*
X166399754Y-98782666D01*
X166317528Y-98682472D01*
X166217334Y-98600246D01*
X166103024Y-98539146D01*
X165978991Y-98501520D01*
X165850000Y-98488816D01*
X165268500Y-98492000D01*
X165104000Y-98656500D01*
X164896000Y-98656500D01*
X164731500Y-98492000D01*
X164150000Y-98488816D01*
X164021009Y-98501520D01*
X163896976Y-98539146D01*
X163782666Y-98600246D01*
X163682472Y-98682472D01*
X163600246Y-98782666D01*
X163539146Y-98896976D01*
X163501520Y-99021009D01*
X163488816Y-99150000D01*
X150927430Y-99150000D01*
X150892528Y-99107472D01*
X150792334Y-99025246D01*
X150678024Y-98964146D01*
X150553991Y-98926520D01*
X150425000Y-98913816D01*
X150268500Y-98917000D01*
X150104000Y-99081500D01*
X149896000Y-99081500D01*
X149731500Y-98917000D01*
X149575000Y-98913816D01*
X149446009Y-98926520D01*
X149321976Y-98964146D01*
X149207666Y-99025246D01*
X149107472Y-99107472D01*
X149025246Y-99207666D01*
X148964146Y-99321976D01*
X148926520Y-99446009D01*
X148913816Y-99575000D01*
X146086184Y-99575000D01*
X146073480Y-99446009D01*
X146035854Y-99321976D01*
X145974754Y-99207666D01*
X145892528Y-99107472D01*
X145792334Y-99025246D01*
X145678024Y-98964146D01*
X145553991Y-98926520D01*
X145425000Y-98913816D01*
X145268500Y-98917000D01*
X145104000Y-99081500D01*
X144896000Y-99081500D01*
X144731500Y-98917000D01*
X144575000Y-98913816D01*
X144446009Y-98926520D01*
X144321976Y-98964146D01*
X144207666Y-99025246D01*
X144107472Y-99107472D01*
X144025246Y-99207666D01*
X143964146Y-99321976D01*
X143926520Y-99446009D01*
X143913816Y-99575000D01*
X133266020Y-99575000D01*
X133361294Y-99511340D01*
X133571340Y-99301294D01*
X133736373Y-99054306D01*
X133850049Y-98779868D01*
X133908000Y-98488525D01*
X133908000Y-98191475D01*
X133850049Y-97900132D01*
X133736373Y-97625694D01*
X133571340Y-97378706D01*
X133361294Y-97168660D01*
X133213640Y-97070000D01*
X133361294Y-96971340D01*
X133571340Y-96761294D01*
X133736373Y-96514306D01*
X133850049Y-96239868D01*
X133908000Y-95948525D01*
X133908000Y-95651475D01*
X133850049Y-95360132D01*
X133736373Y-95085694D01*
X133609487Y-94895796D01*
X138942000Y-94895796D01*
X138942000Y-95104204D01*
X138982659Y-95308607D01*
X139062413Y-95501151D01*
X139178198Y-95674436D01*
X139325564Y-95821802D01*
X139498849Y-95937587D01*
X139691393Y-96017341D01*
X139895796Y-96058000D01*
X140104204Y-96058000D01*
X140308607Y-96017341D01*
X140501151Y-95937587D01*
X140674436Y-95821802D01*
X140821802Y-95674436D01*
X140937587Y-95501151D01*
X141017341Y-95308607D01*
X141058000Y-95104204D01*
X141058000Y-94895796D01*
X153942000Y-94895796D01*
X153942000Y-95104204D01*
X153982659Y-95308607D01*
X154062413Y-95501151D01*
X154178198Y-95674436D01*
X154325564Y-95821802D01*
X154498849Y-95937587D01*
X154691393Y-96017341D01*
X154895796Y-96058000D01*
X155104204Y-96058000D01*
X155308607Y-96017341D01*
X155501151Y-95937587D01*
X155674436Y-95821802D01*
X155821802Y-95674436D01*
X155937587Y-95501151D01*
X156017341Y-95308607D01*
X156058000Y-95104204D01*
X156058000Y-94895796D01*
X163942000Y-94895796D01*
X163942000Y-95104204D01*
X163982659Y-95308607D01*
X164062413Y-95501151D01*
X164178198Y-95674436D01*
X164325564Y-95821802D01*
X164498849Y-95937587D01*
X164691393Y-96017341D01*
X164895796Y-96058000D01*
X165104204Y-96058000D01*
X165308607Y-96017341D01*
X165501151Y-95937587D01*
X165674436Y-95821802D01*
X165821802Y-95674436D01*
X165937587Y-95501151D01*
X166017341Y-95308607D01*
X166058000Y-95104204D01*
X166058000Y-94895796D01*
X166017341Y-94691393D01*
X165937587Y-94498849D01*
X165821802Y-94325564D01*
X165674436Y-94178198D01*
X165501151Y-94062413D01*
X165308607Y-93982659D01*
X165104204Y-93942000D01*
X164895796Y-93942000D01*
X164691393Y-93982659D01*
X164498849Y-94062413D01*
X164325564Y-94178198D01*
X164178198Y-94325564D01*
X164062413Y-94498849D01*
X163982659Y-94691393D01*
X163942000Y-94895796D01*
X156058000Y-94895796D01*
X156017341Y-94691393D01*
X155937587Y-94498849D01*
X155821802Y-94325564D01*
X155674436Y-94178198D01*
X155501151Y-94062413D01*
X155308607Y-93982659D01*
X155104204Y-93942000D01*
X154895796Y-93942000D01*
X154691393Y-93982659D01*
X154498849Y-94062413D01*
X154325564Y-94178198D01*
X154178198Y-94325564D01*
X154062413Y-94498849D01*
X153982659Y-94691393D01*
X153942000Y-94895796D01*
X141058000Y-94895796D01*
X141017341Y-94691393D01*
X140937587Y-94498849D01*
X140821802Y-94325564D01*
X140674436Y-94178198D01*
X140501151Y-94062413D01*
X140308607Y-93982659D01*
X140104204Y-93942000D01*
X139895796Y-93942000D01*
X139691393Y-93982659D01*
X139498849Y-94062413D01*
X139325564Y-94178198D01*
X139178198Y-94325564D01*
X139062413Y-94498849D01*
X138982659Y-94691393D01*
X138942000Y-94895796D01*
X133609487Y-94895796D01*
X133571340Y-94838706D01*
X133361294Y-94628660D01*
X133213640Y-94530000D01*
X133361294Y-94431340D01*
X133571340Y-94221294D01*
X133736373Y-93974306D01*
X133850049Y-93699868D01*
X133908000Y-93408525D01*
X133908000Y-93111475D01*
X133850049Y-92820132D01*
X133736373Y-92545694D01*
X133571340Y-92298706D01*
X133361294Y-92088660D01*
X133213640Y-91990000D01*
X133361294Y-91891340D01*
X133571340Y-91681294D01*
X133736373Y-91434306D01*
X133850049Y-91159868D01*
X133908000Y-90868525D01*
X133908000Y-90571475D01*
X133850049Y-90280132D01*
X133736373Y-90005694D01*
X133571340Y-89758706D01*
X133361294Y-89548660D01*
X133213640Y-89450000D01*
X133361294Y-89351340D01*
X133571340Y-89141294D01*
X133736373Y-88894306D01*
X133850049Y-88619868D01*
X133908000Y-88328525D01*
X133908000Y-88031475D01*
X133850049Y-87740132D01*
X133736373Y-87465694D01*
X133571340Y-87218706D01*
X133361294Y-87008660D01*
X133213640Y-86910000D01*
X133361294Y-86811340D01*
X133571340Y-86601294D01*
X133736373Y-86354306D01*
X133850049Y-86079868D01*
X133908000Y-85788525D01*
X133908000Y-85491475D01*
X133850049Y-85200132D01*
X133736373Y-84925694D01*
X133716396Y-84895796D01*
X138942000Y-84895796D01*
X138942000Y-85104204D01*
X138982659Y-85308607D01*
X139062413Y-85501151D01*
X139178198Y-85674436D01*
X139325564Y-85821802D01*
X139498849Y-85937587D01*
X139691393Y-86017341D01*
X139895796Y-86058000D01*
X140104204Y-86058000D01*
X140308607Y-86017341D01*
X140501151Y-85937587D01*
X140674436Y-85821802D01*
X140821802Y-85674436D01*
X140937587Y-85501151D01*
X141017341Y-85308607D01*
X141058000Y-85104204D01*
X141058000Y-84895796D01*
X153942000Y-84895796D01*
X153942000Y-85104204D01*
X153982659Y-85308607D01*
X154062413Y-85501151D01*
X154178198Y-85674436D01*
X154325564Y-85821802D01*
X154498849Y-85937587D01*
X154691393Y-86017341D01*
X154895796Y-86058000D01*
X155104204Y-86058000D01*
X155308607Y-86017341D01*
X155501151Y-85937587D01*
X155674436Y-85821802D01*
X155821802Y-85674436D01*
X155937587Y-85501151D01*
X156017341Y-85308607D01*
X156058000Y-85104204D01*
X156058000Y-84895796D01*
X156017341Y-84691393D01*
X155937587Y-84498849D01*
X155821802Y-84325564D01*
X155674436Y-84178198D01*
X155501151Y-84062413D01*
X155308607Y-83982659D01*
X155104204Y-83942000D01*
X154895796Y-83942000D01*
X154691393Y-83982659D01*
X154498849Y-84062413D01*
X154325564Y-84178198D01*
X154178198Y-84325564D01*
X154062413Y-84498849D01*
X153982659Y-84691393D01*
X153942000Y-84895796D01*
X141058000Y-84895796D01*
X141017341Y-84691393D01*
X140937587Y-84498849D01*
X140821802Y-84325564D01*
X140674436Y-84178198D01*
X140501151Y-84062413D01*
X140308607Y-83982659D01*
X140104204Y-83942000D01*
X139895796Y-83942000D01*
X139691393Y-83982659D01*
X139498849Y-84062413D01*
X139325564Y-84178198D01*
X139178198Y-84325564D01*
X139062413Y-84498849D01*
X138982659Y-84691393D01*
X138942000Y-84895796D01*
X133716396Y-84895796D01*
X133571340Y-84678706D01*
X133361294Y-84468660D01*
X133213640Y-84370000D01*
X133361294Y-84271340D01*
X133571340Y-84061294D01*
X133736373Y-83814306D01*
X133850049Y-83539868D01*
X133908000Y-83248525D01*
X133908000Y-82951475D01*
X133850049Y-82660132D01*
X133736373Y-82385694D01*
X133571340Y-82138706D01*
X133361294Y-81928660D01*
X133213640Y-81830000D01*
X133361294Y-81731340D01*
X133571340Y-81521294D01*
X133736373Y-81274306D01*
X133850049Y-80999868D01*
X133908000Y-80708525D01*
X133908000Y-80411475D01*
X133850049Y-80120132D01*
X133757126Y-79895796D01*
X158942000Y-79895796D01*
X158942000Y-80104204D01*
X158982659Y-80308607D01*
X159062413Y-80501151D01*
X159178198Y-80674436D01*
X159325564Y-80821802D01*
X159498849Y-80937587D01*
X159691393Y-81017341D01*
X159895796Y-81058000D01*
X160104204Y-81058000D01*
X160308607Y-81017341D01*
X160501151Y-80937587D01*
X160674436Y-80821802D01*
X160821802Y-80674436D01*
X160937587Y-80501151D01*
X161017341Y-80308607D01*
X161058000Y-80104204D01*
X161058000Y-79895796D01*
X161017341Y-79691393D01*
X160937587Y-79498849D01*
X160821802Y-79325564D01*
X160674436Y-79178198D01*
X160501151Y-79062413D01*
X160308607Y-78982659D01*
X160104204Y-78942000D01*
X159895796Y-78942000D01*
X159691393Y-78982659D01*
X159498849Y-79062413D01*
X159325564Y-79178198D01*
X159178198Y-79325564D01*
X159062413Y-79498849D01*
X158982659Y-79691393D01*
X158942000Y-79895796D01*
X133757126Y-79895796D01*
X133736373Y-79845694D01*
X133571340Y-79598706D01*
X133361294Y-79388660D01*
X133213640Y-79290000D01*
X133361294Y-79191340D01*
X133571340Y-78981294D01*
X133736373Y-78734306D01*
X133850049Y-78459868D01*
X133908000Y-78168525D01*
X133908000Y-77871475D01*
X133850049Y-77580132D01*
X133736373Y-77305694D01*
X133571340Y-77058706D01*
X133361294Y-76848660D01*
X133213640Y-76750000D01*
X133361294Y-76651340D01*
X133571340Y-76441294D01*
X133736373Y-76194306D01*
X133850049Y-75919868D01*
X133908000Y-75628525D01*
X133908000Y-75331475D01*
X133850049Y-75040132D01*
X133790264Y-74895796D01*
X138942000Y-74895796D01*
X138942000Y-75104204D01*
X138982659Y-75308607D01*
X139062413Y-75501151D01*
X139178198Y-75674436D01*
X139325564Y-75821802D01*
X139498849Y-75937587D01*
X139691393Y-76017341D01*
X139895796Y-76058000D01*
X140104204Y-76058000D01*
X140308607Y-76017341D01*
X140501151Y-75937587D01*
X140674436Y-75821802D01*
X140821802Y-75674436D01*
X140937587Y-75501151D01*
X141017341Y-75308607D01*
X141058000Y-75104204D01*
X141058000Y-74895796D01*
X148942000Y-74895796D01*
X148942000Y-75104204D01*
X148982659Y-75308607D01*
X149062413Y-75501151D01*
X149178198Y-75674436D01*
X149325564Y-75821802D01*
X149498849Y-75937587D01*
X149691393Y-76017341D01*
X149895796Y-76058000D01*
X150104204Y-76058000D01*
X150308607Y-76017341D01*
X150501151Y-75937587D01*
X150674436Y-75821802D01*
X150821802Y-75674436D01*
X150937587Y-75501151D01*
X151017341Y-75308607D01*
X151058000Y-75104204D01*
X151058000Y-74895796D01*
X153942000Y-74895796D01*
X153942000Y-75104204D01*
X153982659Y-75308607D01*
X154062413Y-75501151D01*
X154178198Y-75674436D01*
X154325564Y-75821802D01*
X154498849Y-75937587D01*
X154691393Y-76017341D01*
X154895796Y-76058000D01*
X155104204Y-76058000D01*
X155308607Y-76017341D01*
X155501151Y-75937587D01*
X155674436Y-75821802D01*
X155821802Y-75674436D01*
X155937587Y-75501151D01*
X156017341Y-75308607D01*
X156058000Y-75104204D01*
X156058000Y-74895796D01*
X156017341Y-74691393D01*
X155937587Y-74498849D01*
X155821802Y-74325564D01*
X155674436Y-74178198D01*
X155501151Y-74062413D01*
X155308607Y-73982659D01*
X155104204Y-73942000D01*
X154895796Y-73942000D01*
X154691393Y-73982659D01*
X154498849Y-74062413D01*
X154325564Y-74178198D01*
X154178198Y-74325564D01*
X154062413Y-74498849D01*
X153982659Y-74691393D01*
X153942000Y-74895796D01*
X151058000Y-74895796D01*
X151017341Y-74691393D01*
X150937587Y-74498849D01*
X150821802Y-74325564D01*
X150674436Y-74178198D01*
X150501151Y-74062413D01*
X150308607Y-73982659D01*
X150104204Y-73942000D01*
X149895796Y-73942000D01*
X149691393Y-73982659D01*
X149498849Y-74062413D01*
X149325564Y-74178198D01*
X149178198Y-74325564D01*
X149062413Y-74498849D01*
X148982659Y-74691393D01*
X148942000Y-74895796D01*
X141058000Y-74895796D01*
X141017341Y-74691393D01*
X140937587Y-74498849D01*
X140821802Y-74325564D01*
X140674436Y-74178198D01*
X140501151Y-74062413D01*
X140308607Y-73982659D01*
X140104204Y-73942000D01*
X139895796Y-73942000D01*
X139691393Y-73982659D01*
X139498849Y-74062413D01*
X139325564Y-74178198D01*
X139178198Y-74325564D01*
X139062413Y-74498849D01*
X138982659Y-74691393D01*
X138942000Y-74895796D01*
X133790264Y-74895796D01*
X133736373Y-74765694D01*
X133571340Y-74518706D01*
X133361294Y-74308660D01*
X133213640Y-74210000D01*
X133361294Y-74111340D01*
X133571340Y-73901294D01*
X133736373Y-73654306D01*
X133850049Y-73379868D01*
X133908000Y-73088525D01*
X133908000Y-72791475D01*
X133850049Y-72500132D01*
X133736373Y-72225694D01*
X133571340Y-71978706D01*
X133465017Y-71872383D01*
X133503024Y-71860853D01*
X133617334Y-71799754D01*
X133717527Y-71717527D01*
X133799754Y-71617334D01*
X133860853Y-71503024D01*
X133898479Y-71378990D01*
X133911183Y-71250000D01*
X133911183Y-70425000D01*
X153913816Y-70425000D01*
X153926520Y-70553991D01*
X153964146Y-70678024D01*
X154025246Y-70792334D01*
X154107472Y-70892528D01*
X154207666Y-70974754D01*
X154321976Y-71035854D01*
X154446009Y-71073480D01*
X154575000Y-71086184D01*
X154731500Y-71083000D01*
X154896000Y-70918500D01*
X154896000Y-70271356D01*
X154951541Y-70271356D01*
X155024626Y-70470686D01*
X155104000Y-70600795D01*
X155104000Y-70918500D01*
X155268500Y-71083000D01*
X155425000Y-71086184D01*
X155553991Y-71073480D01*
X155678024Y-71035854D01*
X155681310Y-71034098D01*
X155728645Y-71048454D01*
X155896000Y-70912593D01*
X155896000Y-70888297D01*
X155974754Y-70792334D01*
X156035854Y-70678024D01*
X156073480Y-70553991D01*
X156073753Y-70551215D01*
X156104000Y-70600795D01*
X156104000Y-70912593D01*
X156271355Y-71048454D01*
X156356868Y-71022519D01*
X156500000Y-70956187D01*
X156643132Y-71022519D01*
X156728645Y-71048454D01*
X156896000Y-70912593D01*
X156896000Y-70600795D01*
X156975374Y-70470686D01*
X157048459Y-70271356D01*
X156913500Y-70104000D01*
X157104000Y-70104000D01*
X157104000Y-70912593D01*
X157271355Y-71048454D01*
X157356868Y-71022519D01*
X157549494Y-70933250D01*
X157721004Y-70808117D01*
X157864806Y-70651928D01*
X157975374Y-70470686D01*
X158048459Y-70271356D01*
X157913500Y-70104000D01*
X157104000Y-70104000D01*
X156913500Y-70104000D01*
X156086500Y-70104000D01*
X156011502Y-70197002D01*
X155918500Y-70104000D01*
X155086500Y-70104000D01*
X154951541Y-70271356D01*
X154896000Y-70271356D01*
X154896000Y-70104000D01*
X154081500Y-70104000D01*
X153917000Y-70268500D01*
X153913816Y-70425000D01*
X133911183Y-70425000D01*
X133911183Y-69575000D01*
X153913816Y-69575000D01*
X153917000Y-69731500D01*
X154081500Y-69896000D01*
X154896000Y-69896000D01*
X154896000Y-69728644D01*
X154951541Y-69728644D01*
X155086500Y-69896000D01*
X155918500Y-69896000D01*
X156011502Y-69802998D01*
X156086500Y-69896000D01*
X156913500Y-69896000D01*
X157048459Y-69728644D01*
X156975374Y-69529314D01*
X156896000Y-69399205D01*
X156896000Y-69087407D01*
X157104000Y-69087407D01*
X157104000Y-69896000D01*
X157913500Y-69896000D01*
X157913664Y-69895796D01*
X163942000Y-69895796D01*
X163942000Y-70104204D01*
X163982659Y-70308607D01*
X164062413Y-70501151D01*
X164178198Y-70674436D01*
X164325564Y-70821802D01*
X164498849Y-70937587D01*
X164691393Y-71017341D01*
X164895796Y-71058000D01*
X165104204Y-71058000D01*
X165308607Y-71017341D01*
X165501151Y-70937587D01*
X165674436Y-70821802D01*
X165821802Y-70674436D01*
X165937587Y-70501151D01*
X166017341Y-70308607D01*
X166058000Y-70104204D01*
X166058000Y-69895796D01*
X166017341Y-69691393D01*
X165937587Y-69498849D01*
X165821802Y-69325564D01*
X165674436Y-69178198D01*
X165501151Y-69062413D01*
X165308607Y-68982659D01*
X165104204Y-68942000D01*
X164895796Y-68942000D01*
X164691393Y-68982659D01*
X164498849Y-69062413D01*
X164325564Y-69178198D01*
X164178198Y-69325564D01*
X164062413Y-69498849D01*
X163982659Y-69691393D01*
X163942000Y-69895796D01*
X157913664Y-69895796D01*
X158048459Y-69728644D01*
X157975374Y-69529314D01*
X157864806Y-69348072D01*
X157721004Y-69191883D01*
X157549494Y-69066750D01*
X157356868Y-68977481D01*
X157271355Y-68951546D01*
X157104000Y-69087407D01*
X156896000Y-69087407D01*
X156728645Y-68951546D01*
X156643132Y-68977481D01*
X156500000Y-69043813D01*
X156356868Y-68977481D01*
X156271355Y-68951546D01*
X156104000Y-69087407D01*
X156104000Y-69399205D01*
X156073753Y-69448785D01*
X156073480Y-69446009D01*
X156035854Y-69321976D01*
X155974754Y-69207666D01*
X155896000Y-69111703D01*
X155896000Y-69087407D01*
X155728645Y-68951546D01*
X155681310Y-68965902D01*
X155678024Y-68964146D01*
X155553991Y-68926520D01*
X155425000Y-68913816D01*
X155268500Y-68917000D01*
X155104000Y-69081500D01*
X155104000Y-69399205D01*
X155024626Y-69529314D01*
X154951541Y-69728644D01*
X154896000Y-69728644D01*
X154896000Y-69081500D01*
X154731500Y-68917000D01*
X154575000Y-68913816D01*
X154446009Y-68926520D01*
X154321976Y-68964146D01*
X154207666Y-69025246D01*
X154107472Y-69107472D01*
X154025246Y-69207666D01*
X153964146Y-69321976D01*
X153926520Y-69446009D01*
X153913816Y-69575000D01*
X133911183Y-69575000D01*
X133911183Y-69550000D01*
X133898479Y-69421010D01*
X133860853Y-69296976D01*
X133799754Y-69182666D01*
X133717527Y-69082473D01*
X133617334Y-69000246D01*
X133503024Y-68939147D01*
X133378990Y-68901521D01*
X133250000Y-68888817D01*
X131550000Y-68888817D01*
X131421010Y-68901521D01*
X131296976Y-68939147D01*
X131182666Y-69000246D01*
X131082473Y-69082473D01*
X131000246Y-69182666D01*
X130939147Y-69296976D01*
X130901521Y-69421010D01*
X130888817Y-69550000D01*
X130888817Y-69731948D01*
X130862884Y-69745810D01*
X130743657Y-69843657D01*
X130719140Y-69873531D01*
X115150000Y-85442672D01*
X115150000Y-81048890D01*
X115308607Y-81017341D01*
X115501151Y-80937587D01*
X115674436Y-80821802D01*
X115821802Y-80674436D01*
X115937587Y-80501151D01*
X116017341Y-80308607D01*
X116058000Y-80104204D01*
X116058000Y-79895796D01*
X116017341Y-79691393D01*
X115937587Y-79498849D01*
X115821802Y-79325564D01*
X115674436Y-79178198D01*
X115501151Y-79062413D01*
X115308607Y-78982659D01*
X115150000Y-78951110D01*
X115150000Y-71048890D01*
X115308607Y-71017341D01*
X115501151Y-70937587D01*
X115674436Y-70821802D01*
X115821802Y-70674436D01*
X115937587Y-70501151D01*
X116017341Y-70308607D01*
X116058000Y-70104204D01*
X116058000Y-69895796D01*
X118942000Y-69895796D01*
X118942000Y-70104204D01*
X118982659Y-70308607D01*
X119062413Y-70501151D01*
X119178198Y-70674436D01*
X119325564Y-70821802D01*
X119498849Y-70937587D01*
X119691393Y-71017341D01*
X119895796Y-71058000D01*
X120104204Y-71058000D01*
X120308607Y-71017341D01*
X120501151Y-70937587D01*
X120674436Y-70821802D01*
X120821802Y-70674436D01*
X120937587Y-70501151D01*
X121017341Y-70308607D01*
X121058000Y-70104204D01*
X121058000Y-69895796D01*
X121017341Y-69691393D01*
X120937587Y-69498849D01*
X120821802Y-69325564D01*
X120674436Y-69178198D01*
X120501151Y-69062413D01*
X120308607Y-68982659D01*
X120104204Y-68942000D01*
X119895796Y-68942000D01*
X119691393Y-68982659D01*
X119498849Y-69062413D01*
X119325564Y-69178198D01*
X119178198Y-69325564D01*
X119062413Y-69498849D01*
X118982659Y-69691393D01*
X118942000Y-69895796D01*
X116058000Y-69895796D01*
X116017341Y-69691393D01*
X115937587Y-69498849D01*
X115821802Y-69325564D01*
X115674436Y-69178198D01*
X115501151Y-69062413D01*
X115308607Y-68982659D01*
X115150000Y-68951110D01*
X115150000Y-65150000D01*
X138951110Y-65150000D01*
X138982659Y-65308607D01*
G37*
%TD.AperFunction*%
%TD*%
M02*
