M48
; DRILL file {KiCad (5.1.10)-1} date 07/01/21 21:13:51
; FORMAT={-:-/ absolute / inch / decimal}
; #@! TF.CreationDate,2021-07-01T21:13:51+10:00
; #@! TF.GenerationSoftware,Kicad,Pcbnew,(5.1.10)-1
; #@! TF.FileFunction,Plated,1,2,PTH
FMAT,2
INCH
T1C0.0157
T2C0.0197
T3C0.0394
%
G90
G05
T1
X4.5276Y-2.7559
X4.5276Y-3.1496
X4.5276Y-4.5276
X4.7244Y-2.7559
X4.7244Y-4.9213
X5.5118Y-2.5591
X5.5118Y-2.9528
X5.5118Y-3.3465
X5.5118Y-3.7402
X5.5118Y-4.1339
X5.5118Y-4.5276
X5.5118Y-4.9213
X5.9055Y-2.9528
X5.9055Y-4.5276
X6.1024Y-2.5591
X6.1024Y-2.9528
X6.1024Y-3.3465
X6.1024Y-3.7402
X6.1024Y-4.1339
X6.2992Y-3.1496
X6.4961Y-2.7559
X6.4961Y-3.7402
X6.4961Y-4.3307
X6.4961Y-4.9213
T2
X5.7087Y-3.937
X5.9055Y-3.937
X6.1024Y-2.7559
X6.1024Y-4.9213
X6.1417Y-2.7559
X6.1417Y-4.9213
X6.1811Y-2.7559
X6.1811Y-4.9213
T3
X5.2126Y-2.7717
X5.2126Y-2.8717
X5.2126Y-2.9717
X5.2126Y-3.0717
X5.2126Y-3.1717
X5.2126Y-3.2717
X5.2126Y-3.3717
X5.2126Y-3.4717
X5.2126Y-3.5717
X5.2126Y-3.6717
X5.2126Y-3.7717
X5.2126Y-3.8717
X5.2126Y-3.9717
X5.2126Y-4.0717
X5.2126Y-4.1717
X5.2126Y-4.2717
X5.2126Y-4.3717
X5.2126Y-4.4717
X5.2126Y-4.5717
X5.2126Y-4.6717
X5.2126Y-4.7717
X5.2126Y-4.8717
X6.4961Y-3.937
T0
M30
