%TF.GenerationSoftware,KiCad,Pcbnew,(5.1.10)-1*%
%TF.CreationDate,2021-07-07T12:53:47+10:00*%
%TF.ProjectId,Converter,436f6e76-6572-4746-9572-2e6b69636164,rev?*%
%TF.SameCoordinates,Original*%
%TF.FileFunction,Copper,L1,Top*%
%TF.FilePolarity,Positive*%
%FSLAX46Y46*%
G04 Gerber Fmt 4.6, Leading zero omitted, Abs format (unit mm)*
G04 Created by KiCad (PCBNEW (5.1.10)-1) date 2021-07-07 12:53:47*
%MOMM*%
%LPD*%
G01*
G04 APERTURE LIST*
%TA.AperFunction,SMDPad,CuDef*%
%ADD10O,3.000000X0.800000*%
%TD*%
%TA.AperFunction,ConnectorPad*%
%ADD11O,3.000000X0.800000*%
%TD*%
%TA.AperFunction,SMDPad,CuDef*%
%ADD12R,3.000000X0.800000*%
%TD*%
%TA.AperFunction,ComponentPad*%
%ADD13R,0.850000X0.850000*%
%TD*%
%TA.AperFunction,ComponentPad*%
%ADD14O,0.850000X0.850000*%
%TD*%
%TA.AperFunction,ComponentPad*%
%ADD15O,1.700000X1.700000*%
%TD*%
%TA.AperFunction,ComponentPad*%
%ADD16R,1.700000X1.700000*%
%TD*%
%TA.AperFunction,ViaPad*%
%ADD17C,0.800000*%
%TD*%
%TA.AperFunction,Conductor*%
%ADD18C,0.250000*%
%TD*%
%TA.AperFunction,Conductor*%
%ADD19C,0.300000*%
%TD*%
%TA.AperFunction,Conductor*%
%ADD20C,0.100000*%
%TD*%
G04 APERTURE END LIST*
D10*
%TO.P,J1,22*%
%TO.N,Net-(J1-Pad22)*%
X111060000Y-109760000D03*
%TO.P,J1,21*%
%TO.N,Net-(J1-Pad21)*%
X111060000Y-108490000D03*
%TO.P,J1,20*%
%TO.N,Net-(J1-Pad20)*%
X111060000Y-107220000D03*
%TO.P,J1,19*%
%TO.N,Net-(J1-Pad19)*%
X111060000Y-105950000D03*
%TO.P,J1,18*%
%TO.N,Net-(J1-Pad18)*%
X111060000Y-104680000D03*
%TO.P,J1,17*%
%TO.N,Net-(J1-Pad17)*%
X111060000Y-103410000D03*
%TO.P,J1,16*%
%TO.N,Net-(J1-Pad16)*%
X111060000Y-102140000D03*
%TO.P,J1,15*%
%TO.N,Net-(J1-Pad15)*%
X111060000Y-100870000D03*
%TO.P,J1,14*%
%TO.N,Net-(J1-Pad14)*%
X111060000Y-99600000D03*
%TO.P,J1,13*%
%TO.N,Net-(J1-Pad13)*%
X111060000Y-98330000D03*
D11*
%TO.P,J1,12*%
%TO.N,Net-(J1-Pad12)*%
X111060000Y-97060000D03*
D10*
%TO.P,J1,11*%
%TO.N,Net-(J1-Pad11)*%
X111060000Y-95790000D03*
%TO.P,J1,10*%
%TO.N,Net-(J1-Pad10)*%
X111060000Y-94520000D03*
%TO.P,J1,9*%
%TO.N,Net-(J1-Pad9)*%
X111060000Y-93250000D03*
D11*
%TO.P,J1,8*%
%TO.N,Net-(J1-Pad8)*%
X111060000Y-91980000D03*
D10*
%TO.P,J1,7*%
%TO.N,Net-(J1-Pad7)*%
X111060000Y-90710000D03*
%TO.P,J1,6*%
%TO.N,Net-(J1-Pad6)*%
X111060000Y-89440000D03*
%TO.P,J1,5*%
%TO.N,Net-(J1-Pad5)*%
X111060000Y-88170000D03*
%TO.P,J1,4*%
%TO.N,Net-(J1-Pad4)*%
X111060000Y-86900000D03*
%TO.P,J1,3*%
%TO.N,Net-(J1-Pad3)*%
X111060000Y-85630000D03*
%TO.P,J1,2*%
%TO.N,Net-(J1-Pad2)*%
X111060000Y-84360000D03*
D12*
%TO.P,J1,1*%
%TO.N,Net-(J1-Pad1)*%
X111060000Y-83090000D03*
%TD*%
D13*
%TO.P,REF\u002A\u002A,1*%
%TO.N,GND*%
X145030000Y-119080000D03*
D14*
%TO.P,REF\u002A\u002A,2*%
X146030000Y-119080000D03*
%TO.P,REF\u002A\u002A,3*%
X147030000Y-119080000D03*
%TD*%
D13*
%TO.P,REF\u002A\u002A,1*%
%TO.N,GND*%
X143380000Y-80440000D03*
D14*
%TO.P,REF\u002A\u002A,2*%
X144380000Y-80440000D03*
%TO.P,REF\u002A\u002A,3*%
X145380000Y-80440000D03*
%TD*%
D13*
%TO.P,REF\u002A\u002A,1*%
%TO.N,GND*%
X150000000Y-100000000D03*
%TD*%
%TO.P,REF\u002A\u002A,1*%
%TO.N,GND*%
X145000000Y-100000000D03*
%TD*%
D15*
%TO.P,J2,22*%
%TO.N,Net-(J1-Pad22)*%
X132400000Y-123740000D03*
%TO.P,J2,21*%
%TO.N,Net-(J1-Pad21)*%
X132400000Y-121200000D03*
%TO.P,J2,20*%
%TO.N,Net-(J1-Pad20)*%
X132400000Y-118660000D03*
%TO.P,J2,19*%
%TO.N,Net-(J1-Pad19)*%
X132400000Y-116120000D03*
%TO.P,J2,18*%
%TO.N,Net-(J1-Pad18)*%
X132400000Y-113580000D03*
%TO.P,J2,17*%
%TO.N,Net-(J1-Pad17)*%
X132400000Y-111040000D03*
%TO.P,J2,16*%
%TO.N,Net-(J1-Pad16)*%
X132400000Y-108500000D03*
%TO.P,J2,15*%
%TO.N,Net-(J1-Pad15)*%
X132400000Y-105960000D03*
%TO.P,J2,14*%
%TO.N,Net-(J1-Pad14)*%
X132400000Y-103420000D03*
%TO.P,J2,13*%
%TO.N,Net-(J1-Pad13)*%
X132400000Y-100880000D03*
%TO.P,J2,12*%
%TO.N,Net-(J1-Pad12)*%
X132400000Y-98340000D03*
%TO.P,J2,11*%
%TO.N,Net-(J1-Pad11)*%
X132400000Y-95800000D03*
%TO.P,J2,10*%
%TO.N,Net-(J1-Pad10)*%
X132400000Y-93260000D03*
%TO.P,J2,9*%
%TO.N,Net-(J1-Pad9)*%
X132400000Y-90720000D03*
%TO.P,J2,8*%
%TO.N,Net-(J1-Pad8)*%
X132400000Y-88180000D03*
%TO.P,J2,7*%
%TO.N,Net-(J1-Pad7)*%
X132400000Y-85640000D03*
%TO.P,J2,6*%
%TO.N,Net-(J1-Pad6)*%
X132400000Y-83100000D03*
%TO.P,J2,5*%
%TO.N,Net-(J1-Pad5)*%
X132400000Y-80560000D03*
%TO.P,J2,4*%
%TO.N,Net-(J1-Pad4)*%
X132400000Y-78020000D03*
%TO.P,J2,3*%
%TO.N,Net-(J1-Pad3)*%
X132400000Y-75480000D03*
%TO.P,J2,2*%
%TO.N,Net-(J1-Pad2)*%
X132400000Y-72940000D03*
D16*
%TO.P,J2,1*%
%TO.N,Net-(J1-Pad1)*%
X132400000Y-70400000D03*
%TD*%
%TO.P,J3,1*%
%TO.N,GND*%
X142900000Y-90270000D03*
%TD*%
D17*
%TO.N,GND*%
X152020000Y-118230000D03*
X124900000Y-122700000D03*
X122300000Y-74400000D03*
X115000000Y-80000000D03*
X129100000Y-68300000D03*
X115200000Y-115000000D03*
X140000000Y-125000000D03*
X140000000Y-115000000D03*
X140000000Y-105000000D03*
X140000000Y-95000000D03*
X140000000Y-85000000D03*
X140000000Y-75000000D03*
X140000000Y-65000000D03*
X155000000Y-65000000D03*
X150770000Y-69270000D03*
X155000000Y-85000000D03*
X150750000Y-90750000D03*
X155000000Y-105000000D03*
X150000000Y-115000000D03*
X143110000Y-71310000D03*
X150670000Y-78570000D03*
X144820000Y-68920000D03*
X143520000Y-109920000D03*
X148460000Y-125800000D03*
%TD*%
D18*
%TO.N,Net-(J1-Pad1)*%
X119710000Y-83090000D02*
X132400000Y-70400000D01*
X111060000Y-83090000D02*
X119710000Y-83090000D01*
%TO.N,Net-(J1-Pad2)*%
X120980000Y-84360000D02*
X132400000Y-72940000D01*
X111060000Y-84360000D02*
X120980000Y-84360000D01*
%TO.N,Net-(J1-Pad3)*%
X122250000Y-85630000D02*
X132400000Y-75480000D01*
X111060000Y-85630000D02*
X122250000Y-85630000D01*
%TO.N,Net-(J1-Pad4)*%
X123520000Y-86900000D02*
X132400000Y-78020000D01*
X111060000Y-86900000D02*
X123520000Y-86900000D01*
%TO.N,Net-(J1-Pad5)*%
X124790000Y-88170000D02*
X132400000Y-80560000D01*
X111060000Y-88170000D02*
X124790000Y-88170000D01*
%TO.N,Net-(J1-Pad6)*%
X126060000Y-89440000D02*
X132400000Y-83100000D01*
X111060000Y-89440000D02*
X126060000Y-89440000D01*
%TO.N,Net-(J1-Pad7)*%
X127330000Y-90710000D02*
X132400000Y-85640000D01*
X111060000Y-90710000D02*
X127330000Y-90710000D01*
%TO.N,Net-(J1-Pad8)*%
X128600000Y-91980000D02*
X132400000Y-88180000D01*
X111060000Y-91980000D02*
X128600000Y-91980000D01*
%TO.N,Net-(J1-Pad9)*%
X129870000Y-93250000D02*
X132400000Y-90720000D01*
X111060000Y-93250000D02*
X129870000Y-93250000D01*
%TO.N,Net-(J1-Pad10)*%
X131140000Y-94520000D02*
X132400000Y-93260000D01*
X111060000Y-94520000D02*
X131140000Y-94520000D01*
%TO.N,Net-(J1-Pad11)*%
X111070000Y-95800000D02*
X111060000Y-95790000D01*
X132400000Y-95800000D02*
X111070000Y-95800000D01*
%TO.N,Net-(J1-Pad12)*%
X131120000Y-97060000D02*
X132400000Y-98340000D01*
X111060000Y-97060000D02*
X131120000Y-97060000D01*
%TO.N,Net-(J1-Pad13)*%
X132400000Y-100079002D02*
X132400000Y-100880000D01*
X130650998Y-98330000D02*
X132400000Y-100079002D01*
X111060000Y-98330000D02*
X130650998Y-98330000D01*
%TO.N,Net-(J1-Pad14)*%
X128580000Y-99600000D02*
X132400000Y-103420000D01*
X111060000Y-99600000D02*
X128580000Y-99600000D01*
%TO.N,Net-(J1-Pad15)*%
X127310000Y-100870000D02*
X132400000Y-105960000D01*
X111060000Y-100870000D02*
X127310000Y-100870000D01*
%TO.N,Net-(J1-Pad16)*%
X126040000Y-102140000D02*
X132400000Y-108500000D01*
X111060000Y-102140000D02*
X126040000Y-102140000D01*
%TO.N,Net-(J1-Pad17)*%
X132400000Y-110239002D02*
X132400000Y-111040000D01*
X125570998Y-103410000D02*
X132400000Y-110239002D01*
X111060000Y-103410000D02*
X125570998Y-103410000D01*
%TO.N,Net-(J1-Pad18)*%
X123500000Y-104680000D02*
X132400000Y-113580000D01*
X111060000Y-104680000D02*
X123500000Y-104680000D01*
%TO.N,Net-(J1-Pad19)*%
X122230000Y-105950000D02*
X132400000Y-116120000D01*
X111060000Y-105950000D02*
X122230000Y-105950000D01*
%TO.N,Net-(J1-Pad20)*%
X121760998Y-107220000D02*
X128820000Y-114279002D01*
X111060000Y-107220000D02*
X121760998Y-107220000D01*
X128820000Y-115080000D02*
X132400000Y-118660000D01*
X128820000Y-114279002D02*
X128820000Y-115080000D01*
%TO.N,Net-(J1-Pad21)*%
X119690000Y-108490000D02*
X132400000Y-121200000D01*
X111060000Y-108490000D02*
X119690000Y-108490000D01*
%TO.N,Net-(J1-Pad22)*%
X119220998Y-109760000D02*
X129470000Y-120009002D01*
X111060000Y-109760000D02*
X119220998Y-109760000D01*
X129470000Y-120810000D02*
X132400000Y-123740000D01*
X129470000Y-120009002D02*
X129470000Y-120810000D01*
%TO.N,GND*%
X150000000Y-100000000D02*
X145000000Y-100000000D01*
X145000000Y-100000000D02*
X145000000Y-115000000D01*
X155000000Y-110000000D02*
X145000000Y-100000000D01*
X155000000Y-65000000D02*
X155000000Y-70000000D01*
X140000000Y-65000000D02*
X140000000Y-75000000D01*
%TD*%
D19*
%TO.N,GND*%
X156287001Y-129850000D02*
X130707274Y-129850000D01*
X115150000Y-116525161D01*
X115150000Y-110543000D01*
X118896670Y-110543000D01*
X128687000Y-120333332D01*
X128687000Y-120771550D01*
X128683213Y-120810000D01*
X128687000Y-120848450D01*
X128687000Y-120848460D01*
X128698331Y-120963494D01*
X128743103Y-121111090D01*
X128743104Y-121111091D01*
X128815811Y-121247116D01*
X128913658Y-121366343D01*
X128943531Y-121390860D01*
X130933833Y-123381163D01*
X130892000Y-123591475D01*
X130892000Y-123888525D01*
X130949951Y-124179868D01*
X131063627Y-124454306D01*
X131228660Y-124701294D01*
X131438706Y-124911340D01*
X131685694Y-125076373D01*
X131960132Y-125190049D01*
X132251475Y-125248000D01*
X132548525Y-125248000D01*
X132839868Y-125190049D01*
X133114306Y-125076373D01*
X133361294Y-124911340D01*
X133571340Y-124701294D01*
X133736373Y-124454306D01*
X133850049Y-124179868D01*
X133908000Y-123888525D01*
X133908000Y-123591475D01*
X133850049Y-123300132D01*
X133736373Y-123025694D01*
X133571340Y-122778706D01*
X133361294Y-122568660D01*
X133213640Y-122470000D01*
X133361294Y-122371340D01*
X133571340Y-122161294D01*
X133736373Y-121914306D01*
X133850049Y-121639868D01*
X133908000Y-121348525D01*
X133908000Y-121051475D01*
X133850049Y-120760132D01*
X133736373Y-120485694D01*
X133571340Y-120238706D01*
X133361294Y-120028660D01*
X133213640Y-119930000D01*
X133361294Y-119831340D01*
X133571340Y-119621294D01*
X133649045Y-119505000D01*
X143943816Y-119505000D01*
X143956520Y-119633991D01*
X143994146Y-119758024D01*
X144055246Y-119872334D01*
X144137472Y-119972528D01*
X144237666Y-120054754D01*
X144351976Y-120115854D01*
X144476009Y-120153480D01*
X144605000Y-120166184D01*
X144761500Y-120163000D01*
X144926000Y-119998500D01*
X144926000Y-119351356D01*
X144981541Y-119351356D01*
X145054626Y-119550686D01*
X145134000Y-119680795D01*
X145134000Y-119998500D01*
X145298500Y-120163000D01*
X145455000Y-120166184D01*
X145583991Y-120153480D01*
X145708024Y-120115854D01*
X145711310Y-120114098D01*
X145758645Y-120128454D01*
X145926000Y-119992593D01*
X145926000Y-119968297D01*
X146004754Y-119872334D01*
X146065854Y-119758024D01*
X146103480Y-119633991D01*
X146103753Y-119631215D01*
X146134000Y-119680795D01*
X146134000Y-119992593D01*
X146301355Y-120128454D01*
X146386868Y-120102519D01*
X146530000Y-120036187D01*
X146673132Y-120102519D01*
X146758645Y-120128454D01*
X146926000Y-119992593D01*
X146926000Y-119680795D01*
X147005374Y-119550686D01*
X147078459Y-119351356D01*
X146943500Y-119184000D01*
X147134000Y-119184000D01*
X147134000Y-119992593D01*
X147301355Y-120128454D01*
X147386868Y-120102519D01*
X147579494Y-120013250D01*
X147751004Y-119888117D01*
X147894806Y-119731928D01*
X148005374Y-119550686D01*
X148078459Y-119351356D01*
X147943500Y-119184000D01*
X147134000Y-119184000D01*
X146943500Y-119184000D01*
X146116500Y-119184000D01*
X146041502Y-119277002D01*
X145948500Y-119184000D01*
X145116500Y-119184000D01*
X144981541Y-119351356D01*
X144926000Y-119351356D01*
X144926000Y-119184000D01*
X144111500Y-119184000D01*
X143947000Y-119348500D01*
X143943816Y-119505000D01*
X133649045Y-119505000D01*
X133736373Y-119374306D01*
X133850049Y-119099868D01*
X133908000Y-118808525D01*
X133908000Y-118655000D01*
X143943816Y-118655000D01*
X143947000Y-118811500D01*
X144111500Y-118976000D01*
X144926000Y-118976000D01*
X144926000Y-118808644D01*
X144981541Y-118808644D01*
X145116500Y-118976000D01*
X145948500Y-118976000D01*
X146041502Y-118882998D01*
X146116500Y-118976000D01*
X146943500Y-118976000D01*
X147078459Y-118808644D01*
X147005374Y-118609314D01*
X146926000Y-118479205D01*
X146926000Y-118167407D01*
X147134000Y-118167407D01*
X147134000Y-118976000D01*
X147943500Y-118976000D01*
X148078459Y-118808644D01*
X148005374Y-118609314D01*
X147894806Y-118428072D01*
X147751004Y-118271883D01*
X147579494Y-118146750D01*
X147386868Y-118057481D01*
X147301355Y-118031546D01*
X147134000Y-118167407D01*
X146926000Y-118167407D01*
X146758645Y-118031546D01*
X146673132Y-118057481D01*
X146530000Y-118123813D01*
X146386868Y-118057481D01*
X146301355Y-118031546D01*
X146134000Y-118167407D01*
X146134000Y-118479205D01*
X146103753Y-118528785D01*
X146103480Y-118526009D01*
X146065854Y-118401976D01*
X146004754Y-118287666D01*
X145926000Y-118191703D01*
X145926000Y-118167407D01*
X145758645Y-118031546D01*
X145711310Y-118045902D01*
X145708024Y-118044146D01*
X145583991Y-118006520D01*
X145455000Y-117993816D01*
X145298500Y-117997000D01*
X145134000Y-118161500D01*
X145134000Y-118479205D01*
X145054626Y-118609314D01*
X144981541Y-118808644D01*
X144926000Y-118808644D01*
X144926000Y-118161500D01*
X144761500Y-117997000D01*
X144605000Y-117993816D01*
X144476009Y-118006520D01*
X144351976Y-118044146D01*
X144237666Y-118105246D01*
X144137472Y-118187472D01*
X144055246Y-118287666D01*
X143994146Y-118401976D01*
X143956520Y-118526009D01*
X143943816Y-118655000D01*
X133908000Y-118655000D01*
X133908000Y-118511475D01*
X133850049Y-118220132D01*
X133736373Y-117945694D01*
X133571340Y-117698706D01*
X133361294Y-117488660D01*
X133213640Y-117390000D01*
X133361294Y-117291340D01*
X133571340Y-117081294D01*
X133736373Y-116834306D01*
X133850049Y-116559868D01*
X133908000Y-116268525D01*
X133908000Y-115971475D01*
X133850049Y-115680132D01*
X133736373Y-115405694D01*
X133571340Y-115158706D01*
X133361294Y-114948660D01*
X133213640Y-114850000D01*
X133361294Y-114751340D01*
X133571340Y-114541294D01*
X133736373Y-114294306D01*
X133850049Y-114019868D01*
X133908000Y-113728525D01*
X133908000Y-113431475D01*
X133850049Y-113140132D01*
X133736373Y-112865694D01*
X133571340Y-112618706D01*
X133361294Y-112408660D01*
X133213640Y-112310000D01*
X133361294Y-112211340D01*
X133571340Y-112001294D01*
X133736373Y-111754306D01*
X133850049Y-111479868D01*
X133908000Y-111188525D01*
X133908000Y-110891475D01*
X133850049Y-110600132D01*
X133736373Y-110325694D01*
X133571340Y-110078706D01*
X133361294Y-109868660D01*
X133213640Y-109770000D01*
X133361294Y-109671340D01*
X133571340Y-109461294D01*
X133736373Y-109214306D01*
X133850049Y-108939868D01*
X133908000Y-108648525D01*
X133908000Y-108351475D01*
X133850049Y-108060132D01*
X133736373Y-107785694D01*
X133571340Y-107538706D01*
X133361294Y-107328660D01*
X133213640Y-107230000D01*
X133361294Y-107131340D01*
X133571340Y-106921294D01*
X133736373Y-106674306D01*
X133850049Y-106399868D01*
X133908000Y-106108525D01*
X133908000Y-105811475D01*
X133850049Y-105520132D01*
X133736373Y-105245694D01*
X133571340Y-104998706D01*
X133361294Y-104788660D01*
X133213640Y-104690000D01*
X133361294Y-104591340D01*
X133571340Y-104381294D01*
X133736373Y-104134306D01*
X133850049Y-103859868D01*
X133908000Y-103568525D01*
X133908000Y-103271475D01*
X133850049Y-102980132D01*
X133736373Y-102705694D01*
X133571340Y-102458706D01*
X133361294Y-102248660D01*
X133213640Y-102150000D01*
X133361294Y-102051340D01*
X133571340Y-101841294D01*
X133736373Y-101594306D01*
X133850049Y-101319868D01*
X133908000Y-101028525D01*
X133908000Y-100731475D01*
X133850049Y-100440132D01*
X133843782Y-100425000D01*
X143913816Y-100425000D01*
X143926520Y-100553991D01*
X143964146Y-100678024D01*
X144025246Y-100792334D01*
X144107472Y-100892528D01*
X144207666Y-100974754D01*
X144321976Y-101035854D01*
X144446009Y-101073480D01*
X144575000Y-101086184D01*
X144731500Y-101083000D01*
X144896000Y-100918500D01*
X144896000Y-100104000D01*
X145104000Y-100104000D01*
X145104000Y-100918500D01*
X145268500Y-101083000D01*
X145425000Y-101086184D01*
X145553991Y-101073480D01*
X145678024Y-101035854D01*
X145792334Y-100974754D01*
X145892528Y-100892528D01*
X145974754Y-100792334D01*
X146035854Y-100678024D01*
X146073480Y-100553991D01*
X146086184Y-100425000D01*
X148913816Y-100425000D01*
X148926520Y-100553991D01*
X148964146Y-100678024D01*
X149025246Y-100792334D01*
X149107472Y-100892528D01*
X149207666Y-100974754D01*
X149321976Y-101035854D01*
X149446009Y-101073480D01*
X149575000Y-101086184D01*
X149731500Y-101083000D01*
X149896000Y-100918500D01*
X149896000Y-100104000D01*
X150104000Y-100104000D01*
X150104000Y-100918500D01*
X150268500Y-101083000D01*
X150425000Y-101086184D01*
X150553991Y-101073480D01*
X150678024Y-101035854D01*
X150792334Y-100974754D01*
X150892528Y-100892528D01*
X150974754Y-100792334D01*
X151035854Y-100678024D01*
X151073480Y-100553991D01*
X151086184Y-100425000D01*
X151083000Y-100268500D01*
X150918500Y-100104000D01*
X150104000Y-100104000D01*
X149896000Y-100104000D01*
X149081500Y-100104000D01*
X148917000Y-100268500D01*
X148913816Y-100425000D01*
X146086184Y-100425000D01*
X146083000Y-100268500D01*
X145918500Y-100104000D01*
X145104000Y-100104000D01*
X144896000Y-100104000D01*
X144081500Y-100104000D01*
X143917000Y-100268500D01*
X143913816Y-100425000D01*
X133843782Y-100425000D01*
X133736373Y-100165694D01*
X133571340Y-99918706D01*
X133361294Y-99708660D01*
X133213640Y-99610000D01*
X133266020Y-99575000D01*
X143913816Y-99575000D01*
X143917000Y-99731500D01*
X144081500Y-99896000D01*
X144896000Y-99896000D01*
X144896000Y-99081500D01*
X145104000Y-99081500D01*
X145104000Y-99896000D01*
X145918500Y-99896000D01*
X146083000Y-99731500D01*
X146086184Y-99575000D01*
X148913816Y-99575000D01*
X148917000Y-99731500D01*
X149081500Y-99896000D01*
X149896000Y-99896000D01*
X149896000Y-99081500D01*
X150104000Y-99081500D01*
X150104000Y-99896000D01*
X150918500Y-99896000D01*
X151083000Y-99731500D01*
X151086184Y-99575000D01*
X151073480Y-99446009D01*
X151035854Y-99321976D01*
X150974754Y-99207666D01*
X150892528Y-99107472D01*
X150792334Y-99025246D01*
X150678024Y-98964146D01*
X150553991Y-98926520D01*
X150425000Y-98913816D01*
X150268500Y-98917000D01*
X150104000Y-99081500D01*
X149896000Y-99081500D01*
X149731500Y-98917000D01*
X149575000Y-98913816D01*
X149446009Y-98926520D01*
X149321976Y-98964146D01*
X149207666Y-99025246D01*
X149107472Y-99107472D01*
X149025246Y-99207666D01*
X148964146Y-99321976D01*
X148926520Y-99446009D01*
X148913816Y-99575000D01*
X146086184Y-99575000D01*
X146073480Y-99446009D01*
X146035854Y-99321976D01*
X145974754Y-99207666D01*
X145892528Y-99107472D01*
X145792334Y-99025246D01*
X145678024Y-98964146D01*
X145553991Y-98926520D01*
X145425000Y-98913816D01*
X145268500Y-98917000D01*
X145104000Y-99081500D01*
X144896000Y-99081500D01*
X144731500Y-98917000D01*
X144575000Y-98913816D01*
X144446009Y-98926520D01*
X144321976Y-98964146D01*
X144207666Y-99025246D01*
X144107472Y-99107472D01*
X144025246Y-99207666D01*
X143964146Y-99321976D01*
X143926520Y-99446009D01*
X143913816Y-99575000D01*
X133266020Y-99575000D01*
X133361294Y-99511340D01*
X133571340Y-99301294D01*
X133736373Y-99054306D01*
X133850049Y-98779868D01*
X133908000Y-98488525D01*
X133908000Y-98191475D01*
X133850049Y-97900132D01*
X133736373Y-97625694D01*
X133571340Y-97378706D01*
X133361294Y-97168660D01*
X133213640Y-97070000D01*
X133361294Y-96971340D01*
X133571340Y-96761294D01*
X133736373Y-96514306D01*
X133850049Y-96239868D01*
X133908000Y-95948525D01*
X133908000Y-95651475D01*
X133850049Y-95360132D01*
X133736373Y-95085694D01*
X133571340Y-94838706D01*
X133361294Y-94628660D01*
X133213640Y-94530000D01*
X133361294Y-94431340D01*
X133571340Y-94221294D01*
X133736373Y-93974306D01*
X133850049Y-93699868D01*
X133908000Y-93408525D01*
X133908000Y-93111475D01*
X133850049Y-92820132D01*
X133736373Y-92545694D01*
X133571340Y-92298706D01*
X133361294Y-92088660D01*
X133213640Y-91990000D01*
X133361294Y-91891340D01*
X133571340Y-91681294D01*
X133736373Y-91434306D01*
X133850049Y-91159868D01*
X133857979Y-91120000D01*
X141388816Y-91120000D01*
X141401520Y-91248991D01*
X141439146Y-91373024D01*
X141500246Y-91487334D01*
X141582472Y-91587528D01*
X141682666Y-91669754D01*
X141796976Y-91730854D01*
X141921009Y-91768480D01*
X142050000Y-91781184D01*
X142631500Y-91778000D01*
X142796000Y-91613500D01*
X142796000Y-90374000D01*
X143004000Y-90374000D01*
X143004000Y-91613500D01*
X143168500Y-91778000D01*
X143750000Y-91781184D01*
X143878991Y-91768480D01*
X144003024Y-91730854D01*
X144117334Y-91669754D01*
X144217528Y-91587528D01*
X144299754Y-91487334D01*
X144360854Y-91373024D01*
X144398480Y-91248991D01*
X144411184Y-91120000D01*
X144408000Y-90538500D01*
X144243500Y-90374000D01*
X143004000Y-90374000D01*
X142796000Y-90374000D01*
X141556500Y-90374000D01*
X141392000Y-90538500D01*
X141388816Y-91120000D01*
X133857979Y-91120000D01*
X133908000Y-90868525D01*
X133908000Y-90571475D01*
X133850049Y-90280132D01*
X133736373Y-90005694D01*
X133571340Y-89758706D01*
X133361294Y-89548660D01*
X133213640Y-89450000D01*
X133258537Y-89420000D01*
X141388816Y-89420000D01*
X141392000Y-90001500D01*
X141556500Y-90166000D01*
X142796000Y-90166000D01*
X142796000Y-88926500D01*
X143004000Y-88926500D01*
X143004000Y-90166000D01*
X144243500Y-90166000D01*
X144408000Y-90001500D01*
X144411184Y-89420000D01*
X144398480Y-89291009D01*
X144360854Y-89166976D01*
X144299754Y-89052666D01*
X144217528Y-88952472D01*
X144117334Y-88870246D01*
X144003024Y-88809146D01*
X143878991Y-88771520D01*
X143750000Y-88758816D01*
X143168500Y-88762000D01*
X143004000Y-88926500D01*
X142796000Y-88926500D01*
X142631500Y-88762000D01*
X142050000Y-88758816D01*
X141921009Y-88771520D01*
X141796976Y-88809146D01*
X141682666Y-88870246D01*
X141582472Y-88952472D01*
X141500246Y-89052666D01*
X141439146Y-89166976D01*
X141401520Y-89291009D01*
X141388816Y-89420000D01*
X133258537Y-89420000D01*
X133361294Y-89351340D01*
X133571340Y-89141294D01*
X133736373Y-88894306D01*
X133850049Y-88619868D01*
X133908000Y-88328525D01*
X133908000Y-88031475D01*
X133850049Y-87740132D01*
X133736373Y-87465694D01*
X133571340Y-87218706D01*
X133361294Y-87008660D01*
X133213640Y-86910000D01*
X133361294Y-86811340D01*
X133571340Y-86601294D01*
X133736373Y-86354306D01*
X133850049Y-86079868D01*
X133908000Y-85788525D01*
X133908000Y-85491475D01*
X133850049Y-85200132D01*
X133736373Y-84925694D01*
X133571340Y-84678706D01*
X133361294Y-84468660D01*
X133213640Y-84370000D01*
X133361294Y-84271340D01*
X133571340Y-84061294D01*
X133736373Y-83814306D01*
X133850049Y-83539868D01*
X133908000Y-83248525D01*
X133908000Y-82951475D01*
X133850049Y-82660132D01*
X133736373Y-82385694D01*
X133571340Y-82138706D01*
X133361294Y-81928660D01*
X133213640Y-81830000D01*
X133361294Y-81731340D01*
X133571340Y-81521294D01*
X133736373Y-81274306D01*
X133850049Y-80999868D01*
X133876875Y-80865000D01*
X142293816Y-80865000D01*
X142306520Y-80993991D01*
X142344146Y-81118024D01*
X142405246Y-81232334D01*
X142487472Y-81332528D01*
X142587666Y-81414754D01*
X142701976Y-81475854D01*
X142826009Y-81513480D01*
X142955000Y-81526184D01*
X143111500Y-81523000D01*
X143276000Y-81358500D01*
X143276000Y-80711356D01*
X143331541Y-80711356D01*
X143404626Y-80910686D01*
X143484000Y-81040795D01*
X143484000Y-81358500D01*
X143648500Y-81523000D01*
X143805000Y-81526184D01*
X143933991Y-81513480D01*
X144058024Y-81475854D01*
X144061310Y-81474098D01*
X144108645Y-81488454D01*
X144276000Y-81352593D01*
X144276000Y-81328297D01*
X144354754Y-81232334D01*
X144415854Y-81118024D01*
X144453480Y-80993991D01*
X144453753Y-80991215D01*
X144484000Y-81040795D01*
X144484000Y-81352593D01*
X144651355Y-81488454D01*
X144736868Y-81462519D01*
X144880000Y-81396187D01*
X145023132Y-81462519D01*
X145108645Y-81488454D01*
X145276000Y-81352593D01*
X145276000Y-81040795D01*
X145355374Y-80910686D01*
X145428459Y-80711356D01*
X145293500Y-80544000D01*
X145484000Y-80544000D01*
X145484000Y-81352593D01*
X145651355Y-81488454D01*
X145736868Y-81462519D01*
X145929494Y-81373250D01*
X146101004Y-81248117D01*
X146244806Y-81091928D01*
X146355374Y-80910686D01*
X146428459Y-80711356D01*
X146293500Y-80544000D01*
X145484000Y-80544000D01*
X145293500Y-80544000D01*
X144466500Y-80544000D01*
X144391502Y-80637002D01*
X144298500Y-80544000D01*
X143466500Y-80544000D01*
X143331541Y-80711356D01*
X143276000Y-80711356D01*
X143276000Y-80544000D01*
X142461500Y-80544000D01*
X142297000Y-80708500D01*
X142293816Y-80865000D01*
X133876875Y-80865000D01*
X133908000Y-80708525D01*
X133908000Y-80411475D01*
X133850049Y-80120132D01*
X133806502Y-80015000D01*
X142293816Y-80015000D01*
X142297000Y-80171500D01*
X142461500Y-80336000D01*
X143276000Y-80336000D01*
X143276000Y-80168644D01*
X143331541Y-80168644D01*
X143466500Y-80336000D01*
X144298500Y-80336000D01*
X144391502Y-80242998D01*
X144466500Y-80336000D01*
X145293500Y-80336000D01*
X145428459Y-80168644D01*
X145355374Y-79969314D01*
X145276000Y-79839205D01*
X145276000Y-79527407D01*
X145484000Y-79527407D01*
X145484000Y-80336000D01*
X146293500Y-80336000D01*
X146428459Y-80168644D01*
X146355374Y-79969314D01*
X146244806Y-79788072D01*
X146101004Y-79631883D01*
X145929494Y-79506750D01*
X145736868Y-79417481D01*
X145651355Y-79391546D01*
X145484000Y-79527407D01*
X145276000Y-79527407D01*
X145108645Y-79391546D01*
X145023132Y-79417481D01*
X144880000Y-79483813D01*
X144736868Y-79417481D01*
X144651355Y-79391546D01*
X144484000Y-79527407D01*
X144484000Y-79839205D01*
X144453753Y-79888785D01*
X144453480Y-79886009D01*
X144415854Y-79761976D01*
X144354754Y-79647666D01*
X144276000Y-79551703D01*
X144276000Y-79527407D01*
X144108645Y-79391546D01*
X144061310Y-79405902D01*
X144058024Y-79404146D01*
X143933991Y-79366520D01*
X143805000Y-79353816D01*
X143648500Y-79357000D01*
X143484000Y-79521500D01*
X143484000Y-79839205D01*
X143404626Y-79969314D01*
X143331541Y-80168644D01*
X143276000Y-80168644D01*
X143276000Y-79521500D01*
X143111500Y-79357000D01*
X142955000Y-79353816D01*
X142826009Y-79366520D01*
X142701976Y-79404146D01*
X142587666Y-79465246D01*
X142487472Y-79547472D01*
X142405246Y-79647666D01*
X142344146Y-79761976D01*
X142306520Y-79886009D01*
X142293816Y-80015000D01*
X133806502Y-80015000D01*
X133736373Y-79845694D01*
X133571340Y-79598706D01*
X133361294Y-79388660D01*
X133213640Y-79290000D01*
X133361294Y-79191340D01*
X133571340Y-78981294D01*
X133736373Y-78734306D01*
X133850049Y-78459868D01*
X133908000Y-78168525D01*
X133908000Y-77871475D01*
X133850049Y-77580132D01*
X133736373Y-77305694D01*
X133571340Y-77058706D01*
X133361294Y-76848660D01*
X133213640Y-76750000D01*
X133361294Y-76651340D01*
X133571340Y-76441294D01*
X133736373Y-76194306D01*
X133850049Y-75919868D01*
X133908000Y-75628525D01*
X133908000Y-75331475D01*
X133850049Y-75040132D01*
X133736373Y-74765694D01*
X133571340Y-74518706D01*
X133361294Y-74308660D01*
X133213640Y-74210000D01*
X133361294Y-74111340D01*
X133571340Y-73901294D01*
X133736373Y-73654306D01*
X133850049Y-73379868D01*
X133908000Y-73088525D01*
X133908000Y-72791475D01*
X133850049Y-72500132D01*
X133736373Y-72225694D01*
X133571340Y-71978706D01*
X133465017Y-71872383D01*
X133503024Y-71860853D01*
X133617334Y-71799754D01*
X133717527Y-71717527D01*
X133799754Y-71617334D01*
X133860853Y-71503024D01*
X133898479Y-71378990D01*
X133911183Y-71250000D01*
X133911183Y-69550000D01*
X133898479Y-69421010D01*
X133860853Y-69296976D01*
X133799754Y-69182666D01*
X133717527Y-69082473D01*
X133617334Y-69000246D01*
X133503024Y-68939147D01*
X133378990Y-68901521D01*
X133250000Y-68888817D01*
X131550000Y-68888817D01*
X131421010Y-68901521D01*
X131296976Y-68939147D01*
X131182666Y-69000246D01*
X131082473Y-69082473D01*
X131000246Y-69182666D01*
X130939147Y-69296976D01*
X130901521Y-69421010D01*
X130888817Y-69550000D01*
X130888817Y-70803854D01*
X119385672Y-82307000D01*
X115150000Y-82307000D01*
X115150000Y-77956959D01*
X129523768Y-65150000D01*
X156287000Y-65150000D01*
X156287001Y-129850000D01*
%TA.AperFunction,Conductor*%
D20*
G36*
X156287001Y-129850000D02*
G01*
X130707274Y-129850000D01*
X115150000Y-116525161D01*
X115150000Y-110543000D01*
X118896670Y-110543000D01*
X128687000Y-120333332D01*
X128687000Y-120771550D01*
X128683213Y-120810000D01*
X128687000Y-120848450D01*
X128687000Y-120848460D01*
X128698331Y-120963494D01*
X128743103Y-121111090D01*
X128743104Y-121111091D01*
X128815811Y-121247116D01*
X128913658Y-121366343D01*
X128943531Y-121390860D01*
X130933833Y-123381163D01*
X130892000Y-123591475D01*
X130892000Y-123888525D01*
X130949951Y-124179868D01*
X131063627Y-124454306D01*
X131228660Y-124701294D01*
X131438706Y-124911340D01*
X131685694Y-125076373D01*
X131960132Y-125190049D01*
X132251475Y-125248000D01*
X132548525Y-125248000D01*
X132839868Y-125190049D01*
X133114306Y-125076373D01*
X133361294Y-124911340D01*
X133571340Y-124701294D01*
X133736373Y-124454306D01*
X133850049Y-124179868D01*
X133908000Y-123888525D01*
X133908000Y-123591475D01*
X133850049Y-123300132D01*
X133736373Y-123025694D01*
X133571340Y-122778706D01*
X133361294Y-122568660D01*
X133213640Y-122470000D01*
X133361294Y-122371340D01*
X133571340Y-122161294D01*
X133736373Y-121914306D01*
X133850049Y-121639868D01*
X133908000Y-121348525D01*
X133908000Y-121051475D01*
X133850049Y-120760132D01*
X133736373Y-120485694D01*
X133571340Y-120238706D01*
X133361294Y-120028660D01*
X133213640Y-119930000D01*
X133361294Y-119831340D01*
X133571340Y-119621294D01*
X133649045Y-119505000D01*
X143943816Y-119505000D01*
X143956520Y-119633991D01*
X143994146Y-119758024D01*
X144055246Y-119872334D01*
X144137472Y-119972528D01*
X144237666Y-120054754D01*
X144351976Y-120115854D01*
X144476009Y-120153480D01*
X144605000Y-120166184D01*
X144761500Y-120163000D01*
X144926000Y-119998500D01*
X144926000Y-119351356D01*
X144981541Y-119351356D01*
X145054626Y-119550686D01*
X145134000Y-119680795D01*
X145134000Y-119998500D01*
X145298500Y-120163000D01*
X145455000Y-120166184D01*
X145583991Y-120153480D01*
X145708024Y-120115854D01*
X145711310Y-120114098D01*
X145758645Y-120128454D01*
X145926000Y-119992593D01*
X145926000Y-119968297D01*
X146004754Y-119872334D01*
X146065854Y-119758024D01*
X146103480Y-119633991D01*
X146103753Y-119631215D01*
X146134000Y-119680795D01*
X146134000Y-119992593D01*
X146301355Y-120128454D01*
X146386868Y-120102519D01*
X146530000Y-120036187D01*
X146673132Y-120102519D01*
X146758645Y-120128454D01*
X146926000Y-119992593D01*
X146926000Y-119680795D01*
X147005374Y-119550686D01*
X147078459Y-119351356D01*
X146943500Y-119184000D01*
X147134000Y-119184000D01*
X147134000Y-119992593D01*
X147301355Y-120128454D01*
X147386868Y-120102519D01*
X147579494Y-120013250D01*
X147751004Y-119888117D01*
X147894806Y-119731928D01*
X148005374Y-119550686D01*
X148078459Y-119351356D01*
X147943500Y-119184000D01*
X147134000Y-119184000D01*
X146943500Y-119184000D01*
X146116500Y-119184000D01*
X146041502Y-119277002D01*
X145948500Y-119184000D01*
X145116500Y-119184000D01*
X144981541Y-119351356D01*
X144926000Y-119351356D01*
X144926000Y-119184000D01*
X144111500Y-119184000D01*
X143947000Y-119348500D01*
X143943816Y-119505000D01*
X133649045Y-119505000D01*
X133736373Y-119374306D01*
X133850049Y-119099868D01*
X133908000Y-118808525D01*
X133908000Y-118655000D01*
X143943816Y-118655000D01*
X143947000Y-118811500D01*
X144111500Y-118976000D01*
X144926000Y-118976000D01*
X144926000Y-118808644D01*
X144981541Y-118808644D01*
X145116500Y-118976000D01*
X145948500Y-118976000D01*
X146041502Y-118882998D01*
X146116500Y-118976000D01*
X146943500Y-118976000D01*
X147078459Y-118808644D01*
X147005374Y-118609314D01*
X146926000Y-118479205D01*
X146926000Y-118167407D01*
X147134000Y-118167407D01*
X147134000Y-118976000D01*
X147943500Y-118976000D01*
X148078459Y-118808644D01*
X148005374Y-118609314D01*
X147894806Y-118428072D01*
X147751004Y-118271883D01*
X147579494Y-118146750D01*
X147386868Y-118057481D01*
X147301355Y-118031546D01*
X147134000Y-118167407D01*
X146926000Y-118167407D01*
X146758645Y-118031546D01*
X146673132Y-118057481D01*
X146530000Y-118123813D01*
X146386868Y-118057481D01*
X146301355Y-118031546D01*
X146134000Y-118167407D01*
X146134000Y-118479205D01*
X146103753Y-118528785D01*
X146103480Y-118526009D01*
X146065854Y-118401976D01*
X146004754Y-118287666D01*
X145926000Y-118191703D01*
X145926000Y-118167407D01*
X145758645Y-118031546D01*
X145711310Y-118045902D01*
X145708024Y-118044146D01*
X145583991Y-118006520D01*
X145455000Y-117993816D01*
X145298500Y-117997000D01*
X145134000Y-118161500D01*
X145134000Y-118479205D01*
X145054626Y-118609314D01*
X144981541Y-118808644D01*
X144926000Y-118808644D01*
X144926000Y-118161500D01*
X144761500Y-117997000D01*
X144605000Y-117993816D01*
X144476009Y-118006520D01*
X144351976Y-118044146D01*
X144237666Y-118105246D01*
X144137472Y-118187472D01*
X144055246Y-118287666D01*
X143994146Y-118401976D01*
X143956520Y-118526009D01*
X143943816Y-118655000D01*
X133908000Y-118655000D01*
X133908000Y-118511475D01*
X133850049Y-118220132D01*
X133736373Y-117945694D01*
X133571340Y-117698706D01*
X133361294Y-117488660D01*
X133213640Y-117390000D01*
X133361294Y-117291340D01*
X133571340Y-117081294D01*
X133736373Y-116834306D01*
X133850049Y-116559868D01*
X133908000Y-116268525D01*
X133908000Y-115971475D01*
X133850049Y-115680132D01*
X133736373Y-115405694D01*
X133571340Y-115158706D01*
X133361294Y-114948660D01*
X133213640Y-114850000D01*
X133361294Y-114751340D01*
X133571340Y-114541294D01*
X133736373Y-114294306D01*
X133850049Y-114019868D01*
X133908000Y-113728525D01*
X133908000Y-113431475D01*
X133850049Y-113140132D01*
X133736373Y-112865694D01*
X133571340Y-112618706D01*
X133361294Y-112408660D01*
X133213640Y-112310000D01*
X133361294Y-112211340D01*
X133571340Y-112001294D01*
X133736373Y-111754306D01*
X133850049Y-111479868D01*
X133908000Y-111188525D01*
X133908000Y-110891475D01*
X133850049Y-110600132D01*
X133736373Y-110325694D01*
X133571340Y-110078706D01*
X133361294Y-109868660D01*
X133213640Y-109770000D01*
X133361294Y-109671340D01*
X133571340Y-109461294D01*
X133736373Y-109214306D01*
X133850049Y-108939868D01*
X133908000Y-108648525D01*
X133908000Y-108351475D01*
X133850049Y-108060132D01*
X133736373Y-107785694D01*
X133571340Y-107538706D01*
X133361294Y-107328660D01*
X133213640Y-107230000D01*
X133361294Y-107131340D01*
X133571340Y-106921294D01*
X133736373Y-106674306D01*
X133850049Y-106399868D01*
X133908000Y-106108525D01*
X133908000Y-105811475D01*
X133850049Y-105520132D01*
X133736373Y-105245694D01*
X133571340Y-104998706D01*
X133361294Y-104788660D01*
X133213640Y-104690000D01*
X133361294Y-104591340D01*
X133571340Y-104381294D01*
X133736373Y-104134306D01*
X133850049Y-103859868D01*
X133908000Y-103568525D01*
X133908000Y-103271475D01*
X133850049Y-102980132D01*
X133736373Y-102705694D01*
X133571340Y-102458706D01*
X133361294Y-102248660D01*
X133213640Y-102150000D01*
X133361294Y-102051340D01*
X133571340Y-101841294D01*
X133736373Y-101594306D01*
X133850049Y-101319868D01*
X133908000Y-101028525D01*
X133908000Y-100731475D01*
X133850049Y-100440132D01*
X133843782Y-100425000D01*
X143913816Y-100425000D01*
X143926520Y-100553991D01*
X143964146Y-100678024D01*
X144025246Y-100792334D01*
X144107472Y-100892528D01*
X144207666Y-100974754D01*
X144321976Y-101035854D01*
X144446009Y-101073480D01*
X144575000Y-101086184D01*
X144731500Y-101083000D01*
X144896000Y-100918500D01*
X144896000Y-100104000D01*
X145104000Y-100104000D01*
X145104000Y-100918500D01*
X145268500Y-101083000D01*
X145425000Y-101086184D01*
X145553991Y-101073480D01*
X145678024Y-101035854D01*
X145792334Y-100974754D01*
X145892528Y-100892528D01*
X145974754Y-100792334D01*
X146035854Y-100678024D01*
X146073480Y-100553991D01*
X146086184Y-100425000D01*
X148913816Y-100425000D01*
X148926520Y-100553991D01*
X148964146Y-100678024D01*
X149025246Y-100792334D01*
X149107472Y-100892528D01*
X149207666Y-100974754D01*
X149321976Y-101035854D01*
X149446009Y-101073480D01*
X149575000Y-101086184D01*
X149731500Y-101083000D01*
X149896000Y-100918500D01*
X149896000Y-100104000D01*
X150104000Y-100104000D01*
X150104000Y-100918500D01*
X150268500Y-101083000D01*
X150425000Y-101086184D01*
X150553991Y-101073480D01*
X150678024Y-101035854D01*
X150792334Y-100974754D01*
X150892528Y-100892528D01*
X150974754Y-100792334D01*
X151035854Y-100678024D01*
X151073480Y-100553991D01*
X151086184Y-100425000D01*
X151083000Y-100268500D01*
X150918500Y-100104000D01*
X150104000Y-100104000D01*
X149896000Y-100104000D01*
X149081500Y-100104000D01*
X148917000Y-100268500D01*
X148913816Y-100425000D01*
X146086184Y-100425000D01*
X146083000Y-100268500D01*
X145918500Y-100104000D01*
X145104000Y-100104000D01*
X144896000Y-100104000D01*
X144081500Y-100104000D01*
X143917000Y-100268500D01*
X143913816Y-100425000D01*
X133843782Y-100425000D01*
X133736373Y-100165694D01*
X133571340Y-99918706D01*
X133361294Y-99708660D01*
X133213640Y-99610000D01*
X133266020Y-99575000D01*
X143913816Y-99575000D01*
X143917000Y-99731500D01*
X144081500Y-99896000D01*
X144896000Y-99896000D01*
X144896000Y-99081500D01*
X145104000Y-99081500D01*
X145104000Y-99896000D01*
X145918500Y-99896000D01*
X146083000Y-99731500D01*
X146086184Y-99575000D01*
X148913816Y-99575000D01*
X148917000Y-99731500D01*
X149081500Y-99896000D01*
X149896000Y-99896000D01*
X149896000Y-99081500D01*
X150104000Y-99081500D01*
X150104000Y-99896000D01*
X150918500Y-99896000D01*
X151083000Y-99731500D01*
X151086184Y-99575000D01*
X151073480Y-99446009D01*
X151035854Y-99321976D01*
X150974754Y-99207666D01*
X150892528Y-99107472D01*
X150792334Y-99025246D01*
X150678024Y-98964146D01*
X150553991Y-98926520D01*
X150425000Y-98913816D01*
X150268500Y-98917000D01*
X150104000Y-99081500D01*
X149896000Y-99081500D01*
X149731500Y-98917000D01*
X149575000Y-98913816D01*
X149446009Y-98926520D01*
X149321976Y-98964146D01*
X149207666Y-99025246D01*
X149107472Y-99107472D01*
X149025246Y-99207666D01*
X148964146Y-99321976D01*
X148926520Y-99446009D01*
X148913816Y-99575000D01*
X146086184Y-99575000D01*
X146073480Y-99446009D01*
X146035854Y-99321976D01*
X145974754Y-99207666D01*
X145892528Y-99107472D01*
X145792334Y-99025246D01*
X145678024Y-98964146D01*
X145553991Y-98926520D01*
X145425000Y-98913816D01*
X145268500Y-98917000D01*
X145104000Y-99081500D01*
X144896000Y-99081500D01*
X144731500Y-98917000D01*
X144575000Y-98913816D01*
X144446009Y-98926520D01*
X144321976Y-98964146D01*
X144207666Y-99025246D01*
X144107472Y-99107472D01*
X144025246Y-99207666D01*
X143964146Y-99321976D01*
X143926520Y-99446009D01*
X143913816Y-99575000D01*
X133266020Y-99575000D01*
X133361294Y-99511340D01*
X133571340Y-99301294D01*
X133736373Y-99054306D01*
X133850049Y-98779868D01*
X133908000Y-98488525D01*
X133908000Y-98191475D01*
X133850049Y-97900132D01*
X133736373Y-97625694D01*
X133571340Y-97378706D01*
X133361294Y-97168660D01*
X133213640Y-97070000D01*
X133361294Y-96971340D01*
X133571340Y-96761294D01*
X133736373Y-96514306D01*
X133850049Y-96239868D01*
X133908000Y-95948525D01*
X133908000Y-95651475D01*
X133850049Y-95360132D01*
X133736373Y-95085694D01*
X133571340Y-94838706D01*
X133361294Y-94628660D01*
X133213640Y-94530000D01*
X133361294Y-94431340D01*
X133571340Y-94221294D01*
X133736373Y-93974306D01*
X133850049Y-93699868D01*
X133908000Y-93408525D01*
X133908000Y-93111475D01*
X133850049Y-92820132D01*
X133736373Y-92545694D01*
X133571340Y-92298706D01*
X133361294Y-92088660D01*
X133213640Y-91990000D01*
X133361294Y-91891340D01*
X133571340Y-91681294D01*
X133736373Y-91434306D01*
X133850049Y-91159868D01*
X133857979Y-91120000D01*
X141388816Y-91120000D01*
X141401520Y-91248991D01*
X141439146Y-91373024D01*
X141500246Y-91487334D01*
X141582472Y-91587528D01*
X141682666Y-91669754D01*
X141796976Y-91730854D01*
X141921009Y-91768480D01*
X142050000Y-91781184D01*
X142631500Y-91778000D01*
X142796000Y-91613500D01*
X142796000Y-90374000D01*
X143004000Y-90374000D01*
X143004000Y-91613500D01*
X143168500Y-91778000D01*
X143750000Y-91781184D01*
X143878991Y-91768480D01*
X144003024Y-91730854D01*
X144117334Y-91669754D01*
X144217528Y-91587528D01*
X144299754Y-91487334D01*
X144360854Y-91373024D01*
X144398480Y-91248991D01*
X144411184Y-91120000D01*
X144408000Y-90538500D01*
X144243500Y-90374000D01*
X143004000Y-90374000D01*
X142796000Y-90374000D01*
X141556500Y-90374000D01*
X141392000Y-90538500D01*
X141388816Y-91120000D01*
X133857979Y-91120000D01*
X133908000Y-90868525D01*
X133908000Y-90571475D01*
X133850049Y-90280132D01*
X133736373Y-90005694D01*
X133571340Y-89758706D01*
X133361294Y-89548660D01*
X133213640Y-89450000D01*
X133258537Y-89420000D01*
X141388816Y-89420000D01*
X141392000Y-90001500D01*
X141556500Y-90166000D01*
X142796000Y-90166000D01*
X142796000Y-88926500D01*
X143004000Y-88926500D01*
X143004000Y-90166000D01*
X144243500Y-90166000D01*
X144408000Y-90001500D01*
X144411184Y-89420000D01*
X144398480Y-89291009D01*
X144360854Y-89166976D01*
X144299754Y-89052666D01*
X144217528Y-88952472D01*
X144117334Y-88870246D01*
X144003024Y-88809146D01*
X143878991Y-88771520D01*
X143750000Y-88758816D01*
X143168500Y-88762000D01*
X143004000Y-88926500D01*
X142796000Y-88926500D01*
X142631500Y-88762000D01*
X142050000Y-88758816D01*
X141921009Y-88771520D01*
X141796976Y-88809146D01*
X141682666Y-88870246D01*
X141582472Y-88952472D01*
X141500246Y-89052666D01*
X141439146Y-89166976D01*
X141401520Y-89291009D01*
X141388816Y-89420000D01*
X133258537Y-89420000D01*
X133361294Y-89351340D01*
X133571340Y-89141294D01*
X133736373Y-88894306D01*
X133850049Y-88619868D01*
X133908000Y-88328525D01*
X133908000Y-88031475D01*
X133850049Y-87740132D01*
X133736373Y-87465694D01*
X133571340Y-87218706D01*
X133361294Y-87008660D01*
X133213640Y-86910000D01*
X133361294Y-86811340D01*
X133571340Y-86601294D01*
X133736373Y-86354306D01*
X133850049Y-86079868D01*
X133908000Y-85788525D01*
X133908000Y-85491475D01*
X133850049Y-85200132D01*
X133736373Y-84925694D01*
X133571340Y-84678706D01*
X133361294Y-84468660D01*
X133213640Y-84370000D01*
X133361294Y-84271340D01*
X133571340Y-84061294D01*
X133736373Y-83814306D01*
X133850049Y-83539868D01*
X133908000Y-83248525D01*
X133908000Y-82951475D01*
X133850049Y-82660132D01*
X133736373Y-82385694D01*
X133571340Y-82138706D01*
X133361294Y-81928660D01*
X133213640Y-81830000D01*
X133361294Y-81731340D01*
X133571340Y-81521294D01*
X133736373Y-81274306D01*
X133850049Y-80999868D01*
X133876875Y-80865000D01*
X142293816Y-80865000D01*
X142306520Y-80993991D01*
X142344146Y-81118024D01*
X142405246Y-81232334D01*
X142487472Y-81332528D01*
X142587666Y-81414754D01*
X142701976Y-81475854D01*
X142826009Y-81513480D01*
X142955000Y-81526184D01*
X143111500Y-81523000D01*
X143276000Y-81358500D01*
X143276000Y-80711356D01*
X143331541Y-80711356D01*
X143404626Y-80910686D01*
X143484000Y-81040795D01*
X143484000Y-81358500D01*
X143648500Y-81523000D01*
X143805000Y-81526184D01*
X143933991Y-81513480D01*
X144058024Y-81475854D01*
X144061310Y-81474098D01*
X144108645Y-81488454D01*
X144276000Y-81352593D01*
X144276000Y-81328297D01*
X144354754Y-81232334D01*
X144415854Y-81118024D01*
X144453480Y-80993991D01*
X144453753Y-80991215D01*
X144484000Y-81040795D01*
X144484000Y-81352593D01*
X144651355Y-81488454D01*
X144736868Y-81462519D01*
X144880000Y-81396187D01*
X145023132Y-81462519D01*
X145108645Y-81488454D01*
X145276000Y-81352593D01*
X145276000Y-81040795D01*
X145355374Y-80910686D01*
X145428459Y-80711356D01*
X145293500Y-80544000D01*
X145484000Y-80544000D01*
X145484000Y-81352593D01*
X145651355Y-81488454D01*
X145736868Y-81462519D01*
X145929494Y-81373250D01*
X146101004Y-81248117D01*
X146244806Y-81091928D01*
X146355374Y-80910686D01*
X146428459Y-80711356D01*
X146293500Y-80544000D01*
X145484000Y-80544000D01*
X145293500Y-80544000D01*
X144466500Y-80544000D01*
X144391502Y-80637002D01*
X144298500Y-80544000D01*
X143466500Y-80544000D01*
X143331541Y-80711356D01*
X143276000Y-80711356D01*
X143276000Y-80544000D01*
X142461500Y-80544000D01*
X142297000Y-80708500D01*
X142293816Y-80865000D01*
X133876875Y-80865000D01*
X133908000Y-80708525D01*
X133908000Y-80411475D01*
X133850049Y-80120132D01*
X133806502Y-80015000D01*
X142293816Y-80015000D01*
X142297000Y-80171500D01*
X142461500Y-80336000D01*
X143276000Y-80336000D01*
X143276000Y-80168644D01*
X143331541Y-80168644D01*
X143466500Y-80336000D01*
X144298500Y-80336000D01*
X144391502Y-80242998D01*
X144466500Y-80336000D01*
X145293500Y-80336000D01*
X145428459Y-80168644D01*
X145355374Y-79969314D01*
X145276000Y-79839205D01*
X145276000Y-79527407D01*
X145484000Y-79527407D01*
X145484000Y-80336000D01*
X146293500Y-80336000D01*
X146428459Y-80168644D01*
X146355374Y-79969314D01*
X146244806Y-79788072D01*
X146101004Y-79631883D01*
X145929494Y-79506750D01*
X145736868Y-79417481D01*
X145651355Y-79391546D01*
X145484000Y-79527407D01*
X145276000Y-79527407D01*
X145108645Y-79391546D01*
X145023132Y-79417481D01*
X144880000Y-79483813D01*
X144736868Y-79417481D01*
X144651355Y-79391546D01*
X144484000Y-79527407D01*
X144484000Y-79839205D01*
X144453753Y-79888785D01*
X144453480Y-79886009D01*
X144415854Y-79761976D01*
X144354754Y-79647666D01*
X144276000Y-79551703D01*
X144276000Y-79527407D01*
X144108645Y-79391546D01*
X144061310Y-79405902D01*
X144058024Y-79404146D01*
X143933991Y-79366520D01*
X143805000Y-79353816D01*
X143648500Y-79357000D01*
X143484000Y-79521500D01*
X143484000Y-79839205D01*
X143404626Y-79969314D01*
X143331541Y-80168644D01*
X143276000Y-80168644D01*
X143276000Y-79521500D01*
X143111500Y-79357000D01*
X142955000Y-79353816D01*
X142826009Y-79366520D01*
X142701976Y-79404146D01*
X142587666Y-79465246D01*
X142487472Y-79547472D01*
X142405246Y-79647666D01*
X142344146Y-79761976D01*
X142306520Y-79886009D01*
X142293816Y-80015000D01*
X133806502Y-80015000D01*
X133736373Y-79845694D01*
X133571340Y-79598706D01*
X133361294Y-79388660D01*
X133213640Y-79290000D01*
X133361294Y-79191340D01*
X133571340Y-78981294D01*
X133736373Y-78734306D01*
X133850049Y-78459868D01*
X133908000Y-78168525D01*
X133908000Y-77871475D01*
X133850049Y-77580132D01*
X133736373Y-77305694D01*
X133571340Y-77058706D01*
X133361294Y-76848660D01*
X133213640Y-76750000D01*
X133361294Y-76651340D01*
X133571340Y-76441294D01*
X133736373Y-76194306D01*
X133850049Y-75919868D01*
X133908000Y-75628525D01*
X133908000Y-75331475D01*
X133850049Y-75040132D01*
X133736373Y-74765694D01*
X133571340Y-74518706D01*
X133361294Y-74308660D01*
X133213640Y-74210000D01*
X133361294Y-74111340D01*
X133571340Y-73901294D01*
X133736373Y-73654306D01*
X133850049Y-73379868D01*
X133908000Y-73088525D01*
X133908000Y-72791475D01*
X133850049Y-72500132D01*
X133736373Y-72225694D01*
X133571340Y-71978706D01*
X133465017Y-71872383D01*
X133503024Y-71860853D01*
X133617334Y-71799754D01*
X133717527Y-71717527D01*
X133799754Y-71617334D01*
X133860853Y-71503024D01*
X133898479Y-71378990D01*
X133911183Y-71250000D01*
X133911183Y-69550000D01*
X133898479Y-69421010D01*
X133860853Y-69296976D01*
X133799754Y-69182666D01*
X133717527Y-69082473D01*
X133617334Y-69000246D01*
X133503024Y-68939147D01*
X133378990Y-68901521D01*
X133250000Y-68888817D01*
X131550000Y-68888817D01*
X131421010Y-68901521D01*
X131296976Y-68939147D01*
X131182666Y-69000246D01*
X131082473Y-69082473D01*
X131000246Y-69182666D01*
X130939147Y-69296976D01*
X130901521Y-69421010D01*
X130888817Y-69550000D01*
X130888817Y-70803854D01*
X119385672Y-82307000D01*
X115150000Y-82307000D01*
X115150000Y-77956959D01*
X129523768Y-65150000D01*
X156287000Y-65150000D01*
X156287001Y-129850000D01*
G37*
%TD.AperFunction*%
%TD*%
M02*
