%TF.GenerationSoftware,KiCad,Pcbnew,(5.1.10)-1*%
%TF.CreationDate,2021-07-01T21:13:48+10:00*%
%TF.ProjectId,Converter,436f6e76-6572-4746-9572-2e6b69636164,rev?*%
%TF.SameCoordinates,Original*%
%TF.FileFunction,Legend,Top*%
%TF.FilePolarity,Positive*%
%FSLAX46Y46*%
G04 Gerber Fmt 4.6, Leading zero omitted, Abs format (unit mm)*
G04 Created by KiCad (PCBNEW (5.1.10)-1) date 2021-07-01 21:13:48*
%MOMM*%
%LPD*%
G01*
G04 APERTURE LIST*
%ADD10C,0.120000*%
%ADD11C,0.150000*%
G04 APERTURE END LIST*
D10*
%TO.C,J1*%
X112005000Y-86615000D02*
X112700000Y-86615000D01*
%TO.C,REF\u002A\u002A*%
X154315000Y-125695000D02*
X154315000Y-125000000D01*
X155000000Y-125695000D02*
X154315000Y-125695000D01*
X155685000Y-124391724D02*
X155685000Y-124305000D01*
X155685000Y-125695000D02*
X155685000Y-125608276D01*
X155685000Y-124305000D02*
X157560000Y-124305000D01*
X155685000Y-125695000D02*
X157560000Y-125695000D01*
X157560000Y-124605507D02*
X157560000Y-124305000D01*
X157560000Y-125695000D02*
X157560000Y-125394493D01*
X154315000Y-70695000D02*
X154315000Y-70000000D01*
X155000000Y-70695000D02*
X154315000Y-70695000D01*
X155685000Y-69391724D02*
X155685000Y-69305000D01*
X155685000Y-70695000D02*
X155685000Y-70608276D01*
X155685000Y-69305000D02*
X157560000Y-69305000D01*
X155685000Y-70695000D02*
X157560000Y-70695000D01*
X157560000Y-69605507D02*
X157560000Y-69305000D01*
X157560000Y-70695000D02*
X157560000Y-70394493D01*
X149305000Y-99315000D02*
X150000000Y-99315000D01*
X149305000Y-100000000D02*
X149305000Y-99315000D01*
X150608276Y-100685000D02*
X150695000Y-100685000D01*
X149305000Y-100685000D02*
X149391724Y-100685000D01*
X150695000Y-100685000D02*
X150695000Y-100560000D01*
X149305000Y-100685000D02*
X149305000Y-100560000D01*
X149305000Y-100685000D02*
X150695000Y-100685000D01*
X144305000Y-99315000D02*
X145000000Y-99315000D01*
X144305000Y-100000000D02*
X144305000Y-99315000D01*
X145608276Y-100685000D02*
X145695000Y-100685000D01*
X144305000Y-100685000D02*
X144391724Y-100685000D01*
X145695000Y-100685000D02*
X145695000Y-100560000D01*
X144305000Y-100685000D02*
X144305000Y-100560000D01*
X144305000Y-100685000D02*
X145695000Y-100685000D01*
%TO.C,J2*%
X131070000Y-125070000D02*
X133730000Y-125070000D01*
X131070000Y-71670000D02*
X131070000Y-125070000D01*
X133730000Y-71670000D02*
X133730000Y-125070000D01*
X131070000Y-71670000D02*
X133730000Y-71670000D01*
X131070000Y-70400000D02*
X131070000Y-69070000D01*
X131070000Y-69070000D02*
X132400000Y-69070000D01*
%TO.C,J3*%
X163670000Y-98670000D02*
X165000000Y-98670000D01*
X163670000Y-100000000D02*
X163670000Y-98670000D01*
X163670000Y-101270000D02*
X166330000Y-101270000D01*
X166330000Y-101270000D02*
X166330000Y-101330000D01*
X163670000Y-101270000D02*
X163670000Y-101330000D01*
X163670000Y-101330000D02*
X166330000Y-101330000D01*
%TO.C,J1*%
D11*
X112366666Y-85192380D02*
X112366666Y-85906666D01*
X112319047Y-86049523D01*
X112223809Y-86144761D01*
X112080952Y-86192380D01*
X111985714Y-86192380D01*
X113366666Y-86192380D02*
X112795238Y-86192380D01*
X113080952Y-86192380D02*
X113080952Y-85192380D01*
X112985714Y-85335238D01*
X112890476Y-85430476D01*
X112795238Y-85478095D01*
X109338095Y-107847619D02*
X109385714Y-107800000D01*
X109480952Y-107752380D01*
X109719047Y-107752380D01*
X109814285Y-107800000D01*
X109861904Y-107847619D01*
X109909523Y-107942857D01*
X109909523Y-108038095D01*
X109861904Y-108180952D01*
X109290476Y-108752380D01*
X109909523Y-108752380D01*
X110290476Y-107847619D02*
X110338095Y-107800000D01*
X110433333Y-107752380D01*
X110671428Y-107752380D01*
X110766666Y-107800000D01*
X110814285Y-107847619D01*
X110861904Y-107942857D01*
X110861904Y-108038095D01*
X110814285Y-108180952D01*
X110242857Y-108752380D01*
X110861904Y-108752380D01*
X109338095Y-105847619D02*
X109385714Y-105800000D01*
X109480952Y-105752380D01*
X109719047Y-105752380D01*
X109814285Y-105800000D01*
X109861904Y-105847619D01*
X109909523Y-105942857D01*
X109909523Y-106038095D01*
X109861904Y-106180952D01*
X109290476Y-106752380D01*
X109909523Y-106752380D01*
X110528571Y-105752380D02*
X110623809Y-105752380D01*
X110719047Y-105800000D01*
X110766666Y-105847619D01*
X110814285Y-105942857D01*
X110861904Y-106133333D01*
X110861904Y-106371428D01*
X110814285Y-106561904D01*
X110766666Y-106657142D01*
X110719047Y-106704761D01*
X110623809Y-106752380D01*
X110528571Y-106752380D01*
X110433333Y-106704761D01*
X110385714Y-106657142D01*
X110338095Y-106561904D01*
X110290476Y-106371428D01*
X110290476Y-106133333D01*
X110338095Y-105942857D01*
X110385714Y-105847619D01*
X110433333Y-105800000D01*
X110528571Y-105752380D01*
X109909523Y-104752380D02*
X109338095Y-104752380D01*
X109623809Y-104752380D02*
X109623809Y-103752380D01*
X109528571Y-103895238D01*
X109433333Y-103990476D01*
X109338095Y-104038095D01*
X110480952Y-104180952D02*
X110385714Y-104133333D01*
X110338095Y-104085714D01*
X110290476Y-103990476D01*
X110290476Y-103942857D01*
X110338095Y-103847619D01*
X110385714Y-103800000D01*
X110480952Y-103752380D01*
X110671428Y-103752380D01*
X110766666Y-103800000D01*
X110814285Y-103847619D01*
X110861904Y-103942857D01*
X110861904Y-103990476D01*
X110814285Y-104085714D01*
X110766666Y-104133333D01*
X110671428Y-104180952D01*
X110480952Y-104180952D01*
X110385714Y-104228571D01*
X110338095Y-104276190D01*
X110290476Y-104371428D01*
X110290476Y-104561904D01*
X110338095Y-104657142D01*
X110385714Y-104704761D01*
X110480952Y-104752380D01*
X110671428Y-104752380D01*
X110766666Y-104704761D01*
X110814285Y-104657142D01*
X110861904Y-104561904D01*
X110861904Y-104371428D01*
X110814285Y-104276190D01*
X110766666Y-104228571D01*
X110671428Y-104180952D01*
X109909523Y-102752380D02*
X109338095Y-102752380D01*
X109623809Y-102752380D02*
X109623809Y-101752380D01*
X109528571Y-101895238D01*
X109433333Y-101990476D01*
X109338095Y-102038095D01*
X110766666Y-101752380D02*
X110576190Y-101752380D01*
X110480952Y-101800000D01*
X110433333Y-101847619D01*
X110338095Y-101990476D01*
X110290476Y-102180952D01*
X110290476Y-102561904D01*
X110338095Y-102657142D01*
X110385714Y-102704761D01*
X110480952Y-102752380D01*
X110671428Y-102752380D01*
X110766666Y-102704761D01*
X110814285Y-102657142D01*
X110861904Y-102561904D01*
X110861904Y-102323809D01*
X110814285Y-102228571D01*
X110766666Y-102180952D01*
X110671428Y-102133333D01*
X110480952Y-102133333D01*
X110385714Y-102180952D01*
X110338095Y-102228571D01*
X110290476Y-102323809D01*
X115185714Y-87752380D02*
X114614285Y-87752380D01*
X114900000Y-87752380D02*
X114900000Y-86752380D01*
X114804761Y-86895238D01*
X114709523Y-86990476D01*
X114614285Y-87038095D01*
X114566666Y-88752380D02*
X115185714Y-88752380D01*
X114852380Y-89133333D01*
X114995238Y-89133333D01*
X115090476Y-89180952D01*
X115138095Y-89228571D01*
X115185714Y-89323809D01*
X115185714Y-89561904D01*
X115138095Y-89657142D01*
X115090476Y-89704761D01*
X114995238Y-89752380D01*
X114709523Y-89752380D01*
X114614285Y-89704761D01*
X114566666Y-89657142D01*
X115138095Y-90752380D02*
X114661904Y-90752380D01*
X114614285Y-91228571D01*
X114661904Y-91180952D01*
X114757142Y-91133333D01*
X114995238Y-91133333D01*
X115090476Y-91180952D01*
X115138095Y-91228571D01*
X115185714Y-91323809D01*
X115185714Y-91561904D01*
X115138095Y-91657142D01*
X115090476Y-91704761D01*
X114995238Y-91752380D01*
X114757142Y-91752380D01*
X114661904Y-91704761D01*
X114614285Y-91657142D01*
X114566666Y-92752380D02*
X115233333Y-92752380D01*
X114804761Y-93752380D01*
X114709523Y-95752380D02*
X114900000Y-95752380D01*
X114995238Y-95704761D01*
X115042857Y-95657142D01*
X115138095Y-95514285D01*
X115185714Y-95323809D01*
X115185714Y-94942857D01*
X115138095Y-94847619D01*
X115090476Y-94800000D01*
X114995238Y-94752380D01*
X114804761Y-94752380D01*
X114709523Y-94800000D01*
X114661904Y-94847619D01*
X114614285Y-94942857D01*
X114614285Y-95180952D01*
X114661904Y-95276190D01*
X114709523Y-95323809D01*
X114804761Y-95371428D01*
X114995238Y-95371428D01*
X115090476Y-95323809D01*
X115138095Y-95276190D01*
X115185714Y-95180952D01*
X115109523Y-97752380D02*
X114538095Y-97752380D01*
X114823809Y-97752380D02*
X114823809Y-96752380D01*
X114728571Y-96895238D01*
X114633333Y-96990476D01*
X114538095Y-97038095D01*
X116061904Y-97752380D02*
X115490476Y-97752380D01*
X115776190Y-97752380D02*
X115776190Y-96752380D01*
X115680952Y-96895238D01*
X115585714Y-96990476D01*
X115490476Y-97038095D01*
X115109523Y-99752380D02*
X114538095Y-99752380D01*
X114823809Y-99752380D02*
X114823809Y-98752380D01*
X114728571Y-98895238D01*
X114633333Y-98990476D01*
X114538095Y-99038095D01*
X115442857Y-98752380D02*
X116061904Y-98752380D01*
X115728571Y-99133333D01*
X115871428Y-99133333D01*
X115966666Y-99180952D01*
X116014285Y-99228571D01*
X116061904Y-99323809D01*
X116061904Y-99561904D01*
X116014285Y-99657142D01*
X115966666Y-99704761D01*
X115871428Y-99752380D01*
X115585714Y-99752380D01*
X115490476Y-99704761D01*
X115442857Y-99657142D01*
X115109523Y-101752380D02*
X114538095Y-101752380D01*
X114823809Y-101752380D02*
X114823809Y-100752380D01*
X114728571Y-100895238D01*
X114633333Y-100990476D01*
X114538095Y-101038095D01*
X116014285Y-100752380D02*
X115538095Y-100752380D01*
X115490476Y-101228571D01*
X115538095Y-101180952D01*
X115633333Y-101133333D01*
X115871428Y-101133333D01*
X115966666Y-101180952D01*
X116014285Y-101228571D01*
X116061904Y-101323809D01*
X116061904Y-101561904D01*
X116014285Y-101657142D01*
X115966666Y-101704761D01*
X115871428Y-101752380D01*
X115633333Y-101752380D01*
X115538095Y-101704761D01*
X115490476Y-101657142D01*
X115109523Y-103752380D02*
X114538095Y-103752380D01*
X114823809Y-103752380D02*
X114823809Y-102752380D01*
X114728571Y-102895238D01*
X114633333Y-102990476D01*
X114538095Y-103038095D01*
X115442857Y-102752380D02*
X116109523Y-102752380D01*
X115680952Y-103752380D01*
X115109523Y-105752380D02*
X114538095Y-105752380D01*
X114823809Y-105752380D02*
X114823809Y-104752380D01*
X114728571Y-104895238D01*
X114633333Y-104990476D01*
X114538095Y-105038095D01*
X115585714Y-105752380D02*
X115776190Y-105752380D01*
X115871428Y-105704761D01*
X115919047Y-105657142D01*
X116014285Y-105514285D01*
X116061904Y-105323809D01*
X116061904Y-104942857D01*
X116014285Y-104847619D01*
X115966666Y-104800000D01*
X115871428Y-104752380D01*
X115680952Y-104752380D01*
X115585714Y-104800000D01*
X115538095Y-104847619D01*
X115490476Y-104942857D01*
X115490476Y-105180952D01*
X115538095Y-105276190D01*
X115585714Y-105323809D01*
X115680952Y-105371428D01*
X115871428Y-105371428D01*
X115966666Y-105323809D01*
X116014285Y-105276190D01*
X116061904Y-105180952D01*
X114538095Y-106847619D02*
X114585714Y-106800000D01*
X114680952Y-106752380D01*
X114919047Y-106752380D01*
X115014285Y-106800000D01*
X115061904Y-106847619D01*
X115109523Y-106942857D01*
X115109523Y-107038095D01*
X115061904Y-107180952D01*
X114490476Y-107752380D01*
X115109523Y-107752380D01*
X116061904Y-107752380D02*
X115490476Y-107752380D01*
X115776190Y-107752380D02*
X115776190Y-106752380D01*
X115680952Y-106895238D01*
X115585714Y-106990476D01*
X115490476Y-107038095D01*
X110214285Y-87847619D02*
X110261904Y-87800000D01*
X110357142Y-87752380D01*
X110595238Y-87752380D01*
X110690476Y-87800000D01*
X110738095Y-87847619D01*
X110785714Y-87942857D01*
X110785714Y-88038095D01*
X110738095Y-88180952D01*
X110166666Y-88752380D01*
X110785714Y-88752380D01*
X110690476Y-90085714D02*
X110690476Y-90752380D01*
X110452380Y-89704761D02*
X110214285Y-90419047D01*
X110833333Y-90419047D01*
X110690476Y-91752380D02*
X110500000Y-91752380D01*
X110404761Y-91800000D01*
X110357142Y-91847619D01*
X110261904Y-91990476D01*
X110214285Y-92180952D01*
X110214285Y-92561904D01*
X110261904Y-92657142D01*
X110309523Y-92704761D01*
X110404761Y-92752380D01*
X110595238Y-92752380D01*
X110690476Y-92704761D01*
X110738095Y-92657142D01*
X110785714Y-92561904D01*
X110785714Y-92323809D01*
X110738095Y-92228571D01*
X110690476Y-92180952D01*
X110595238Y-92133333D01*
X110404761Y-92133333D01*
X110309523Y-92180952D01*
X110261904Y-92228571D01*
X110214285Y-92323809D01*
X110404761Y-94180952D02*
X110309523Y-94133333D01*
X110261904Y-94085714D01*
X110214285Y-93990476D01*
X110214285Y-93942857D01*
X110261904Y-93847619D01*
X110309523Y-93800000D01*
X110404761Y-93752380D01*
X110595238Y-93752380D01*
X110690476Y-93800000D01*
X110738095Y-93847619D01*
X110785714Y-93942857D01*
X110785714Y-93990476D01*
X110738095Y-94085714D01*
X110690476Y-94133333D01*
X110595238Y-94180952D01*
X110404761Y-94180952D01*
X110309523Y-94228571D01*
X110261904Y-94276190D01*
X110214285Y-94371428D01*
X110214285Y-94561904D01*
X110261904Y-94657142D01*
X110309523Y-94704761D01*
X110404761Y-94752380D01*
X110595238Y-94752380D01*
X110690476Y-94704761D01*
X110738095Y-94657142D01*
X110785714Y-94561904D01*
X110785714Y-94371428D01*
X110738095Y-94276190D01*
X110690476Y-94228571D01*
X110595238Y-94180952D01*
X109909523Y-96752380D02*
X109338095Y-96752380D01*
X109623809Y-96752380D02*
X109623809Y-95752380D01*
X109528571Y-95895238D01*
X109433333Y-95990476D01*
X109338095Y-96038095D01*
X110528571Y-95752380D02*
X110623809Y-95752380D01*
X110719047Y-95800000D01*
X110766666Y-95847619D01*
X110814285Y-95942857D01*
X110861904Y-96133333D01*
X110861904Y-96371428D01*
X110814285Y-96561904D01*
X110766666Y-96657142D01*
X110719047Y-96704761D01*
X110623809Y-96752380D01*
X110528571Y-96752380D01*
X110433333Y-96704761D01*
X110385714Y-96657142D01*
X110338095Y-96561904D01*
X110290476Y-96371428D01*
X110290476Y-96133333D01*
X110338095Y-95942857D01*
X110385714Y-95847619D01*
X110433333Y-95800000D01*
X110528571Y-95752380D01*
X109909523Y-98752380D02*
X109338095Y-98752380D01*
X109623809Y-98752380D02*
X109623809Y-97752380D01*
X109528571Y-97895238D01*
X109433333Y-97990476D01*
X109338095Y-98038095D01*
X110290476Y-97847619D02*
X110338095Y-97800000D01*
X110433333Y-97752380D01*
X110671428Y-97752380D01*
X110766666Y-97800000D01*
X110814285Y-97847619D01*
X110861904Y-97942857D01*
X110861904Y-98038095D01*
X110814285Y-98180952D01*
X110242857Y-98752380D01*
X110861904Y-98752380D01*
X109909523Y-100752380D02*
X109338095Y-100752380D01*
X109623809Y-100752380D02*
X109623809Y-99752380D01*
X109528571Y-99895238D01*
X109433333Y-99990476D01*
X109338095Y-100038095D01*
X110766666Y-100085714D02*
X110766666Y-100752380D01*
X110528571Y-99704761D02*
X110290476Y-100419047D01*
X110909523Y-100419047D01*
%TO.C,REF\u002A\u002A*%
X153892380Y-126333333D02*
X153416190Y-126666666D01*
X153892380Y-126904761D02*
X152892380Y-126904761D01*
X152892380Y-126523809D01*
X152940000Y-126428571D01*
X152987619Y-126380952D01*
X153082857Y-126333333D01*
X153225714Y-126333333D01*
X153320952Y-126380952D01*
X153368571Y-126428571D01*
X153416190Y-126523809D01*
X153416190Y-126904761D01*
X153368571Y-125904761D02*
X153368571Y-125571428D01*
X153892380Y-125428571D02*
X153892380Y-125904761D01*
X152892380Y-125904761D01*
X152892380Y-125428571D01*
X153368571Y-124666666D02*
X153368571Y-125000000D01*
X153892380Y-125000000D02*
X152892380Y-125000000D01*
X152892380Y-124523809D01*
X152892380Y-124000000D02*
X153130476Y-124000000D01*
X153035238Y-124238095D02*
X153130476Y-124000000D01*
X153035238Y-123761904D01*
X153320952Y-124142857D02*
X153130476Y-124000000D01*
X153320952Y-123857142D01*
X152892380Y-123238095D02*
X153130476Y-123238095D01*
X153035238Y-123476190D02*
X153130476Y-123238095D01*
X153035238Y-123000000D01*
X153320952Y-123380952D02*
X153130476Y-123238095D01*
X153320952Y-123095238D01*
X153892380Y-71333333D02*
X153416190Y-71666666D01*
X153892380Y-71904761D02*
X152892380Y-71904761D01*
X152892380Y-71523809D01*
X152940000Y-71428571D01*
X152987619Y-71380952D01*
X153082857Y-71333333D01*
X153225714Y-71333333D01*
X153320952Y-71380952D01*
X153368571Y-71428571D01*
X153416190Y-71523809D01*
X153416190Y-71904761D01*
X153368571Y-70904761D02*
X153368571Y-70571428D01*
X153892380Y-70428571D02*
X153892380Y-70904761D01*
X152892380Y-70904761D01*
X152892380Y-70428571D01*
X153368571Y-69666666D02*
X153368571Y-70000000D01*
X153892380Y-70000000D02*
X152892380Y-70000000D01*
X152892380Y-69523809D01*
X152892380Y-69000000D02*
X153130476Y-69000000D01*
X153035238Y-69238095D02*
X153130476Y-69000000D01*
X153035238Y-68761904D01*
X153320952Y-69142857D02*
X153130476Y-69000000D01*
X153320952Y-68857142D01*
X152892380Y-68238095D02*
X153130476Y-68238095D01*
X153035238Y-68476190D02*
X153130476Y-68238095D01*
X153035238Y-68000000D01*
X153320952Y-68380952D02*
X153130476Y-68238095D01*
X153320952Y-68095238D01*
X148666666Y-98892380D02*
X148333333Y-98416190D01*
X148095238Y-98892380D02*
X148095238Y-97892380D01*
X148476190Y-97892380D01*
X148571428Y-97940000D01*
X148619047Y-97987619D01*
X148666666Y-98082857D01*
X148666666Y-98225714D01*
X148619047Y-98320952D01*
X148571428Y-98368571D01*
X148476190Y-98416190D01*
X148095238Y-98416190D01*
X149095238Y-98368571D02*
X149428571Y-98368571D01*
X149571428Y-98892380D02*
X149095238Y-98892380D01*
X149095238Y-97892380D01*
X149571428Y-97892380D01*
X150333333Y-98368571D02*
X150000000Y-98368571D01*
X150000000Y-98892380D02*
X150000000Y-97892380D01*
X150476190Y-97892380D01*
X151000000Y-97892380D02*
X151000000Y-98130476D01*
X150761904Y-98035238D02*
X151000000Y-98130476D01*
X151238095Y-98035238D01*
X150857142Y-98320952D02*
X151000000Y-98130476D01*
X151142857Y-98320952D01*
X151761904Y-97892380D02*
X151761904Y-98130476D01*
X151523809Y-98035238D02*
X151761904Y-98130476D01*
X152000000Y-98035238D01*
X151619047Y-98320952D02*
X151761904Y-98130476D01*
X151904761Y-98320952D01*
X143666666Y-98892380D02*
X143333333Y-98416190D01*
X143095238Y-98892380D02*
X143095238Y-97892380D01*
X143476190Y-97892380D01*
X143571428Y-97940000D01*
X143619047Y-97987619D01*
X143666666Y-98082857D01*
X143666666Y-98225714D01*
X143619047Y-98320952D01*
X143571428Y-98368571D01*
X143476190Y-98416190D01*
X143095238Y-98416190D01*
X144095238Y-98368571D02*
X144428571Y-98368571D01*
X144571428Y-98892380D02*
X144095238Y-98892380D01*
X144095238Y-97892380D01*
X144571428Y-97892380D01*
X145333333Y-98368571D02*
X145000000Y-98368571D01*
X145000000Y-98892380D02*
X145000000Y-97892380D01*
X145476190Y-97892380D01*
X146000000Y-97892380D02*
X146000000Y-98130476D01*
X145761904Y-98035238D02*
X146000000Y-98130476D01*
X146238095Y-98035238D01*
X145857142Y-98320952D02*
X146000000Y-98130476D01*
X146142857Y-98320952D01*
X146761904Y-97892380D02*
X146761904Y-98130476D01*
X146523809Y-98035238D02*
X146761904Y-98130476D01*
X147000000Y-98035238D01*
X146619047Y-98320952D02*
X146761904Y-98130476D01*
X146904761Y-98320952D01*
%TO.C,J2*%
X132066666Y-67522380D02*
X132066666Y-68236666D01*
X132019047Y-68379523D01*
X131923809Y-68474761D01*
X131780952Y-68522380D01*
X131685714Y-68522380D01*
X132495238Y-67617619D02*
X132542857Y-67570000D01*
X132638095Y-67522380D01*
X132876190Y-67522380D01*
X132971428Y-67570000D01*
X133019047Y-67617619D01*
X133066666Y-67712857D01*
X133066666Y-67808095D01*
X133019047Y-67950952D01*
X132447619Y-68522380D01*
X133066666Y-68522380D01*
X134178095Y-123287619D02*
X134225714Y-123240000D01*
X134320952Y-123192380D01*
X134559047Y-123192380D01*
X134654285Y-123240000D01*
X134701904Y-123287619D01*
X134749523Y-123382857D01*
X134749523Y-123478095D01*
X134701904Y-123620952D01*
X134130476Y-124192380D01*
X134749523Y-124192380D01*
X135130476Y-123287619D02*
X135178095Y-123240000D01*
X135273333Y-123192380D01*
X135511428Y-123192380D01*
X135606666Y-123240000D01*
X135654285Y-123287619D01*
X135701904Y-123382857D01*
X135701904Y-123478095D01*
X135654285Y-123620952D01*
X135082857Y-124192380D01*
X135701904Y-124192380D01*
X134178095Y-120747619D02*
X134225714Y-120700000D01*
X134320952Y-120652380D01*
X134559047Y-120652380D01*
X134654285Y-120700000D01*
X134701904Y-120747619D01*
X134749523Y-120842857D01*
X134749523Y-120938095D01*
X134701904Y-121080952D01*
X134130476Y-121652380D01*
X134749523Y-121652380D01*
X135701904Y-121652380D02*
X135130476Y-121652380D01*
X135416190Y-121652380D02*
X135416190Y-120652380D01*
X135320952Y-120795238D01*
X135225714Y-120890476D01*
X135130476Y-120938095D01*
X134178095Y-118207619D02*
X134225714Y-118160000D01*
X134320952Y-118112380D01*
X134559047Y-118112380D01*
X134654285Y-118160000D01*
X134701904Y-118207619D01*
X134749523Y-118302857D01*
X134749523Y-118398095D01*
X134701904Y-118540952D01*
X134130476Y-119112380D01*
X134749523Y-119112380D01*
X135368571Y-118112380D02*
X135463809Y-118112380D01*
X135559047Y-118160000D01*
X135606666Y-118207619D01*
X135654285Y-118302857D01*
X135701904Y-118493333D01*
X135701904Y-118731428D01*
X135654285Y-118921904D01*
X135606666Y-119017142D01*
X135559047Y-119064761D01*
X135463809Y-119112380D01*
X135368571Y-119112380D01*
X135273333Y-119064761D01*
X135225714Y-119017142D01*
X135178095Y-118921904D01*
X135130476Y-118731428D01*
X135130476Y-118493333D01*
X135178095Y-118302857D01*
X135225714Y-118207619D01*
X135273333Y-118160000D01*
X135368571Y-118112380D01*
X134749523Y-116572380D02*
X134178095Y-116572380D01*
X134463809Y-116572380D02*
X134463809Y-115572380D01*
X134368571Y-115715238D01*
X134273333Y-115810476D01*
X134178095Y-115858095D01*
X135225714Y-116572380D02*
X135416190Y-116572380D01*
X135511428Y-116524761D01*
X135559047Y-116477142D01*
X135654285Y-116334285D01*
X135701904Y-116143809D01*
X135701904Y-115762857D01*
X135654285Y-115667619D01*
X135606666Y-115620000D01*
X135511428Y-115572380D01*
X135320952Y-115572380D01*
X135225714Y-115620000D01*
X135178095Y-115667619D01*
X135130476Y-115762857D01*
X135130476Y-116000952D01*
X135178095Y-116096190D01*
X135225714Y-116143809D01*
X135320952Y-116191428D01*
X135511428Y-116191428D01*
X135606666Y-116143809D01*
X135654285Y-116096190D01*
X135701904Y-116000952D01*
X134749523Y-114032380D02*
X134178095Y-114032380D01*
X134463809Y-114032380D02*
X134463809Y-113032380D01*
X134368571Y-113175238D01*
X134273333Y-113270476D01*
X134178095Y-113318095D01*
X135320952Y-113460952D02*
X135225714Y-113413333D01*
X135178095Y-113365714D01*
X135130476Y-113270476D01*
X135130476Y-113222857D01*
X135178095Y-113127619D01*
X135225714Y-113080000D01*
X135320952Y-113032380D01*
X135511428Y-113032380D01*
X135606666Y-113080000D01*
X135654285Y-113127619D01*
X135701904Y-113222857D01*
X135701904Y-113270476D01*
X135654285Y-113365714D01*
X135606666Y-113413333D01*
X135511428Y-113460952D01*
X135320952Y-113460952D01*
X135225714Y-113508571D01*
X135178095Y-113556190D01*
X135130476Y-113651428D01*
X135130476Y-113841904D01*
X135178095Y-113937142D01*
X135225714Y-113984761D01*
X135320952Y-114032380D01*
X135511428Y-114032380D01*
X135606666Y-113984761D01*
X135654285Y-113937142D01*
X135701904Y-113841904D01*
X135701904Y-113651428D01*
X135654285Y-113556190D01*
X135606666Y-113508571D01*
X135511428Y-113460952D01*
X134749523Y-111492380D02*
X134178095Y-111492380D01*
X134463809Y-111492380D02*
X134463809Y-110492380D01*
X134368571Y-110635238D01*
X134273333Y-110730476D01*
X134178095Y-110778095D01*
X135082857Y-110492380D02*
X135749523Y-110492380D01*
X135320952Y-111492380D01*
X134749523Y-108952380D02*
X134178095Y-108952380D01*
X134463809Y-108952380D02*
X134463809Y-107952380D01*
X134368571Y-108095238D01*
X134273333Y-108190476D01*
X134178095Y-108238095D01*
X135606666Y-107952380D02*
X135416190Y-107952380D01*
X135320952Y-108000000D01*
X135273333Y-108047619D01*
X135178095Y-108190476D01*
X135130476Y-108380952D01*
X135130476Y-108761904D01*
X135178095Y-108857142D01*
X135225714Y-108904761D01*
X135320952Y-108952380D01*
X135511428Y-108952380D01*
X135606666Y-108904761D01*
X135654285Y-108857142D01*
X135701904Y-108761904D01*
X135701904Y-108523809D01*
X135654285Y-108428571D01*
X135606666Y-108380952D01*
X135511428Y-108333333D01*
X135320952Y-108333333D01*
X135225714Y-108380952D01*
X135178095Y-108428571D01*
X135130476Y-108523809D01*
X134749523Y-106412380D02*
X134178095Y-106412380D01*
X134463809Y-106412380D02*
X134463809Y-105412380D01*
X134368571Y-105555238D01*
X134273333Y-105650476D01*
X134178095Y-105698095D01*
X135654285Y-105412380D02*
X135178095Y-105412380D01*
X135130476Y-105888571D01*
X135178095Y-105840952D01*
X135273333Y-105793333D01*
X135511428Y-105793333D01*
X135606666Y-105840952D01*
X135654285Y-105888571D01*
X135701904Y-105983809D01*
X135701904Y-106221904D01*
X135654285Y-106317142D01*
X135606666Y-106364761D01*
X135511428Y-106412380D01*
X135273333Y-106412380D01*
X135178095Y-106364761D01*
X135130476Y-106317142D01*
X134749523Y-103872380D02*
X134178095Y-103872380D01*
X134463809Y-103872380D02*
X134463809Y-102872380D01*
X134368571Y-103015238D01*
X134273333Y-103110476D01*
X134178095Y-103158095D01*
X135606666Y-103205714D02*
X135606666Y-103872380D01*
X135368571Y-102824761D02*
X135130476Y-103539047D01*
X135749523Y-103539047D01*
X134749523Y-101332380D02*
X134178095Y-101332380D01*
X134463809Y-101332380D02*
X134463809Y-100332380D01*
X134368571Y-100475238D01*
X134273333Y-100570476D01*
X134178095Y-100618095D01*
X135082857Y-100332380D02*
X135701904Y-100332380D01*
X135368571Y-100713333D01*
X135511428Y-100713333D01*
X135606666Y-100760952D01*
X135654285Y-100808571D01*
X135701904Y-100903809D01*
X135701904Y-101141904D01*
X135654285Y-101237142D01*
X135606666Y-101284761D01*
X135511428Y-101332380D01*
X135225714Y-101332380D01*
X135130476Y-101284761D01*
X135082857Y-101237142D01*
X134749523Y-98792380D02*
X134178095Y-98792380D01*
X134463809Y-98792380D02*
X134463809Y-97792380D01*
X134368571Y-97935238D01*
X134273333Y-98030476D01*
X134178095Y-98078095D01*
X135130476Y-97887619D02*
X135178095Y-97840000D01*
X135273333Y-97792380D01*
X135511428Y-97792380D01*
X135606666Y-97840000D01*
X135654285Y-97887619D01*
X135701904Y-97982857D01*
X135701904Y-98078095D01*
X135654285Y-98220952D01*
X135082857Y-98792380D01*
X135701904Y-98792380D01*
X134749523Y-96252380D02*
X134178095Y-96252380D01*
X134463809Y-96252380D02*
X134463809Y-95252380D01*
X134368571Y-95395238D01*
X134273333Y-95490476D01*
X134178095Y-95538095D01*
X135701904Y-96252380D02*
X135130476Y-96252380D01*
X135416190Y-96252380D02*
X135416190Y-95252380D01*
X135320952Y-95395238D01*
X135225714Y-95490476D01*
X135130476Y-95538095D01*
X134749523Y-93712380D02*
X134178095Y-93712380D01*
X134463809Y-93712380D02*
X134463809Y-92712380D01*
X134368571Y-92855238D01*
X134273333Y-92950476D01*
X134178095Y-92998095D01*
X135368571Y-92712380D02*
X135463809Y-92712380D01*
X135559047Y-92760000D01*
X135606666Y-92807619D01*
X135654285Y-92902857D01*
X135701904Y-93093333D01*
X135701904Y-93331428D01*
X135654285Y-93521904D01*
X135606666Y-93617142D01*
X135559047Y-93664761D01*
X135463809Y-93712380D01*
X135368571Y-93712380D01*
X135273333Y-93664761D01*
X135225714Y-93617142D01*
X135178095Y-93521904D01*
X135130476Y-93331428D01*
X135130476Y-93093333D01*
X135178095Y-92902857D01*
X135225714Y-92807619D01*
X135273333Y-92760000D01*
X135368571Y-92712380D01*
X134749523Y-91172380D02*
X134940000Y-91172380D01*
X135035238Y-91124761D01*
X135082857Y-91077142D01*
X135178095Y-90934285D01*
X135225714Y-90743809D01*
X135225714Y-90362857D01*
X135178095Y-90267619D01*
X135130476Y-90220000D01*
X135035238Y-90172380D01*
X134844761Y-90172380D01*
X134749523Y-90220000D01*
X134701904Y-90267619D01*
X134654285Y-90362857D01*
X134654285Y-90600952D01*
X134701904Y-90696190D01*
X134749523Y-90743809D01*
X134844761Y-90791428D01*
X135035238Y-90791428D01*
X135130476Y-90743809D01*
X135178095Y-90696190D01*
X135225714Y-90600952D01*
X134844761Y-88060952D02*
X134749523Y-88013333D01*
X134701904Y-87965714D01*
X134654285Y-87870476D01*
X134654285Y-87822857D01*
X134701904Y-87727619D01*
X134749523Y-87680000D01*
X134844761Y-87632380D01*
X135035238Y-87632380D01*
X135130476Y-87680000D01*
X135178095Y-87727619D01*
X135225714Y-87822857D01*
X135225714Y-87870476D01*
X135178095Y-87965714D01*
X135130476Y-88013333D01*
X135035238Y-88060952D01*
X134844761Y-88060952D01*
X134749523Y-88108571D01*
X134701904Y-88156190D01*
X134654285Y-88251428D01*
X134654285Y-88441904D01*
X134701904Y-88537142D01*
X134749523Y-88584761D01*
X134844761Y-88632380D01*
X135035238Y-88632380D01*
X135130476Y-88584761D01*
X135178095Y-88537142D01*
X135225714Y-88441904D01*
X135225714Y-88251428D01*
X135178095Y-88156190D01*
X135130476Y-88108571D01*
X135035238Y-88060952D01*
X134606666Y-85092380D02*
X135273333Y-85092380D01*
X134844761Y-86092380D01*
X135130476Y-82552380D02*
X134940000Y-82552380D01*
X134844761Y-82600000D01*
X134797142Y-82647619D01*
X134701904Y-82790476D01*
X134654285Y-82980952D01*
X134654285Y-83361904D01*
X134701904Y-83457142D01*
X134749523Y-83504761D01*
X134844761Y-83552380D01*
X135035238Y-83552380D01*
X135130476Y-83504761D01*
X135178095Y-83457142D01*
X135225714Y-83361904D01*
X135225714Y-83123809D01*
X135178095Y-83028571D01*
X135130476Y-82980952D01*
X135035238Y-82933333D01*
X134844761Y-82933333D01*
X134749523Y-82980952D01*
X134701904Y-83028571D01*
X134654285Y-83123809D01*
X135178095Y-80012380D02*
X134701904Y-80012380D01*
X134654285Y-80488571D01*
X134701904Y-80440952D01*
X134797142Y-80393333D01*
X135035238Y-80393333D01*
X135130476Y-80440952D01*
X135178095Y-80488571D01*
X135225714Y-80583809D01*
X135225714Y-80821904D01*
X135178095Y-80917142D01*
X135130476Y-80964761D01*
X135035238Y-81012380D01*
X134797142Y-81012380D01*
X134701904Y-80964761D01*
X134654285Y-80917142D01*
X135130476Y-77805714D02*
X135130476Y-78472380D01*
X134892380Y-77424761D02*
X134654285Y-78139047D01*
X135273333Y-78139047D01*
X134606666Y-74932380D02*
X135225714Y-74932380D01*
X134892380Y-75313333D01*
X135035238Y-75313333D01*
X135130476Y-75360952D01*
X135178095Y-75408571D01*
X135225714Y-75503809D01*
X135225714Y-75741904D01*
X135178095Y-75837142D01*
X135130476Y-75884761D01*
X135035238Y-75932380D01*
X134749523Y-75932380D01*
X134654285Y-75884761D01*
X134606666Y-75837142D01*
X134654285Y-72487619D02*
X134701904Y-72440000D01*
X134797142Y-72392380D01*
X135035238Y-72392380D01*
X135130476Y-72440000D01*
X135178095Y-72487619D01*
X135225714Y-72582857D01*
X135225714Y-72678095D01*
X135178095Y-72820952D01*
X134606666Y-73392380D01*
X135225714Y-73392380D01*
X135225714Y-70852380D02*
X134654285Y-70852380D01*
X134940000Y-70852380D02*
X134940000Y-69852380D01*
X134844761Y-69995238D01*
X134749523Y-70090476D01*
X134654285Y-70138095D01*
%TO.C,J3*%
X164666666Y-97122380D02*
X164666666Y-97836666D01*
X164619047Y-97979523D01*
X164523809Y-98074761D01*
X164380952Y-98122380D01*
X164285714Y-98122380D01*
X165047619Y-97122380D02*
X165666666Y-97122380D01*
X165333333Y-97503333D01*
X165476190Y-97503333D01*
X165571428Y-97550952D01*
X165619047Y-97598571D01*
X165666666Y-97693809D01*
X165666666Y-97931904D01*
X165619047Y-98027142D01*
X165571428Y-98074761D01*
X165476190Y-98122380D01*
X165190476Y-98122380D01*
X165095238Y-98074761D01*
X165047619Y-98027142D01*
%TD*%
M02*
