M48
; DRILL file {KiCad (5.1.10)-1} date 07/07/21 12:53:50
; FORMAT={-:-/ absolute / inch / decimal}
; #@! TF.CreationDate,2021-07-07T12:53:50+10:00
; #@! TF.GenerationSoftware,Kicad,Pcbnew,(5.1.10)-1
; #@! TF.FileFunction,Plated,1,2,PTH
FMAT,2
INCH
T1C0.0157
T2C0.0197
T3C0.0394
%
G90
G05
T1
X4.5276Y-3.1496
X4.5354Y-4.5276
X4.815Y-2.9291
X4.9173Y-4.8307
X5.0827Y-2.689
X5.5118Y-2.5591
X5.5118Y-2.9528
X5.5118Y-3.3465
X5.5118Y-3.7402
X5.5118Y-4.1339
X5.5118Y-4.5276
X5.5118Y-4.9213
X5.6343Y-2.8075
X5.6504Y-4.3276
X5.7016Y-2.7134
X5.8449Y-4.9528
X5.9055Y-4.5276
X5.9319Y-3.0933
X5.935Y-3.5728
X5.9358Y-2.7272
X5.985Y-4.6547
X6.1024Y-2.5591
X6.1024Y-3.3465
X6.1024Y-4.1339
T2
X5.6449Y-3.1669
X5.6843Y-3.1669
X5.7087Y-3.937
X5.7098Y-4.6882
X5.7236Y-3.1669
X5.7492Y-4.6882
X5.7886Y-4.6882
X5.9055Y-3.937
T3
X5.2126Y-2.7717
X5.2126Y-2.8717
X5.2126Y-2.9717
X5.2126Y-3.0717
X5.2126Y-3.1717
X5.2126Y-3.2717
X5.2126Y-3.3717
X5.2126Y-3.4717
X5.2126Y-3.5717
X5.2126Y-3.6717
X5.2126Y-3.7717
X5.2126Y-3.8717
X5.2126Y-3.9717
X5.2126Y-4.0717
X5.2126Y-4.1717
X5.2126Y-4.2717
X5.2126Y-4.3717
X5.2126Y-4.4717
X5.2126Y-4.5717
X5.2126Y-4.6717
X5.2126Y-4.7717
X5.2126Y-4.8717
X5.626Y-3.5539
T0
M30
