%TF.GenerationSoftware,KiCad,Pcbnew,(5.1.10)-1*%
%TF.CreationDate,2021-07-01T21:13:48+10:00*%
%TF.ProjectId,Converter,436f6e76-6572-4746-9572-2e6b69636164,rev?*%
%TF.SameCoordinates,Original*%
%TF.FileFunction,Copper,L2,Bot*%
%TF.FilePolarity,Positive*%
%FSLAX46Y46*%
G04 Gerber Fmt 4.6, Leading zero omitted, Abs format (unit mm)*
G04 Created by KiCad (PCBNEW (5.1.10)-1) date 2021-07-01 21:13:48*
%MOMM*%
%LPD*%
G01*
G04 APERTURE LIST*
%TA.AperFunction,ComponentPad*%
%ADD10R,0.850000X0.850000*%
%TD*%
%TA.AperFunction,ComponentPad*%
%ADD11O,0.850000X0.850000*%
%TD*%
%TA.AperFunction,ComponentPad*%
%ADD12O,1.700000X1.700000*%
%TD*%
%TA.AperFunction,ComponentPad*%
%ADD13R,1.700000X1.700000*%
%TD*%
%TA.AperFunction,ViaPad*%
%ADD14C,0.800000*%
%TD*%
%TA.AperFunction,Conductor*%
%ADD15C,0.254000*%
%TD*%
%TA.AperFunction,Conductor*%
%ADD16C,0.100000*%
%TD*%
G04 APERTURE END LIST*
D10*
%TO.P,REF\u002A\u002A,1*%
%TO.N,GND*%
X155000000Y-125000000D03*
D11*
%TO.P,REF\u002A\u002A,2*%
X156000000Y-125000000D03*
%TO.P,REF\u002A\u002A,3*%
X157000000Y-125000000D03*
%TD*%
D10*
%TO.P,REF\u002A\u002A,1*%
%TO.N,GND*%
X155000000Y-70000000D03*
D11*
%TO.P,REF\u002A\u002A,2*%
X156000000Y-70000000D03*
%TO.P,REF\u002A\u002A,3*%
X157000000Y-70000000D03*
%TD*%
D10*
%TO.P,REF\u002A\u002A,1*%
%TO.N,GND*%
X150000000Y-100000000D03*
%TD*%
%TO.P,REF\u002A\u002A,1*%
%TO.N,GND*%
X145000000Y-100000000D03*
%TD*%
D12*
%TO.P,J2,22*%
%TO.N,Net-(J1-Pad22)*%
X132400000Y-123740000D03*
%TO.P,J2,21*%
%TO.N,Net-(J1-Pad21)*%
X132400000Y-121200000D03*
%TO.P,J2,20*%
%TO.N,Net-(J1-Pad20)*%
X132400000Y-118660000D03*
%TO.P,J2,19*%
%TO.N,Net-(J1-Pad19)*%
X132400000Y-116120000D03*
%TO.P,J2,18*%
%TO.N,Net-(J1-Pad18)*%
X132400000Y-113580000D03*
%TO.P,J2,17*%
%TO.N,Net-(J1-Pad17)*%
X132400000Y-111040000D03*
%TO.P,J2,16*%
%TO.N,Net-(J1-Pad16)*%
X132400000Y-108500000D03*
%TO.P,J2,15*%
%TO.N,Net-(J1-Pad15)*%
X132400000Y-105960000D03*
%TO.P,J2,14*%
%TO.N,Net-(J1-Pad14)*%
X132400000Y-103420000D03*
%TO.P,J2,13*%
%TO.N,Net-(J1-Pad13)*%
X132400000Y-100880000D03*
%TO.P,J2,12*%
%TO.N,Net-(J1-Pad12)*%
X132400000Y-98340000D03*
%TO.P,J2,11*%
%TO.N,Net-(J1-Pad11)*%
X132400000Y-95800000D03*
%TO.P,J2,10*%
%TO.N,Net-(J1-Pad10)*%
X132400000Y-93260000D03*
%TO.P,J2,9*%
%TO.N,Net-(J1-Pad9)*%
X132400000Y-90720000D03*
%TO.P,J2,8*%
%TO.N,Net-(J1-Pad8)*%
X132400000Y-88180000D03*
%TO.P,J2,7*%
%TO.N,Net-(J1-Pad7)*%
X132400000Y-85640000D03*
%TO.P,J2,6*%
%TO.N,Net-(J1-Pad6)*%
X132400000Y-83100000D03*
%TO.P,J2,5*%
%TO.N,Net-(J1-Pad5)*%
X132400000Y-80560000D03*
%TO.P,J2,4*%
%TO.N,Net-(J1-Pad4)*%
X132400000Y-78020000D03*
%TO.P,J2,3*%
%TO.N,Net-(J1-Pad3)*%
X132400000Y-75480000D03*
%TO.P,J2,2*%
%TO.N,Net-(J1-Pad2)*%
X132400000Y-72940000D03*
D13*
%TO.P,J2,1*%
%TO.N,Net-(J1-Pad1)*%
X132400000Y-70400000D03*
%TD*%
%TO.P,J3,1*%
%TO.N,GND*%
X165000000Y-100000000D03*
%TD*%
D14*
%TO.N,*%
X165000000Y-125000000D03*
X120000000Y-125000000D03*
X120000000Y-70000000D03*
X115000000Y-80000000D03*
X115000000Y-70000000D03*
X115000000Y-115000000D03*
X140000000Y-125000000D03*
X140000000Y-115000000D03*
X140000000Y-105000000D03*
X140000000Y-95000000D03*
X140000000Y-85000000D03*
X140000000Y-75000000D03*
X140000000Y-65000000D03*
X155000000Y-65000000D03*
X155000000Y-75000000D03*
X155000000Y-85000000D03*
X155000000Y-95000000D03*
X155000000Y-105000000D03*
X150000000Y-115000000D03*
X150000000Y-75000000D03*
X160000000Y-80000000D03*
X165000000Y-70000000D03*
X165000000Y-95000000D03*
X165000000Y-110000000D03*
%TD*%
D15*
%TO.N,GND*%
X139004774Y-65301898D02*
X139082795Y-65490256D01*
X139196063Y-65659774D01*
X139340226Y-65803937D01*
X139509744Y-65917205D01*
X139698102Y-65995226D01*
X139898061Y-66035000D01*
X140101939Y-66035000D01*
X140301898Y-65995226D01*
X140490256Y-65917205D01*
X140659774Y-65803937D01*
X140803937Y-65659774D01*
X140917205Y-65490256D01*
X140995226Y-65301898D01*
X141030015Y-65127000D01*
X153969985Y-65127000D01*
X154004774Y-65301898D01*
X154082795Y-65490256D01*
X154196063Y-65659774D01*
X154340226Y-65803937D01*
X154509744Y-65917205D01*
X154698102Y-65995226D01*
X154898061Y-66035000D01*
X155101939Y-66035000D01*
X155301898Y-65995226D01*
X155490256Y-65917205D01*
X155659774Y-65803937D01*
X155803937Y-65659774D01*
X155917205Y-65490256D01*
X155995226Y-65301898D01*
X156030015Y-65127000D01*
X169873000Y-65127000D01*
X169873000Y-129873000D01*
X105127000Y-129873000D01*
X105127000Y-124898061D01*
X118965000Y-124898061D01*
X118965000Y-125101939D01*
X119004774Y-125301898D01*
X119082795Y-125490256D01*
X119196063Y-125659774D01*
X119340226Y-125803937D01*
X119509744Y-125917205D01*
X119698102Y-125995226D01*
X119898061Y-126035000D01*
X120101939Y-126035000D01*
X120301898Y-125995226D01*
X120490256Y-125917205D01*
X120659774Y-125803937D01*
X120803937Y-125659774D01*
X120917205Y-125490256D01*
X120995226Y-125301898D01*
X121035000Y-125101939D01*
X121035000Y-124898061D01*
X120995226Y-124698102D01*
X120917205Y-124509744D01*
X120803937Y-124340226D01*
X120659774Y-124196063D01*
X120490256Y-124082795D01*
X120301898Y-124004774D01*
X120101939Y-123965000D01*
X119898061Y-123965000D01*
X119698102Y-124004774D01*
X119509744Y-124082795D01*
X119340226Y-124196063D01*
X119196063Y-124340226D01*
X119082795Y-124509744D01*
X119004774Y-124698102D01*
X118965000Y-124898061D01*
X105127000Y-124898061D01*
X105127000Y-114898061D01*
X113965000Y-114898061D01*
X113965000Y-115101939D01*
X114004774Y-115301898D01*
X114082795Y-115490256D01*
X114196063Y-115659774D01*
X114340226Y-115803937D01*
X114509744Y-115917205D01*
X114698102Y-115995226D01*
X114898061Y-116035000D01*
X115101939Y-116035000D01*
X115301898Y-115995226D01*
X115490256Y-115917205D01*
X115659774Y-115803937D01*
X115803937Y-115659774D01*
X115917205Y-115490256D01*
X115995226Y-115301898D01*
X116035000Y-115101939D01*
X116035000Y-114898061D01*
X115995226Y-114698102D01*
X115917205Y-114509744D01*
X115803937Y-114340226D01*
X115659774Y-114196063D01*
X115490256Y-114082795D01*
X115301898Y-114004774D01*
X115101939Y-113965000D01*
X114898061Y-113965000D01*
X114698102Y-114004774D01*
X114509744Y-114082795D01*
X114340226Y-114196063D01*
X114196063Y-114340226D01*
X114082795Y-114509744D01*
X114004774Y-114698102D01*
X113965000Y-114898061D01*
X105127000Y-114898061D01*
X105127000Y-79898061D01*
X113965000Y-79898061D01*
X113965000Y-80101939D01*
X114004774Y-80301898D01*
X114082795Y-80490256D01*
X114196063Y-80659774D01*
X114340226Y-80803937D01*
X114509744Y-80917205D01*
X114698102Y-80995226D01*
X114898061Y-81035000D01*
X115101939Y-81035000D01*
X115301898Y-80995226D01*
X115490256Y-80917205D01*
X115659774Y-80803937D01*
X115803937Y-80659774D01*
X115917205Y-80490256D01*
X115995226Y-80301898D01*
X116035000Y-80101939D01*
X116035000Y-79898061D01*
X115995226Y-79698102D01*
X115917205Y-79509744D01*
X115803937Y-79340226D01*
X115659774Y-79196063D01*
X115490256Y-79082795D01*
X115301898Y-79004774D01*
X115101939Y-78965000D01*
X114898061Y-78965000D01*
X114698102Y-79004774D01*
X114509744Y-79082795D01*
X114340226Y-79196063D01*
X114196063Y-79340226D01*
X114082795Y-79509744D01*
X114004774Y-79698102D01*
X113965000Y-79898061D01*
X105127000Y-79898061D01*
X105127000Y-69898061D01*
X113965000Y-69898061D01*
X113965000Y-70101939D01*
X114004774Y-70301898D01*
X114082795Y-70490256D01*
X114196063Y-70659774D01*
X114340226Y-70803937D01*
X114509744Y-70917205D01*
X114698102Y-70995226D01*
X114898061Y-71035000D01*
X115101939Y-71035000D01*
X115301898Y-70995226D01*
X115490256Y-70917205D01*
X115659774Y-70803937D01*
X115803937Y-70659774D01*
X115917205Y-70490256D01*
X115995226Y-70301898D01*
X116035000Y-70101939D01*
X116035000Y-69898061D01*
X118965000Y-69898061D01*
X118965000Y-70101939D01*
X119004774Y-70301898D01*
X119082795Y-70490256D01*
X119196063Y-70659774D01*
X119340226Y-70803937D01*
X119509744Y-70917205D01*
X119698102Y-70995226D01*
X119898061Y-71035000D01*
X120101939Y-71035000D01*
X120301898Y-70995226D01*
X120490256Y-70917205D01*
X120659774Y-70803937D01*
X120803937Y-70659774D01*
X120917205Y-70490256D01*
X120995226Y-70301898D01*
X121035000Y-70101939D01*
X121035000Y-69898061D01*
X120995226Y-69698102D01*
X120933880Y-69550000D01*
X130911928Y-69550000D01*
X130911928Y-71250000D01*
X130924188Y-71374482D01*
X130960498Y-71494180D01*
X131019463Y-71604494D01*
X131098815Y-71701185D01*
X131195506Y-71780537D01*
X131305820Y-71839502D01*
X131378380Y-71861513D01*
X131246525Y-71993368D01*
X131084010Y-72236589D01*
X130972068Y-72506842D01*
X130915000Y-72793740D01*
X130915000Y-73086260D01*
X130972068Y-73373158D01*
X131084010Y-73643411D01*
X131246525Y-73886632D01*
X131453368Y-74093475D01*
X131627760Y-74210000D01*
X131453368Y-74326525D01*
X131246525Y-74533368D01*
X131084010Y-74776589D01*
X130972068Y-75046842D01*
X130915000Y-75333740D01*
X130915000Y-75626260D01*
X130972068Y-75913158D01*
X131084010Y-76183411D01*
X131246525Y-76426632D01*
X131453368Y-76633475D01*
X131627760Y-76750000D01*
X131453368Y-76866525D01*
X131246525Y-77073368D01*
X131084010Y-77316589D01*
X130972068Y-77586842D01*
X130915000Y-77873740D01*
X130915000Y-78166260D01*
X130972068Y-78453158D01*
X131084010Y-78723411D01*
X131246525Y-78966632D01*
X131453368Y-79173475D01*
X131627760Y-79290000D01*
X131453368Y-79406525D01*
X131246525Y-79613368D01*
X131084010Y-79856589D01*
X130972068Y-80126842D01*
X130915000Y-80413740D01*
X130915000Y-80706260D01*
X130972068Y-80993158D01*
X131084010Y-81263411D01*
X131246525Y-81506632D01*
X131453368Y-81713475D01*
X131627760Y-81830000D01*
X131453368Y-81946525D01*
X131246525Y-82153368D01*
X131084010Y-82396589D01*
X130972068Y-82666842D01*
X130915000Y-82953740D01*
X130915000Y-83246260D01*
X130972068Y-83533158D01*
X131084010Y-83803411D01*
X131246525Y-84046632D01*
X131453368Y-84253475D01*
X131627760Y-84370000D01*
X131453368Y-84486525D01*
X131246525Y-84693368D01*
X131084010Y-84936589D01*
X130972068Y-85206842D01*
X130915000Y-85493740D01*
X130915000Y-85786260D01*
X130972068Y-86073158D01*
X131084010Y-86343411D01*
X131246525Y-86586632D01*
X131453368Y-86793475D01*
X131627760Y-86910000D01*
X131453368Y-87026525D01*
X131246525Y-87233368D01*
X131084010Y-87476589D01*
X130972068Y-87746842D01*
X130915000Y-88033740D01*
X130915000Y-88326260D01*
X130972068Y-88613158D01*
X131084010Y-88883411D01*
X131246525Y-89126632D01*
X131453368Y-89333475D01*
X131627760Y-89450000D01*
X131453368Y-89566525D01*
X131246525Y-89773368D01*
X131084010Y-90016589D01*
X130972068Y-90286842D01*
X130915000Y-90573740D01*
X130915000Y-90866260D01*
X130972068Y-91153158D01*
X131084010Y-91423411D01*
X131246525Y-91666632D01*
X131453368Y-91873475D01*
X131627760Y-91990000D01*
X131453368Y-92106525D01*
X131246525Y-92313368D01*
X131084010Y-92556589D01*
X130972068Y-92826842D01*
X130915000Y-93113740D01*
X130915000Y-93406260D01*
X130972068Y-93693158D01*
X131084010Y-93963411D01*
X131246525Y-94206632D01*
X131453368Y-94413475D01*
X131627760Y-94530000D01*
X131453368Y-94646525D01*
X131246525Y-94853368D01*
X131084010Y-95096589D01*
X130972068Y-95366842D01*
X130915000Y-95653740D01*
X130915000Y-95946260D01*
X130972068Y-96233158D01*
X131084010Y-96503411D01*
X131246525Y-96746632D01*
X131453368Y-96953475D01*
X131627760Y-97070000D01*
X131453368Y-97186525D01*
X131246525Y-97393368D01*
X131084010Y-97636589D01*
X130972068Y-97906842D01*
X130915000Y-98193740D01*
X130915000Y-98486260D01*
X130972068Y-98773158D01*
X131084010Y-99043411D01*
X131246525Y-99286632D01*
X131453368Y-99493475D01*
X131627760Y-99610000D01*
X131453368Y-99726525D01*
X131246525Y-99933368D01*
X131084010Y-100176589D01*
X130972068Y-100446842D01*
X130915000Y-100733740D01*
X130915000Y-101026260D01*
X130972068Y-101313158D01*
X131084010Y-101583411D01*
X131246525Y-101826632D01*
X131453368Y-102033475D01*
X131627760Y-102150000D01*
X131453368Y-102266525D01*
X131246525Y-102473368D01*
X131084010Y-102716589D01*
X130972068Y-102986842D01*
X130915000Y-103273740D01*
X130915000Y-103566260D01*
X130972068Y-103853158D01*
X131084010Y-104123411D01*
X131246525Y-104366632D01*
X131453368Y-104573475D01*
X131627760Y-104690000D01*
X131453368Y-104806525D01*
X131246525Y-105013368D01*
X131084010Y-105256589D01*
X130972068Y-105526842D01*
X130915000Y-105813740D01*
X130915000Y-106106260D01*
X130972068Y-106393158D01*
X131084010Y-106663411D01*
X131246525Y-106906632D01*
X131453368Y-107113475D01*
X131627760Y-107230000D01*
X131453368Y-107346525D01*
X131246525Y-107553368D01*
X131084010Y-107796589D01*
X130972068Y-108066842D01*
X130915000Y-108353740D01*
X130915000Y-108646260D01*
X130972068Y-108933158D01*
X131084010Y-109203411D01*
X131246525Y-109446632D01*
X131453368Y-109653475D01*
X131627760Y-109770000D01*
X131453368Y-109886525D01*
X131246525Y-110093368D01*
X131084010Y-110336589D01*
X130972068Y-110606842D01*
X130915000Y-110893740D01*
X130915000Y-111186260D01*
X130972068Y-111473158D01*
X131084010Y-111743411D01*
X131246525Y-111986632D01*
X131453368Y-112193475D01*
X131627760Y-112310000D01*
X131453368Y-112426525D01*
X131246525Y-112633368D01*
X131084010Y-112876589D01*
X130972068Y-113146842D01*
X130915000Y-113433740D01*
X130915000Y-113726260D01*
X130972068Y-114013158D01*
X131084010Y-114283411D01*
X131246525Y-114526632D01*
X131453368Y-114733475D01*
X131627760Y-114850000D01*
X131453368Y-114966525D01*
X131246525Y-115173368D01*
X131084010Y-115416589D01*
X130972068Y-115686842D01*
X130915000Y-115973740D01*
X130915000Y-116266260D01*
X130972068Y-116553158D01*
X131084010Y-116823411D01*
X131246525Y-117066632D01*
X131453368Y-117273475D01*
X131627760Y-117390000D01*
X131453368Y-117506525D01*
X131246525Y-117713368D01*
X131084010Y-117956589D01*
X130972068Y-118226842D01*
X130915000Y-118513740D01*
X130915000Y-118806260D01*
X130972068Y-119093158D01*
X131084010Y-119363411D01*
X131246525Y-119606632D01*
X131453368Y-119813475D01*
X131627760Y-119930000D01*
X131453368Y-120046525D01*
X131246525Y-120253368D01*
X131084010Y-120496589D01*
X130972068Y-120766842D01*
X130915000Y-121053740D01*
X130915000Y-121346260D01*
X130972068Y-121633158D01*
X131084010Y-121903411D01*
X131246525Y-122146632D01*
X131453368Y-122353475D01*
X131627760Y-122470000D01*
X131453368Y-122586525D01*
X131246525Y-122793368D01*
X131084010Y-123036589D01*
X130972068Y-123306842D01*
X130915000Y-123593740D01*
X130915000Y-123886260D01*
X130972068Y-124173158D01*
X131084010Y-124443411D01*
X131246525Y-124686632D01*
X131453368Y-124893475D01*
X131696589Y-125055990D01*
X131966842Y-125167932D01*
X132253740Y-125225000D01*
X132546260Y-125225000D01*
X132833158Y-125167932D01*
X133103411Y-125055990D01*
X133339768Y-124898061D01*
X138965000Y-124898061D01*
X138965000Y-125101939D01*
X139004774Y-125301898D01*
X139082795Y-125490256D01*
X139196063Y-125659774D01*
X139340226Y-125803937D01*
X139509744Y-125917205D01*
X139698102Y-125995226D01*
X139898061Y-126035000D01*
X140101939Y-126035000D01*
X140301898Y-125995226D01*
X140490256Y-125917205D01*
X140659774Y-125803937D01*
X140803937Y-125659774D01*
X140917205Y-125490256D01*
X140944235Y-125425000D01*
X153936928Y-125425000D01*
X153949188Y-125549482D01*
X153985498Y-125669180D01*
X154044463Y-125779494D01*
X154123815Y-125876185D01*
X154220506Y-125955537D01*
X154330820Y-126014502D01*
X154450518Y-126050812D01*
X154575000Y-126063072D01*
X154714250Y-126060000D01*
X154873000Y-125901250D01*
X154873000Y-125290064D01*
X154980453Y-125290064D01*
X155056632Y-125483394D01*
X155127000Y-125592768D01*
X155127000Y-125901250D01*
X155285750Y-126060000D01*
X155425000Y-126063072D01*
X155549482Y-126050812D01*
X155669180Y-126014502D01*
X155677917Y-126009832D01*
X155709938Y-126019540D01*
X155873000Y-125892257D01*
X155873000Y-125878799D01*
X155876185Y-125876185D01*
X155955537Y-125779494D01*
X156014502Y-125669180D01*
X156050812Y-125549482D01*
X156057229Y-125484323D01*
X156127000Y-125592768D01*
X156127000Y-125892257D01*
X156290062Y-126019540D01*
X156325250Y-126008872D01*
X156500000Y-125932912D01*
X156674750Y-126008872D01*
X156709938Y-126019540D01*
X156873000Y-125892257D01*
X156873000Y-125592768D01*
X156943368Y-125483394D01*
X157019547Y-125290064D01*
X156893621Y-125127000D01*
X157127000Y-125127000D01*
X157127000Y-125892257D01*
X157290062Y-126019540D01*
X157325250Y-126008872D01*
X157515822Y-125926034D01*
X157686571Y-125807609D01*
X157830936Y-125658148D01*
X157943368Y-125483394D01*
X158019547Y-125290064D01*
X157893621Y-125127000D01*
X157127000Y-125127000D01*
X156893621Y-125127000D01*
X156106379Y-125127000D01*
X156016995Y-125242745D01*
X155901250Y-125127000D01*
X155106379Y-125127000D01*
X154980453Y-125290064D01*
X154873000Y-125290064D01*
X154873000Y-125127000D01*
X154098750Y-125127000D01*
X153940000Y-125285750D01*
X153936928Y-125425000D01*
X140944235Y-125425000D01*
X140995226Y-125301898D01*
X141035000Y-125101939D01*
X141035000Y-124898061D01*
X163965000Y-124898061D01*
X163965000Y-125101939D01*
X164004774Y-125301898D01*
X164082795Y-125490256D01*
X164196063Y-125659774D01*
X164340226Y-125803937D01*
X164509744Y-125917205D01*
X164698102Y-125995226D01*
X164898061Y-126035000D01*
X165101939Y-126035000D01*
X165301898Y-125995226D01*
X165490256Y-125917205D01*
X165659774Y-125803937D01*
X165803937Y-125659774D01*
X165917205Y-125490256D01*
X165995226Y-125301898D01*
X166035000Y-125101939D01*
X166035000Y-124898061D01*
X165995226Y-124698102D01*
X165917205Y-124509744D01*
X165803937Y-124340226D01*
X165659774Y-124196063D01*
X165490256Y-124082795D01*
X165301898Y-124004774D01*
X165101939Y-123965000D01*
X164898061Y-123965000D01*
X164698102Y-124004774D01*
X164509744Y-124082795D01*
X164340226Y-124196063D01*
X164196063Y-124340226D01*
X164082795Y-124509744D01*
X164004774Y-124698102D01*
X163965000Y-124898061D01*
X141035000Y-124898061D01*
X140995226Y-124698102D01*
X140944236Y-124575000D01*
X153936928Y-124575000D01*
X153940000Y-124714250D01*
X154098750Y-124873000D01*
X154873000Y-124873000D01*
X154873000Y-124709936D01*
X154980453Y-124709936D01*
X155106379Y-124873000D01*
X155901250Y-124873000D01*
X156016995Y-124757255D01*
X156106379Y-124873000D01*
X156893621Y-124873000D01*
X157019547Y-124709936D01*
X156943368Y-124516606D01*
X156873000Y-124407232D01*
X156873000Y-124107743D01*
X157127000Y-124107743D01*
X157127000Y-124873000D01*
X157893621Y-124873000D01*
X158019547Y-124709936D01*
X157943368Y-124516606D01*
X157830936Y-124341852D01*
X157686571Y-124192391D01*
X157515822Y-124073966D01*
X157325250Y-123991128D01*
X157290062Y-123980460D01*
X157127000Y-124107743D01*
X156873000Y-124107743D01*
X156709938Y-123980460D01*
X156674750Y-123991128D01*
X156500000Y-124067088D01*
X156325250Y-123991128D01*
X156290062Y-123980460D01*
X156127000Y-124107743D01*
X156127000Y-124407232D01*
X156057229Y-124515677D01*
X156050812Y-124450518D01*
X156014502Y-124330820D01*
X155955537Y-124220506D01*
X155876185Y-124123815D01*
X155873000Y-124121201D01*
X155873000Y-124107743D01*
X155709938Y-123980460D01*
X155677917Y-123990168D01*
X155669180Y-123985498D01*
X155549482Y-123949188D01*
X155425000Y-123936928D01*
X155285750Y-123940000D01*
X155127000Y-124098750D01*
X155127000Y-124407232D01*
X155056632Y-124516606D01*
X154980453Y-124709936D01*
X154873000Y-124709936D01*
X154873000Y-124098750D01*
X154714250Y-123940000D01*
X154575000Y-123936928D01*
X154450518Y-123949188D01*
X154330820Y-123985498D01*
X154220506Y-124044463D01*
X154123815Y-124123815D01*
X154044463Y-124220506D01*
X153985498Y-124330820D01*
X153949188Y-124450518D01*
X153936928Y-124575000D01*
X140944236Y-124575000D01*
X140917205Y-124509744D01*
X140803937Y-124340226D01*
X140659774Y-124196063D01*
X140490256Y-124082795D01*
X140301898Y-124004774D01*
X140101939Y-123965000D01*
X139898061Y-123965000D01*
X139698102Y-124004774D01*
X139509744Y-124082795D01*
X139340226Y-124196063D01*
X139196063Y-124340226D01*
X139082795Y-124509744D01*
X139004774Y-124698102D01*
X138965000Y-124898061D01*
X133339768Y-124898061D01*
X133346632Y-124893475D01*
X133553475Y-124686632D01*
X133715990Y-124443411D01*
X133827932Y-124173158D01*
X133885000Y-123886260D01*
X133885000Y-123593740D01*
X133827932Y-123306842D01*
X133715990Y-123036589D01*
X133553475Y-122793368D01*
X133346632Y-122586525D01*
X133172240Y-122470000D01*
X133346632Y-122353475D01*
X133553475Y-122146632D01*
X133715990Y-121903411D01*
X133827932Y-121633158D01*
X133885000Y-121346260D01*
X133885000Y-121053740D01*
X133827932Y-120766842D01*
X133715990Y-120496589D01*
X133553475Y-120253368D01*
X133346632Y-120046525D01*
X133172240Y-119930000D01*
X133346632Y-119813475D01*
X133553475Y-119606632D01*
X133715990Y-119363411D01*
X133827932Y-119093158D01*
X133885000Y-118806260D01*
X133885000Y-118513740D01*
X133827932Y-118226842D01*
X133715990Y-117956589D01*
X133553475Y-117713368D01*
X133346632Y-117506525D01*
X133172240Y-117390000D01*
X133346632Y-117273475D01*
X133553475Y-117066632D01*
X133715990Y-116823411D01*
X133827932Y-116553158D01*
X133885000Y-116266260D01*
X133885000Y-115973740D01*
X133827932Y-115686842D01*
X133715990Y-115416589D01*
X133553475Y-115173368D01*
X133346632Y-114966525D01*
X133244169Y-114898061D01*
X138965000Y-114898061D01*
X138965000Y-115101939D01*
X139004774Y-115301898D01*
X139082795Y-115490256D01*
X139196063Y-115659774D01*
X139340226Y-115803937D01*
X139509744Y-115917205D01*
X139698102Y-115995226D01*
X139898061Y-116035000D01*
X140101939Y-116035000D01*
X140301898Y-115995226D01*
X140490256Y-115917205D01*
X140659774Y-115803937D01*
X140803937Y-115659774D01*
X140917205Y-115490256D01*
X140995226Y-115301898D01*
X141035000Y-115101939D01*
X141035000Y-114898061D01*
X148965000Y-114898061D01*
X148965000Y-115101939D01*
X149004774Y-115301898D01*
X149082795Y-115490256D01*
X149196063Y-115659774D01*
X149340226Y-115803937D01*
X149509744Y-115917205D01*
X149698102Y-115995226D01*
X149898061Y-116035000D01*
X150101939Y-116035000D01*
X150301898Y-115995226D01*
X150490256Y-115917205D01*
X150659774Y-115803937D01*
X150803937Y-115659774D01*
X150917205Y-115490256D01*
X150995226Y-115301898D01*
X151035000Y-115101939D01*
X151035000Y-114898061D01*
X150995226Y-114698102D01*
X150917205Y-114509744D01*
X150803937Y-114340226D01*
X150659774Y-114196063D01*
X150490256Y-114082795D01*
X150301898Y-114004774D01*
X150101939Y-113965000D01*
X149898061Y-113965000D01*
X149698102Y-114004774D01*
X149509744Y-114082795D01*
X149340226Y-114196063D01*
X149196063Y-114340226D01*
X149082795Y-114509744D01*
X149004774Y-114698102D01*
X148965000Y-114898061D01*
X141035000Y-114898061D01*
X140995226Y-114698102D01*
X140917205Y-114509744D01*
X140803937Y-114340226D01*
X140659774Y-114196063D01*
X140490256Y-114082795D01*
X140301898Y-114004774D01*
X140101939Y-113965000D01*
X139898061Y-113965000D01*
X139698102Y-114004774D01*
X139509744Y-114082795D01*
X139340226Y-114196063D01*
X139196063Y-114340226D01*
X139082795Y-114509744D01*
X139004774Y-114698102D01*
X138965000Y-114898061D01*
X133244169Y-114898061D01*
X133172240Y-114850000D01*
X133346632Y-114733475D01*
X133553475Y-114526632D01*
X133715990Y-114283411D01*
X133827932Y-114013158D01*
X133885000Y-113726260D01*
X133885000Y-113433740D01*
X133827932Y-113146842D01*
X133715990Y-112876589D01*
X133553475Y-112633368D01*
X133346632Y-112426525D01*
X133172240Y-112310000D01*
X133346632Y-112193475D01*
X133553475Y-111986632D01*
X133715990Y-111743411D01*
X133827932Y-111473158D01*
X133885000Y-111186260D01*
X133885000Y-110893740D01*
X133827932Y-110606842D01*
X133715990Y-110336589D01*
X133553475Y-110093368D01*
X133358168Y-109898061D01*
X163965000Y-109898061D01*
X163965000Y-110101939D01*
X164004774Y-110301898D01*
X164082795Y-110490256D01*
X164196063Y-110659774D01*
X164340226Y-110803937D01*
X164509744Y-110917205D01*
X164698102Y-110995226D01*
X164898061Y-111035000D01*
X165101939Y-111035000D01*
X165301898Y-110995226D01*
X165490256Y-110917205D01*
X165659774Y-110803937D01*
X165803937Y-110659774D01*
X165917205Y-110490256D01*
X165995226Y-110301898D01*
X166035000Y-110101939D01*
X166035000Y-109898061D01*
X165995226Y-109698102D01*
X165917205Y-109509744D01*
X165803937Y-109340226D01*
X165659774Y-109196063D01*
X165490256Y-109082795D01*
X165301898Y-109004774D01*
X165101939Y-108965000D01*
X164898061Y-108965000D01*
X164698102Y-109004774D01*
X164509744Y-109082795D01*
X164340226Y-109196063D01*
X164196063Y-109340226D01*
X164082795Y-109509744D01*
X164004774Y-109698102D01*
X163965000Y-109898061D01*
X133358168Y-109898061D01*
X133346632Y-109886525D01*
X133172240Y-109770000D01*
X133346632Y-109653475D01*
X133553475Y-109446632D01*
X133715990Y-109203411D01*
X133827932Y-108933158D01*
X133885000Y-108646260D01*
X133885000Y-108353740D01*
X133827932Y-108066842D01*
X133715990Y-107796589D01*
X133553475Y-107553368D01*
X133346632Y-107346525D01*
X133172240Y-107230000D01*
X133346632Y-107113475D01*
X133553475Y-106906632D01*
X133715990Y-106663411D01*
X133827932Y-106393158D01*
X133885000Y-106106260D01*
X133885000Y-105813740D01*
X133827932Y-105526842D01*
X133715990Y-105256589D01*
X133553475Y-105013368D01*
X133438168Y-104898061D01*
X138965000Y-104898061D01*
X138965000Y-105101939D01*
X139004774Y-105301898D01*
X139082795Y-105490256D01*
X139196063Y-105659774D01*
X139340226Y-105803937D01*
X139509744Y-105917205D01*
X139698102Y-105995226D01*
X139898061Y-106035000D01*
X140101939Y-106035000D01*
X140301898Y-105995226D01*
X140490256Y-105917205D01*
X140659774Y-105803937D01*
X140803937Y-105659774D01*
X140917205Y-105490256D01*
X140995226Y-105301898D01*
X141035000Y-105101939D01*
X141035000Y-104898061D01*
X153965000Y-104898061D01*
X153965000Y-105101939D01*
X154004774Y-105301898D01*
X154082795Y-105490256D01*
X154196063Y-105659774D01*
X154340226Y-105803937D01*
X154509744Y-105917205D01*
X154698102Y-105995226D01*
X154898061Y-106035000D01*
X155101939Y-106035000D01*
X155301898Y-105995226D01*
X155490256Y-105917205D01*
X155659774Y-105803937D01*
X155803937Y-105659774D01*
X155917205Y-105490256D01*
X155995226Y-105301898D01*
X156035000Y-105101939D01*
X156035000Y-104898061D01*
X155995226Y-104698102D01*
X155917205Y-104509744D01*
X155803937Y-104340226D01*
X155659774Y-104196063D01*
X155490256Y-104082795D01*
X155301898Y-104004774D01*
X155101939Y-103965000D01*
X154898061Y-103965000D01*
X154698102Y-104004774D01*
X154509744Y-104082795D01*
X154340226Y-104196063D01*
X154196063Y-104340226D01*
X154082795Y-104509744D01*
X154004774Y-104698102D01*
X153965000Y-104898061D01*
X141035000Y-104898061D01*
X140995226Y-104698102D01*
X140917205Y-104509744D01*
X140803937Y-104340226D01*
X140659774Y-104196063D01*
X140490256Y-104082795D01*
X140301898Y-104004774D01*
X140101939Y-103965000D01*
X139898061Y-103965000D01*
X139698102Y-104004774D01*
X139509744Y-104082795D01*
X139340226Y-104196063D01*
X139196063Y-104340226D01*
X139082795Y-104509744D01*
X139004774Y-104698102D01*
X138965000Y-104898061D01*
X133438168Y-104898061D01*
X133346632Y-104806525D01*
X133172240Y-104690000D01*
X133346632Y-104573475D01*
X133553475Y-104366632D01*
X133715990Y-104123411D01*
X133827932Y-103853158D01*
X133885000Y-103566260D01*
X133885000Y-103273740D01*
X133827932Y-102986842D01*
X133715990Y-102716589D01*
X133553475Y-102473368D01*
X133346632Y-102266525D01*
X133172240Y-102150000D01*
X133346632Y-102033475D01*
X133553475Y-101826632D01*
X133715990Y-101583411D01*
X133827932Y-101313158D01*
X133885000Y-101026260D01*
X133885000Y-100733740D01*
X133827932Y-100446842D01*
X133818885Y-100425000D01*
X143936928Y-100425000D01*
X143949188Y-100549482D01*
X143985498Y-100669180D01*
X144044463Y-100779494D01*
X144123815Y-100876185D01*
X144220506Y-100955537D01*
X144330820Y-101014502D01*
X144450518Y-101050812D01*
X144575000Y-101063072D01*
X144714250Y-101060000D01*
X144873000Y-100901250D01*
X144873000Y-100127000D01*
X145127000Y-100127000D01*
X145127000Y-100901250D01*
X145285750Y-101060000D01*
X145425000Y-101063072D01*
X145549482Y-101050812D01*
X145669180Y-101014502D01*
X145779494Y-100955537D01*
X145876185Y-100876185D01*
X145955537Y-100779494D01*
X146014502Y-100669180D01*
X146050812Y-100549482D01*
X146063072Y-100425000D01*
X148936928Y-100425000D01*
X148949188Y-100549482D01*
X148985498Y-100669180D01*
X149044463Y-100779494D01*
X149123815Y-100876185D01*
X149220506Y-100955537D01*
X149330820Y-101014502D01*
X149450518Y-101050812D01*
X149575000Y-101063072D01*
X149714250Y-101060000D01*
X149873000Y-100901250D01*
X149873000Y-100127000D01*
X150127000Y-100127000D01*
X150127000Y-100901250D01*
X150285750Y-101060000D01*
X150425000Y-101063072D01*
X150549482Y-101050812D01*
X150669180Y-101014502D01*
X150779494Y-100955537D01*
X150876185Y-100876185D01*
X150897674Y-100850000D01*
X163511928Y-100850000D01*
X163524188Y-100974482D01*
X163560498Y-101094180D01*
X163619463Y-101204494D01*
X163698815Y-101301185D01*
X163795506Y-101380537D01*
X163905820Y-101439502D01*
X164025518Y-101475812D01*
X164150000Y-101488072D01*
X164714250Y-101485000D01*
X164873000Y-101326250D01*
X164873000Y-100127000D01*
X165127000Y-100127000D01*
X165127000Y-101326250D01*
X165285750Y-101485000D01*
X165850000Y-101488072D01*
X165974482Y-101475812D01*
X166094180Y-101439502D01*
X166204494Y-101380537D01*
X166301185Y-101301185D01*
X166380537Y-101204494D01*
X166439502Y-101094180D01*
X166475812Y-100974482D01*
X166488072Y-100850000D01*
X166485000Y-100285750D01*
X166326250Y-100127000D01*
X165127000Y-100127000D01*
X164873000Y-100127000D01*
X163673750Y-100127000D01*
X163515000Y-100285750D01*
X163511928Y-100850000D01*
X150897674Y-100850000D01*
X150955537Y-100779494D01*
X151014502Y-100669180D01*
X151050812Y-100549482D01*
X151063072Y-100425000D01*
X151060000Y-100285750D01*
X150901250Y-100127000D01*
X150127000Y-100127000D01*
X149873000Y-100127000D01*
X149098750Y-100127000D01*
X148940000Y-100285750D01*
X148936928Y-100425000D01*
X146063072Y-100425000D01*
X146060000Y-100285750D01*
X145901250Y-100127000D01*
X145127000Y-100127000D01*
X144873000Y-100127000D01*
X144098750Y-100127000D01*
X143940000Y-100285750D01*
X143936928Y-100425000D01*
X133818885Y-100425000D01*
X133715990Y-100176589D01*
X133553475Y-99933368D01*
X133346632Y-99726525D01*
X133172240Y-99610000D01*
X133224621Y-99575000D01*
X143936928Y-99575000D01*
X143940000Y-99714250D01*
X144098750Y-99873000D01*
X144873000Y-99873000D01*
X144873000Y-99098750D01*
X145127000Y-99098750D01*
X145127000Y-99873000D01*
X145901250Y-99873000D01*
X146060000Y-99714250D01*
X146063072Y-99575000D01*
X148936928Y-99575000D01*
X148940000Y-99714250D01*
X149098750Y-99873000D01*
X149873000Y-99873000D01*
X149873000Y-99098750D01*
X150127000Y-99098750D01*
X150127000Y-99873000D01*
X150901250Y-99873000D01*
X151060000Y-99714250D01*
X151063072Y-99575000D01*
X151050812Y-99450518D01*
X151014502Y-99330820D01*
X150955537Y-99220506D01*
X150897675Y-99150000D01*
X163511928Y-99150000D01*
X163515000Y-99714250D01*
X163673750Y-99873000D01*
X164873000Y-99873000D01*
X164873000Y-98673750D01*
X165127000Y-98673750D01*
X165127000Y-99873000D01*
X166326250Y-99873000D01*
X166485000Y-99714250D01*
X166488072Y-99150000D01*
X166475812Y-99025518D01*
X166439502Y-98905820D01*
X166380537Y-98795506D01*
X166301185Y-98698815D01*
X166204494Y-98619463D01*
X166094180Y-98560498D01*
X165974482Y-98524188D01*
X165850000Y-98511928D01*
X165285750Y-98515000D01*
X165127000Y-98673750D01*
X164873000Y-98673750D01*
X164714250Y-98515000D01*
X164150000Y-98511928D01*
X164025518Y-98524188D01*
X163905820Y-98560498D01*
X163795506Y-98619463D01*
X163698815Y-98698815D01*
X163619463Y-98795506D01*
X163560498Y-98905820D01*
X163524188Y-99025518D01*
X163511928Y-99150000D01*
X150897675Y-99150000D01*
X150876185Y-99123815D01*
X150779494Y-99044463D01*
X150669180Y-98985498D01*
X150549482Y-98949188D01*
X150425000Y-98936928D01*
X150285750Y-98940000D01*
X150127000Y-99098750D01*
X149873000Y-99098750D01*
X149714250Y-98940000D01*
X149575000Y-98936928D01*
X149450518Y-98949188D01*
X149330820Y-98985498D01*
X149220506Y-99044463D01*
X149123815Y-99123815D01*
X149044463Y-99220506D01*
X148985498Y-99330820D01*
X148949188Y-99450518D01*
X148936928Y-99575000D01*
X146063072Y-99575000D01*
X146050812Y-99450518D01*
X146014502Y-99330820D01*
X145955537Y-99220506D01*
X145876185Y-99123815D01*
X145779494Y-99044463D01*
X145669180Y-98985498D01*
X145549482Y-98949188D01*
X145425000Y-98936928D01*
X145285750Y-98940000D01*
X145127000Y-99098750D01*
X144873000Y-99098750D01*
X144714250Y-98940000D01*
X144575000Y-98936928D01*
X144450518Y-98949188D01*
X144330820Y-98985498D01*
X144220506Y-99044463D01*
X144123815Y-99123815D01*
X144044463Y-99220506D01*
X143985498Y-99330820D01*
X143949188Y-99450518D01*
X143936928Y-99575000D01*
X133224621Y-99575000D01*
X133346632Y-99493475D01*
X133553475Y-99286632D01*
X133715990Y-99043411D01*
X133827932Y-98773158D01*
X133885000Y-98486260D01*
X133885000Y-98193740D01*
X133827932Y-97906842D01*
X133715990Y-97636589D01*
X133553475Y-97393368D01*
X133346632Y-97186525D01*
X133172240Y-97070000D01*
X133346632Y-96953475D01*
X133553475Y-96746632D01*
X133715990Y-96503411D01*
X133827932Y-96233158D01*
X133885000Y-95946260D01*
X133885000Y-95653740D01*
X133827932Y-95366842D01*
X133715990Y-95096589D01*
X133583338Y-94898061D01*
X138965000Y-94898061D01*
X138965000Y-95101939D01*
X139004774Y-95301898D01*
X139082795Y-95490256D01*
X139196063Y-95659774D01*
X139340226Y-95803937D01*
X139509744Y-95917205D01*
X139698102Y-95995226D01*
X139898061Y-96035000D01*
X140101939Y-96035000D01*
X140301898Y-95995226D01*
X140490256Y-95917205D01*
X140659774Y-95803937D01*
X140803937Y-95659774D01*
X140917205Y-95490256D01*
X140995226Y-95301898D01*
X141035000Y-95101939D01*
X141035000Y-94898061D01*
X153965000Y-94898061D01*
X153965000Y-95101939D01*
X154004774Y-95301898D01*
X154082795Y-95490256D01*
X154196063Y-95659774D01*
X154340226Y-95803937D01*
X154509744Y-95917205D01*
X154698102Y-95995226D01*
X154898061Y-96035000D01*
X155101939Y-96035000D01*
X155301898Y-95995226D01*
X155490256Y-95917205D01*
X155659774Y-95803937D01*
X155803937Y-95659774D01*
X155917205Y-95490256D01*
X155995226Y-95301898D01*
X156035000Y-95101939D01*
X156035000Y-94898061D01*
X163965000Y-94898061D01*
X163965000Y-95101939D01*
X164004774Y-95301898D01*
X164082795Y-95490256D01*
X164196063Y-95659774D01*
X164340226Y-95803937D01*
X164509744Y-95917205D01*
X164698102Y-95995226D01*
X164898061Y-96035000D01*
X165101939Y-96035000D01*
X165301898Y-95995226D01*
X165490256Y-95917205D01*
X165659774Y-95803937D01*
X165803937Y-95659774D01*
X165917205Y-95490256D01*
X165995226Y-95301898D01*
X166035000Y-95101939D01*
X166035000Y-94898061D01*
X165995226Y-94698102D01*
X165917205Y-94509744D01*
X165803937Y-94340226D01*
X165659774Y-94196063D01*
X165490256Y-94082795D01*
X165301898Y-94004774D01*
X165101939Y-93965000D01*
X164898061Y-93965000D01*
X164698102Y-94004774D01*
X164509744Y-94082795D01*
X164340226Y-94196063D01*
X164196063Y-94340226D01*
X164082795Y-94509744D01*
X164004774Y-94698102D01*
X163965000Y-94898061D01*
X156035000Y-94898061D01*
X155995226Y-94698102D01*
X155917205Y-94509744D01*
X155803937Y-94340226D01*
X155659774Y-94196063D01*
X155490256Y-94082795D01*
X155301898Y-94004774D01*
X155101939Y-93965000D01*
X154898061Y-93965000D01*
X154698102Y-94004774D01*
X154509744Y-94082795D01*
X154340226Y-94196063D01*
X154196063Y-94340226D01*
X154082795Y-94509744D01*
X154004774Y-94698102D01*
X153965000Y-94898061D01*
X141035000Y-94898061D01*
X140995226Y-94698102D01*
X140917205Y-94509744D01*
X140803937Y-94340226D01*
X140659774Y-94196063D01*
X140490256Y-94082795D01*
X140301898Y-94004774D01*
X140101939Y-93965000D01*
X139898061Y-93965000D01*
X139698102Y-94004774D01*
X139509744Y-94082795D01*
X139340226Y-94196063D01*
X139196063Y-94340226D01*
X139082795Y-94509744D01*
X139004774Y-94698102D01*
X138965000Y-94898061D01*
X133583338Y-94898061D01*
X133553475Y-94853368D01*
X133346632Y-94646525D01*
X133172240Y-94530000D01*
X133346632Y-94413475D01*
X133553475Y-94206632D01*
X133715990Y-93963411D01*
X133827932Y-93693158D01*
X133885000Y-93406260D01*
X133885000Y-93113740D01*
X133827932Y-92826842D01*
X133715990Y-92556589D01*
X133553475Y-92313368D01*
X133346632Y-92106525D01*
X133172240Y-91990000D01*
X133346632Y-91873475D01*
X133553475Y-91666632D01*
X133715990Y-91423411D01*
X133827932Y-91153158D01*
X133885000Y-90866260D01*
X133885000Y-90573740D01*
X133827932Y-90286842D01*
X133715990Y-90016589D01*
X133553475Y-89773368D01*
X133346632Y-89566525D01*
X133172240Y-89450000D01*
X133346632Y-89333475D01*
X133553475Y-89126632D01*
X133715990Y-88883411D01*
X133827932Y-88613158D01*
X133885000Y-88326260D01*
X133885000Y-88033740D01*
X133827932Y-87746842D01*
X133715990Y-87476589D01*
X133553475Y-87233368D01*
X133346632Y-87026525D01*
X133172240Y-86910000D01*
X133346632Y-86793475D01*
X133553475Y-86586632D01*
X133715990Y-86343411D01*
X133827932Y-86073158D01*
X133885000Y-85786260D01*
X133885000Y-85493740D01*
X133827932Y-85206842D01*
X133715990Y-84936589D01*
X133690247Y-84898061D01*
X138965000Y-84898061D01*
X138965000Y-85101939D01*
X139004774Y-85301898D01*
X139082795Y-85490256D01*
X139196063Y-85659774D01*
X139340226Y-85803937D01*
X139509744Y-85917205D01*
X139698102Y-85995226D01*
X139898061Y-86035000D01*
X140101939Y-86035000D01*
X140301898Y-85995226D01*
X140490256Y-85917205D01*
X140659774Y-85803937D01*
X140803937Y-85659774D01*
X140917205Y-85490256D01*
X140995226Y-85301898D01*
X141035000Y-85101939D01*
X141035000Y-84898061D01*
X153965000Y-84898061D01*
X153965000Y-85101939D01*
X154004774Y-85301898D01*
X154082795Y-85490256D01*
X154196063Y-85659774D01*
X154340226Y-85803937D01*
X154509744Y-85917205D01*
X154698102Y-85995226D01*
X154898061Y-86035000D01*
X155101939Y-86035000D01*
X155301898Y-85995226D01*
X155490256Y-85917205D01*
X155659774Y-85803937D01*
X155803937Y-85659774D01*
X155917205Y-85490256D01*
X155995226Y-85301898D01*
X156035000Y-85101939D01*
X156035000Y-84898061D01*
X155995226Y-84698102D01*
X155917205Y-84509744D01*
X155803937Y-84340226D01*
X155659774Y-84196063D01*
X155490256Y-84082795D01*
X155301898Y-84004774D01*
X155101939Y-83965000D01*
X154898061Y-83965000D01*
X154698102Y-84004774D01*
X154509744Y-84082795D01*
X154340226Y-84196063D01*
X154196063Y-84340226D01*
X154082795Y-84509744D01*
X154004774Y-84698102D01*
X153965000Y-84898061D01*
X141035000Y-84898061D01*
X140995226Y-84698102D01*
X140917205Y-84509744D01*
X140803937Y-84340226D01*
X140659774Y-84196063D01*
X140490256Y-84082795D01*
X140301898Y-84004774D01*
X140101939Y-83965000D01*
X139898061Y-83965000D01*
X139698102Y-84004774D01*
X139509744Y-84082795D01*
X139340226Y-84196063D01*
X139196063Y-84340226D01*
X139082795Y-84509744D01*
X139004774Y-84698102D01*
X138965000Y-84898061D01*
X133690247Y-84898061D01*
X133553475Y-84693368D01*
X133346632Y-84486525D01*
X133172240Y-84370000D01*
X133346632Y-84253475D01*
X133553475Y-84046632D01*
X133715990Y-83803411D01*
X133827932Y-83533158D01*
X133885000Y-83246260D01*
X133885000Y-82953740D01*
X133827932Y-82666842D01*
X133715990Y-82396589D01*
X133553475Y-82153368D01*
X133346632Y-81946525D01*
X133172240Y-81830000D01*
X133346632Y-81713475D01*
X133553475Y-81506632D01*
X133715990Y-81263411D01*
X133827932Y-80993158D01*
X133885000Y-80706260D01*
X133885000Y-80413740D01*
X133827932Y-80126842D01*
X133733169Y-79898061D01*
X158965000Y-79898061D01*
X158965000Y-80101939D01*
X159004774Y-80301898D01*
X159082795Y-80490256D01*
X159196063Y-80659774D01*
X159340226Y-80803937D01*
X159509744Y-80917205D01*
X159698102Y-80995226D01*
X159898061Y-81035000D01*
X160101939Y-81035000D01*
X160301898Y-80995226D01*
X160490256Y-80917205D01*
X160659774Y-80803937D01*
X160803937Y-80659774D01*
X160917205Y-80490256D01*
X160995226Y-80301898D01*
X161035000Y-80101939D01*
X161035000Y-79898061D01*
X160995226Y-79698102D01*
X160917205Y-79509744D01*
X160803937Y-79340226D01*
X160659774Y-79196063D01*
X160490256Y-79082795D01*
X160301898Y-79004774D01*
X160101939Y-78965000D01*
X159898061Y-78965000D01*
X159698102Y-79004774D01*
X159509744Y-79082795D01*
X159340226Y-79196063D01*
X159196063Y-79340226D01*
X159082795Y-79509744D01*
X159004774Y-79698102D01*
X158965000Y-79898061D01*
X133733169Y-79898061D01*
X133715990Y-79856589D01*
X133553475Y-79613368D01*
X133346632Y-79406525D01*
X133172240Y-79290000D01*
X133346632Y-79173475D01*
X133553475Y-78966632D01*
X133715990Y-78723411D01*
X133827932Y-78453158D01*
X133885000Y-78166260D01*
X133885000Y-77873740D01*
X133827932Y-77586842D01*
X133715990Y-77316589D01*
X133553475Y-77073368D01*
X133346632Y-76866525D01*
X133172240Y-76750000D01*
X133346632Y-76633475D01*
X133553475Y-76426632D01*
X133715990Y-76183411D01*
X133827932Y-75913158D01*
X133885000Y-75626260D01*
X133885000Y-75333740D01*
X133827932Y-75046842D01*
X133766306Y-74898061D01*
X138965000Y-74898061D01*
X138965000Y-75101939D01*
X139004774Y-75301898D01*
X139082795Y-75490256D01*
X139196063Y-75659774D01*
X139340226Y-75803937D01*
X139509744Y-75917205D01*
X139698102Y-75995226D01*
X139898061Y-76035000D01*
X140101939Y-76035000D01*
X140301898Y-75995226D01*
X140490256Y-75917205D01*
X140659774Y-75803937D01*
X140803937Y-75659774D01*
X140917205Y-75490256D01*
X140995226Y-75301898D01*
X141035000Y-75101939D01*
X141035000Y-74898061D01*
X148965000Y-74898061D01*
X148965000Y-75101939D01*
X149004774Y-75301898D01*
X149082795Y-75490256D01*
X149196063Y-75659774D01*
X149340226Y-75803937D01*
X149509744Y-75917205D01*
X149698102Y-75995226D01*
X149898061Y-76035000D01*
X150101939Y-76035000D01*
X150301898Y-75995226D01*
X150490256Y-75917205D01*
X150659774Y-75803937D01*
X150803937Y-75659774D01*
X150917205Y-75490256D01*
X150995226Y-75301898D01*
X151035000Y-75101939D01*
X151035000Y-74898061D01*
X153965000Y-74898061D01*
X153965000Y-75101939D01*
X154004774Y-75301898D01*
X154082795Y-75490256D01*
X154196063Y-75659774D01*
X154340226Y-75803937D01*
X154509744Y-75917205D01*
X154698102Y-75995226D01*
X154898061Y-76035000D01*
X155101939Y-76035000D01*
X155301898Y-75995226D01*
X155490256Y-75917205D01*
X155659774Y-75803937D01*
X155803937Y-75659774D01*
X155917205Y-75490256D01*
X155995226Y-75301898D01*
X156035000Y-75101939D01*
X156035000Y-74898061D01*
X155995226Y-74698102D01*
X155917205Y-74509744D01*
X155803937Y-74340226D01*
X155659774Y-74196063D01*
X155490256Y-74082795D01*
X155301898Y-74004774D01*
X155101939Y-73965000D01*
X154898061Y-73965000D01*
X154698102Y-74004774D01*
X154509744Y-74082795D01*
X154340226Y-74196063D01*
X154196063Y-74340226D01*
X154082795Y-74509744D01*
X154004774Y-74698102D01*
X153965000Y-74898061D01*
X151035000Y-74898061D01*
X150995226Y-74698102D01*
X150917205Y-74509744D01*
X150803937Y-74340226D01*
X150659774Y-74196063D01*
X150490256Y-74082795D01*
X150301898Y-74004774D01*
X150101939Y-73965000D01*
X149898061Y-73965000D01*
X149698102Y-74004774D01*
X149509744Y-74082795D01*
X149340226Y-74196063D01*
X149196063Y-74340226D01*
X149082795Y-74509744D01*
X149004774Y-74698102D01*
X148965000Y-74898061D01*
X141035000Y-74898061D01*
X140995226Y-74698102D01*
X140917205Y-74509744D01*
X140803937Y-74340226D01*
X140659774Y-74196063D01*
X140490256Y-74082795D01*
X140301898Y-74004774D01*
X140101939Y-73965000D01*
X139898061Y-73965000D01*
X139698102Y-74004774D01*
X139509744Y-74082795D01*
X139340226Y-74196063D01*
X139196063Y-74340226D01*
X139082795Y-74509744D01*
X139004774Y-74698102D01*
X138965000Y-74898061D01*
X133766306Y-74898061D01*
X133715990Y-74776589D01*
X133553475Y-74533368D01*
X133346632Y-74326525D01*
X133172240Y-74210000D01*
X133346632Y-74093475D01*
X133553475Y-73886632D01*
X133715990Y-73643411D01*
X133827932Y-73373158D01*
X133885000Y-73086260D01*
X133885000Y-72793740D01*
X133827932Y-72506842D01*
X133715990Y-72236589D01*
X133553475Y-71993368D01*
X133421620Y-71861513D01*
X133494180Y-71839502D01*
X133604494Y-71780537D01*
X133701185Y-71701185D01*
X133780537Y-71604494D01*
X133839502Y-71494180D01*
X133875812Y-71374482D01*
X133888072Y-71250000D01*
X133888072Y-70425000D01*
X153936928Y-70425000D01*
X153949188Y-70549482D01*
X153985498Y-70669180D01*
X154044463Y-70779494D01*
X154123815Y-70876185D01*
X154220506Y-70955537D01*
X154330820Y-71014502D01*
X154450518Y-71050812D01*
X154575000Y-71063072D01*
X154714250Y-71060000D01*
X154873000Y-70901250D01*
X154873000Y-70290064D01*
X154980453Y-70290064D01*
X155056632Y-70483394D01*
X155127000Y-70592768D01*
X155127000Y-70901250D01*
X155285750Y-71060000D01*
X155425000Y-71063072D01*
X155549482Y-71050812D01*
X155669180Y-71014502D01*
X155677917Y-71009832D01*
X155709938Y-71019540D01*
X155873000Y-70892257D01*
X155873000Y-70878799D01*
X155876185Y-70876185D01*
X155955537Y-70779494D01*
X156014502Y-70669180D01*
X156050812Y-70549482D01*
X156057229Y-70484323D01*
X156127000Y-70592768D01*
X156127000Y-70892257D01*
X156290062Y-71019540D01*
X156325250Y-71008872D01*
X156500000Y-70932912D01*
X156674750Y-71008872D01*
X156709938Y-71019540D01*
X156873000Y-70892257D01*
X156873000Y-70592768D01*
X156943368Y-70483394D01*
X157019547Y-70290064D01*
X156893621Y-70127000D01*
X157127000Y-70127000D01*
X157127000Y-70892257D01*
X157290062Y-71019540D01*
X157325250Y-71008872D01*
X157515822Y-70926034D01*
X157686571Y-70807609D01*
X157830936Y-70658148D01*
X157943368Y-70483394D01*
X158019547Y-70290064D01*
X157893621Y-70127000D01*
X157127000Y-70127000D01*
X156893621Y-70127000D01*
X156106379Y-70127000D01*
X156016995Y-70242745D01*
X155901250Y-70127000D01*
X155106379Y-70127000D01*
X154980453Y-70290064D01*
X154873000Y-70290064D01*
X154873000Y-70127000D01*
X154098750Y-70127000D01*
X153940000Y-70285750D01*
X153936928Y-70425000D01*
X133888072Y-70425000D01*
X133888072Y-69898061D01*
X163965000Y-69898061D01*
X163965000Y-70101939D01*
X164004774Y-70301898D01*
X164082795Y-70490256D01*
X164196063Y-70659774D01*
X164340226Y-70803937D01*
X164509744Y-70917205D01*
X164698102Y-70995226D01*
X164898061Y-71035000D01*
X165101939Y-71035000D01*
X165301898Y-70995226D01*
X165490256Y-70917205D01*
X165659774Y-70803937D01*
X165803937Y-70659774D01*
X165917205Y-70490256D01*
X165995226Y-70301898D01*
X166035000Y-70101939D01*
X166035000Y-69898061D01*
X165995226Y-69698102D01*
X165917205Y-69509744D01*
X165803937Y-69340226D01*
X165659774Y-69196063D01*
X165490256Y-69082795D01*
X165301898Y-69004774D01*
X165101939Y-68965000D01*
X164898061Y-68965000D01*
X164698102Y-69004774D01*
X164509744Y-69082795D01*
X164340226Y-69196063D01*
X164196063Y-69340226D01*
X164082795Y-69509744D01*
X164004774Y-69698102D01*
X163965000Y-69898061D01*
X133888072Y-69898061D01*
X133888072Y-69575000D01*
X153936928Y-69575000D01*
X153940000Y-69714250D01*
X154098750Y-69873000D01*
X154873000Y-69873000D01*
X154873000Y-69709936D01*
X154980453Y-69709936D01*
X155106379Y-69873000D01*
X155901250Y-69873000D01*
X156016995Y-69757255D01*
X156106379Y-69873000D01*
X156893621Y-69873000D01*
X157019547Y-69709936D01*
X156943368Y-69516606D01*
X156873000Y-69407232D01*
X156873000Y-69107743D01*
X157127000Y-69107743D01*
X157127000Y-69873000D01*
X157893621Y-69873000D01*
X158019547Y-69709936D01*
X157943368Y-69516606D01*
X157830936Y-69341852D01*
X157686571Y-69192391D01*
X157515822Y-69073966D01*
X157325250Y-68991128D01*
X157290062Y-68980460D01*
X157127000Y-69107743D01*
X156873000Y-69107743D01*
X156709938Y-68980460D01*
X156674750Y-68991128D01*
X156500000Y-69067088D01*
X156325250Y-68991128D01*
X156290062Y-68980460D01*
X156127000Y-69107743D01*
X156127000Y-69407232D01*
X156057229Y-69515677D01*
X156050812Y-69450518D01*
X156014502Y-69330820D01*
X155955537Y-69220506D01*
X155876185Y-69123815D01*
X155873000Y-69121201D01*
X155873000Y-69107743D01*
X155709938Y-68980460D01*
X155677917Y-68990168D01*
X155669180Y-68985498D01*
X155549482Y-68949188D01*
X155425000Y-68936928D01*
X155285750Y-68940000D01*
X155127000Y-69098750D01*
X155127000Y-69407232D01*
X155056632Y-69516606D01*
X154980453Y-69709936D01*
X154873000Y-69709936D01*
X154873000Y-69098750D01*
X154714250Y-68940000D01*
X154575000Y-68936928D01*
X154450518Y-68949188D01*
X154330820Y-68985498D01*
X154220506Y-69044463D01*
X154123815Y-69123815D01*
X154044463Y-69220506D01*
X153985498Y-69330820D01*
X153949188Y-69450518D01*
X153936928Y-69575000D01*
X133888072Y-69575000D01*
X133888072Y-69550000D01*
X133875812Y-69425518D01*
X133839502Y-69305820D01*
X133780537Y-69195506D01*
X133701185Y-69098815D01*
X133604494Y-69019463D01*
X133494180Y-68960498D01*
X133374482Y-68924188D01*
X133250000Y-68911928D01*
X131550000Y-68911928D01*
X131425518Y-68924188D01*
X131305820Y-68960498D01*
X131195506Y-69019463D01*
X131098815Y-69098815D01*
X131019463Y-69195506D01*
X130960498Y-69305820D01*
X130924188Y-69425518D01*
X130911928Y-69550000D01*
X120933880Y-69550000D01*
X120917205Y-69509744D01*
X120803937Y-69340226D01*
X120659774Y-69196063D01*
X120490256Y-69082795D01*
X120301898Y-69004774D01*
X120101939Y-68965000D01*
X119898061Y-68965000D01*
X119698102Y-69004774D01*
X119509744Y-69082795D01*
X119340226Y-69196063D01*
X119196063Y-69340226D01*
X119082795Y-69509744D01*
X119004774Y-69698102D01*
X118965000Y-69898061D01*
X116035000Y-69898061D01*
X115995226Y-69698102D01*
X115917205Y-69509744D01*
X115803937Y-69340226D01*
X115659774Y-69196063D01*
X115490256Y-69082795D01*
X115301898Y-69004774D01*
X115101939Y-68965000D01*
X114898061Y-68965000D01*
X114698102Y-69004774D01*
X114509744Y-69082795D01*
X114340226Y-69196063D01*
X114196063Y-69340226D01*
X114082795Y-69509744D01*
X114004774Y-69698102D01*
X113965000Y-69898061D01*
X105127000Y-69898061D01*
X105127000Y-65127000D01*
X138969985Y-65127000D01*
X139004774Y-65301898D01*
%TA.AperFunction,Conductor*%
D16*
G36*
X139004774Y-65301898D02*
G01*
X139082795Y-65490256D01*
X139196063Y-65659774D01*
X139340226Y-65803937D01*
X139509744Y-65917205D01*
X139698102Y-65995226D01*
X139898061Y-66035000D01*
X140101939Y-66035000D01*
X140301898Y-65995226D01*
X140490256Y-65917205D01*
X140659774Y-65803937D01*
X140803937Y-65659774D01*
X140917205Y-65490256D01*
X140995226Y-65301898D01*
X141030015Y-65127000D01*
X153969985Y-65127000D01*
X154004774Y-65301898D01*
X154082795Y-65490256D01*
X154196063Y-65659774D01*
X154340226Y-65803937D01*
X154509744Y-65917205D01*
X154698102Y-65995226D01*
X154898061Y-66035000D01*
X155101939Y-66035000D01*
X155301898Y-65995226D01*
X155490256Y-65917205D01*
X155659774Y-65803937D01*
X155803937Y-65659774D01*
X155917205Y-65490256D01*
X155995226Y-65301898D01*
X156030015Y-65127000D01*
X169873000Y-65127000D01*
X169873000Y-129873000D01*
X105127000Y-129873000D01*
X105127000Y-124898061D01*
X118965000Y-124898061D01*
X118965000Y-125101939D01*
X119004774Y-125301898D01*
X119082795Y-125490256D01*
X119196063Y-125659774D01*
X119340226Y-125803937D01*
X119509744Y-125917205D01*
X119698102Y-125995226D01*
X119898061Y-126035000D01*
X120101939Y-126035000D01*
X120301898Y-125995226D01*
X120490256Y-125917205D01*
X120659774Y-125803937D01*
X120803937Y-125659774D01*
X120917205Y-125490256D01*
X120995226Y-125301898D01*
X121035000Y-125101939D01*
X121035000Y-124898061D01*
X120995226Y-124698102D01*
X120917205Y-124509744D01*
X120803937Y-124340226D01*
X120659774Y-124196063D01*
X120490256Y-124082795D01*
X120301898Y-124004774D01*
X120101939Y-123965000D01*
X119898061Y-123965000D01*
X119698102Y-124004774D01*
X119509744Y-124082795D01*
X119340226Y-124196063D01*
X119196063Y-124340226D01*
X119082795Y-124509744D01*
X119004774Y-124698102D01*
X118965000Y-124898061D01*
X105127000Y-124898061D01*
X105127000Y-114898061D01*
X113965000Y-114898061D01*
X113965000Y-115101939D01*
X114004774Y-115301898D01*
X114082795Y-115490256D01*
X114196063Y-115659774D01*
X114340226Y-115803937D01*
X114509744Y-115917205D01*
X114698102Y-115995226D01*
X114898061Y-116035000D01*
X115101939Y-116035000D01*
X115301898Y-115995226D01*
X115490256Y-115917205D01*
X115659774Y-115803937D01*
X115803937Y-115659774D01*
X115917205Y-115490256D01*
X115995226Y-115301898D01*
X116035000Y-115101939D01*
X116035000Y-114898061D01*
X115995226Y-114698102D01*
X115917205Y-114509744D01*
X115803937Y-114340226D01*
X115659774Y-114196063D01*
X115490256Y-114082795D01*
X115301898Y-114004774D01*
X115101939Y-113965000D01*
X114898061Y-113965000D01*
X114698102Y-114004774D01*
X114509744Y-114082795D01*
X114340226Y-114196063D01*
X114196063Y-114340226D01*
X114082795Y-114509744D01*
X114004774Y-114698102D01*
X113965000Y-114898061D01*
X105127000Y-114898061D01*
X105127000Y-79898061D01*
X113965000Y-79898061D01*
X113965000Y-80101939D01*
X114004774Y-80301898D01*
X114082795Y-80490256D01*
X114196063Y-80659774D01*
X114340226Y-80803937D01*
X114509744Y-80917205D01*
X114698102Y-80995226D01*
X114898061Y-81035000D01*
X115101939Y-81035000D01*
X115301898Y-80995226D01*
X115490256Y-80917205D01*
X115659774Y-80803937D01*
X115803937Y-80659774D01*
X115917205Y-80490256D01*
X115995226Y-80301898D01*
X116035000Y-80101939D01*
X116035000Y-79898061D01*
X115995226Y-79698102D01*
X115917205Y-79509744D01*
X115803937Y-79340226D01*
X115659774Y-79196063D01*
X115490256Y-79082795D01*
X115301898Y-79004774D01*
X115101939Y-78965000D01*
X114898061Y-78965000D01*
X114698102Y-79004774D01*
X114509744Y-79082795D01*
X114340226Y-79196063D01*
X114196063Y-79340226D01*
X114082795Y-79509744D01*
X114004774Y-79698102D01*
X113965000Y-79898061D01*
X105127000Y-79898061D01*
X105127000Y-69898061D01*
X113965000Y-69898061D01*
X113965000Y-70101939D01*
X114004774Y-70301898D01*
X114082795Y-70490256D01*
X114196063Y-70659774D01*
X114340226Y-70803937D01*
X114509744Y-70917205D01*
X114698102Y-70995226D01*
X114898061Y-71035000D01*
X115101939Y-71035000D01*
X115301898Y-70995226D01*
X115490256Y-70917205D01*
X115659774Y-70803937D01*
X115803937Y-70659774D01*
X115917205Y-70490256D01*
X115995226Y-70301898D01*
X116035000Y-70101939D01*
X116035000Y-69898061D01*
X118965000Y-69898061D01*
X118965000Y-70101939D01*
X119004774Y-70301898D01*
X119082795Y-70490256D01*
X119196063Y-70659774D01*
X119340226Y-70803937D01*
X119509744Y-70917205D01*
X119698102Y-70995226D01*
X119898061Y-71035000D01*
X120101939Y-71035000D01*
X120301898Y-70995226D01*
X120490256Y-70917205D01*
X120659774Y-70803937D01*
X120803937Y-70659774D01*
X120917205Y-70490256D01*
X120995226Y-70301898D01*
X121035000Y-70101939D01*
X121035000Y-69898061D01*
X120995226Y-69698102D01*
X120933880Y-69550000D01*
X130911928Y-69550000D01*
X130911928Y-71250000D01*
X130924188Y-71374482D01*
X130960498Y-71494180D01*
X131019463Y-71604494D01*
X131098815Y-71701185D01*
X131195506Y-71780537D01*
X131305820Y-71839502D01*
X131378380Y-71861513D01*
X131246525Y-71993368D01*
X131084010Y-72236589D01*
X130972068Y-72506842D01*
X130915000Y-72793740D01*
X130915000Y-73086260D01*
X130972068Y-73373158D01*
X131084010Y-73643411D01*
X131246525Y-73886632D01*
X131453368Y-74093475D01*
X131627760Y-74210000D01*
X131453368Y-74326525D01*
X131246525Y-74533368D01*
X131084010Y-74776589D01*
X130972068Y-75046842D01*
X130915000Y-75333740D01*
X130915000Y-75626260D01*
X130972068Y-75913158D01*
X131084010Y-76183411D01*
X131246525Y-76426632D01*
X131453368Y-76633475D01*
X131627760Y-76750000D01*
X131453368Y-76866525D01*
X131246525Y-77073368D01*
X131084010Y-77316589D01*
X130972068Y-77586842D01*
X130915000Y-77873740D01*
X130915000Y-78166260D01*
X130972068Y-78453158D01*
X131084010Y-78723411D01*
X131246525Y-78966632D01*
X131453368Y-79173475D01*
X131627760Y-79290000D01*
X131453368Y-79406525D01*
X131246525Y-79613368D01*
X131084010Y-79856589D01*
X130972068Y-80126842D01*
X130915000Y-80413740D01*
X130915000Y-80706260D01*
X130972068Y-80993158D01*
X131084010Y-81263411D01*
X131246525Y-81506632D01*
X131453368Y-81713475D01*
X131627760Y-81830000D01*
X131453368Y-81946525D01*
X131246525Y-82153368D01*
X131084010Y-82396589D01*
X130972068Y-82666842D01*
X130915000Y-82953740D01*
X130915000Y-83246260D01*
X130972068Y-83533158D01*
X131084010Y-83803411D01*
X131246525Y-84046632D01*
X131453368Y-84253475D01*
X131627760Y-84370000D01*
X131453368Y-84486525D01*
X131246525Y-84693368D01*
X131084010Y-84936589D01*
X130972068Y-85206842D01*
X130915000Y-85493740D01*
X130915000Y-85786260D01*
X130972068Y-86073158D01*
X131084010Y-86343411D01*
X131246525Y-86586632D01*
X131453368Y-86793475D01*
X131627760Y-86910000D01*
X131453368Y-87026525D01*
X131246525Y-87233368D01*
X131084010Y-87476589D01*
X130972068Y-87746842D01*
X130915000Y-88033740D01*
X130915000Y-88326260D01*
X130972068Y-88613158D01*
X131084010Y-88883411D01*
X131246525Y-89126632D01*
X131453368Y-89333475D01*
X131627760Y-89450000D01*
X131453368Y-89566525D01*
X131246525Y-89773368D01*
X131084010Y-90016589D01*
X130972068Y-90286842D01*
X130915000Y-90573740D01*
X130915000Y-90866260D01*
X130972068Y-91153158D01*
X131084010Y-91423411D01*
X131246525Y-91666632D01*
X131453368Y-91873475D01*
X131627760Y-91990000D01*
X131453368Y-92106525D01*
X131246525Y-92313368D01*
X131084010Y-92556589D01*
X130972068Y-92826842D01*
X130915000Y-93113740D01*
X130915000Y-93406260D01*
X130972068Y-93693158D01*
X131084010Y-93963411D01*
X131246525Y-94206632D01*
X131453368Y-94413475D01*
X131627760Y-94530000D01*
X131453368Y-94646525D01*
X131246525Y-94853368D01*
X131084010Y-95096589D01*
X130972068Y-95366842D01*
X130915000Y-95653740D01*
X130915000Y-95946260D01*
X130972068Y-96233158D01*
X131084010Y-96503411D01*
X131246525Y-96746632D01*
X131453368Y-96953475D01*
X131627760Y-97070000D01*
X131453368Y-97186525D01*
X131246525Y-97393368D01*
X131084010Y-97636589D01*
X130972068Y-97906842D01*
X130915000Y-98193740D01*
X130915000Y-98486260D01*
X130972068Y-98773158D01*
X131084010Y-99043411D01*
X131246525Y-99286632D01*
X131453368Y-99493475D01*
X131627760Y-99610000D01*
X131453368Y-99726525D01*
X131246525Y-99933368D01*
X131084010Y-100176589D01*
X130972068Y-100446842D01*
X130915000Y-100733740D01*
X130915000Y-101026260D01*
X130972068Y-101313158D01*
X131084010Y-101583411D01*
X131246525Y-101826632D01*
X131453368Y-102033475D01*
X131627760Y-102150000D01*
X131453368Y-102266525D01*
X131246525Y-102473368D01*
X131084010Y-102716589D01*
X130972068Y-102986842D01*
X130915000Y-103273740D01*
X130915000Y-103566260D01*
X130972068Y-103853158D01*
X131084010Y-104123411D01*
X131246525Y-104366632D01*
X131453368Y-104573475D01*
X131627760Y-104690000D01*
X131453368Y-104806525D01*
X131246525Y-105013368D01*
X131084010Y-105256589D01*
X130972068Y-105526842D01*
X130915000Y-105813740D01*
X130915000Y-106106260D01*
X130972068Y-106393158D01*
X131084010Y-106663411D01*
X131246525Y-106906632D01*
X131453368Y-107113475D01*
X131627760Y-107230000D01*
X131453368Y-107346525D01*
X131246525Y-107553368D01*
X131084010Y-107796589D01*
X130972068Y-108066842D01*
X130915000Y-108353740D01*
X130915000Y-108646260D01*
X130972068Y-108933158D01*
X131084010Y-109203411D01*
X131246525Y-109446632D01*
X131453368Y-109653475D01*
X131627760Y-109770000D01*
X131453368Y-109886525D01*
X131246525Y-110093368D01*
X131084010Y-110336589D01*
X130972068Y-110606842D01*
X130915000Y-110893740D01*
X130915000Y-111186260D01*
X130972068Y-111473158D01*
X131084010Y-111743411D01*
X131246525Y-111986632D01*
X131453368Y-112193475D01*
X131627760Y-112310000D01*
X131453368Y-112426525D01*
X131246525Y-112633368D01*
X131084010Y-112876589D01*
X130972068Y-113146842D01*
X130915000Y-113433740D01*
X130915000Y-113726260D01*
X130972068Y-114013158D01*
X131084010Y-114283411D01*
X131246525Y-114526632D01*
X131453368Y-114733475D01*
X131627760Y-114850000D01*
X131453368Y-114966525D01*
X131246525Y-115173368D01*
X131084010Y-115416589D01*
X130972068Y-115686842D01*
X130915000Y-115973740D01*
X130915000Y-116266260D01*
X130972068Y-116553158D01*
X131084010Y-116823411D01*
X131246525Y-117066632D01*
X131453368Y-117273475D01*
X131627760Y-117390000D01*
X131453368Y-117506525D01*
X131246525Y-117713368D01*
X131084010Y-117956589D01*
X130972068Y-118226842D01*
X130915000Y-118513740D01*
X130915000Y-118806260D01*
X130972068Y-119093158D01*
X131084010Y-119363411D01*
X131246525Y-119606632D01*
X131453368Y-119813475D01*
X131627760Y-119930000D01*
X131453368Y-120046525D01*
X131246525Y-120253368D01*
X131084010Y-120496589D01*
X130972068Y-120766842D01*
X130915000Y-121053740D01*
X130915000Y-121346260D01*
X130972068Y-121633158D01*
X131084010Y-121903411D01*
X131246525Y-122146632D01*
X131453368Y-122353475D01*
X131627760Y-122470000D01*
X131453368Y-122586525D01*
X131246525Y-122793368D01*
X131084010Y-123036589D01*
X130972068Y-123306842D01*
X130915000Y-123593740D01*
X130915000Y-123886260D01*
X130972068Y-124173158D01*
X131084010Y-124443411D01*
X131246525Y-124686632D01*
X131453368Y-124893475D01*
X131696589Y-125055990D01*
X131966842Y-125167932D01*
X132253740Y-125225000D01*
X132546260Y-125225000D01*
X132833158Y-125167932D01*
X133103411Y-125055990D01*
X133339768Y-124898061D01*
X138965000Y-124898061D01*
X138965000Y-125101939D01*
X139004774Y-125301898D01*
X139082795Y-125490256D01*
X139196063Y-125659774D01*
X139340226Y-125803937D01*
X139509744Y-125917205D01*
X139698102Y-125995226D01*
X139898061Y-126035000D01*
X140101939Y-126035000D01*
X140301898Y-125995226D01*
X140490256Y-125917205D01*
X140659774Y-125803937D01*
X140803937Y-125659774D01*
X140917205Y-125490256D01*
X140944235Y-125425000D01*
X153936928Y-125425000D01*
X153949188Y-125549482D01*
X153985498Y-125669180D01*
X154044463Y-125779494D01*
X154123815Y-125876185D01*
X154220506Y-125955537D01*
X154330820Y-126014502D01*
X154450518Y-126050812D01*
X154575000Y-126063072D01*
X154714250Y-126060000D01*
X154873000Y-125901250D01*
X154873000Y-125290064D01*
X154980453Y-125290064D01*
X155056632Y-125483394D01*
X155127000Y-125592768D01*
X155127000Y-125901250D01*
X155285750Y-126060000D01*
X155425000Y-126063072D01*
X155549482Y-126050812D01*
X155669180Y-126014502D01*
X155677917Y-126009832D01*
X155709938Y-126019540D01*
X155873000Y-125892257D01*
X155873000Y-125878799D01*
X155876185Y-125876185D01*
X155955537Y-125779494D01*
X156014502Y-125669180D01*
X156050812Y-125549482D01*
X156057229Y-125484323D01*
X156127000Y-125592768D01*
X156127000Y-125892257D01*
X156290062Y-126019540D01*
X156325250Y-126008872D01*
X156500000Y-125932912D01*
X156674750Y-126008872D01*
X156709938Y-126019540D01*
X156873000Y-125892257D01*
X156873000Y-125592768D01*
X156943368Y-125483394D01*
X157019547Y-125290064D01*
X156893621Y-125127000D01*
X157127000Y-125127000D01*
X157127000Y-125892257D01*
X157290062Y-126019540D01*
X157325250Y-126008872D01*
X157515822Y-125926034D01*
X157686571Y-125807609D01*
X157830936Y-125658148D01*
X157943368Y-125483394D01*
X158019547Y-125290064D01*
X157893621Y-125127000D01*
X157127000Y-125127000D01*
X156893621Y-125127000D01*
X156106379Y-125127000D01*
X156016995Y-125242745D01*
X155901250Y-125127000D01*
X155106379Y-125127000D01*
X154980453Y-125290064D01*
X154873000Y-125290064D01*
X154873000Y-125127000D01*
X154098750Y-125127000D01*
X153940000Y-125285750D01*
X153936928Y-125425000D01*
X140944235Y-125425000D01*
X140995226Y-125301898D01*
X141035000Y-125101939D01*
X141035000Y-124898061D01*
X163965000Y-124898061D01*
X163965000Y-125101939D01*
X164004774Y-125301898D01*
X164082795Y-125490256D01*
X164196063Y-125659774D01*
X164340226Y-125803937D01*
X164509744Y-125917205D01*
X164698102Y-125995226D01*
X164898061Y-126035000D01*
X165101939Y-126035000D01*
X165301898Y-125995226D01*
X165490256Y-125917205D01*
X165659774Y-125803937D01*
X165803937Y-125659774D01*
X165917205Y-125490256D01*
X165995226Y-125301898D01*
X166035000Y-125101939D01*
X166035000Y-124898061D01*
X165995226Y-124698102D01*
X165917205Y-124509744D01*
X165803937Y-124340226D01*
X165659774Y-124196063D01*
X165490256Y-124082795D01*
X165301898Y-124004774D01*
X165101939Y-123965000D01*
X164898061Y-123965000D01*
X164698102Y-124004774D01*
X164509744Y-124082795D01*
X164340226Y-124196063D01*
X164196063Y-124340226D01*
X164082795Y-124509744D01*
X164004774Y-124698102D01*
X163965000Y-124898061D01*
X141035000Y-124898061D01*
X140995226Y-124698102D01*
X140944236Y-124575000D01*
X153936928Y-124575000D01*
X153940000Y-124714250D01*
X154098750Y-124873000D01*
X154873000Y-124873000D01*
X154873000Y-124709936D01*
X154980453Y-124709936D01*
X155106379Y-124873000D01*
X155901250Y-124873000D01*
X156016995Y-124757255D01*
X156106379Y-124873000D01*
X156893621Y-124873000D01*
X157019547Y-124709936D01*
X156943368Y-124516606D01*
X156873000Y-124407232D01*
X156873000Y-124107743D01*
X157127000Y-124107743D01*
X157127000Y-124873000D01*
X157893621Y-124873000D01*
X158019547Y-124709936D01*
X157943368Y-124516606D01*
X157830936Y-124341852D01*
X157686571Y-124192391D01*
X157515822Y-124073966D01*
X157325250Y-123991128D01*
X157290062Y-123980460D01*
X157127000Y-124107743D01*
X156873000Y-124107743D01*
X156709938Y-123980460D01*
X156674750Y-123991128D01*
X156500000Y-124067088D01*
X156325250Y-123991128D01*
X156290062Y-123980460D01*
X156127000Y-124107743D01*
X156127000Y-124407232D01*
X156057229Y-124515677D01*
X156050812Y-124450518D01*
X156014502Y-124330820D01*
X155955537Y-124220506D01*
X155876185Y-124123815D01*
X155873000Y-124121201D01*
X155873000Y-124107743D01*
X155709938Y-123980460D01*
X155677917Y-123990168D01*
X155669180Y-123985498D01*
X155549482Y-123949188D01*
X155425000Y-123936928D01*
X155285750Y-123940000D01*
X155127000Y-124098750D01*
X155127000Y-124407232D01*
X155056632Y-124516606D01*
X154980453Y-124709936D01*
X154873000Y-124709936D01*
X154873000Y-124098750D01*
X154714250Y-123940000D01*
X154575000Y-123936928D01*
X154450518Y-123949188D01*
X154330820Y-123985498D01*
X154220506Y-124044463D01*
X154123815Y-124123815D01*
X154044463Y-124220506D01*
X153985498Y-124330820D01*
X153949188Y-124450518D01*
X153936928Y-124575000D01*
X140944236Y-124575000D01*
X140917205Y-124509744D01*
X140803937Y-124340226D01*
X140659774Y-124196063D01*
X140490256Y-124082795D01*
X140301898Y-124004774D01*
X140101939Y-123965000D01*
X139898061Y-123965000D01*
X139698102Y-124004774D01*
X139509744Y-124082795D01*
X139340226Y-124196063D01*
X139196063Y-124340226D01*
X139082795Y-124509744D01*
X139004774Y-124698102D01*
X138965000Y-124898061D01*
X133339768Y-124898061D01*
X133346632Y-124893475D01*
X133553475Y-124686632D01*
X133715990Y-124443411D01*
X133827932Y-124173158D01*
X133885000Y-123886260D01*
X133885000Y-123593740D01*
X133827932Y-123306842D01*
X133715990Y-123036589D01*
X133553475Y-122793368D01*
X133346632Y-122586525D01*
X133172240Y-122470000D01*
X133346632Y-122353475D01*
X133553475Y-122146632D01*
X133715990Y-121903411D01*
X133827932Y-121633158D01*
X133885000Y-121346260D01*
X133885000Y-121053740D01*
X133827932Y-120766842D01*
X133715990Y-120496589D01*
X133553475Y-120253368D01*
X133346632Y-120046525D01*
X133172240Y-119930000D01*
X133346632Y-119813475D01*
X133553475Y-119606632D01*
X133715990Y-119363411D01*
X133827932Y-119093158D01*
X133885000Y-118806260D01*
X133885000Y-118513740D01*
X133827932Y-118226842D01*
X133715990Y-117956589D01*
X133553475Y-117713368D01*
X133346632Y-117506525D01*
X133172240Y-117390000D01*
X133346632Y-117273475D01*
X133553475Y-117066632D01*
X133715990Y-116823411D01*
X133827932Y-116553158D01*
X133885000Y-116266260D01*
X133885000Y-115973740D01*
X133827932Y-115686842D01*
X133715990Y-115416589D01*
X133553475Y-115173368D01*
X133346632Y-114966525D01*
X133244169Y-114898061D01*
X138965000Y-114898061D01*
X138965000Y-115101939D01*
X139004774Y-115301898D01*
X139082795Y-115490256D01*
X139196063Y-115659774D01*
X139340226Y-115803937D01*
X139509744Y-115917205D01*
X139698102Y-115995226D01*
X139898061Y-116035000D01*
X140101939Y-116035000D01*
X140301898Y-115995226D01*
X140490256Y-115917205D01*
X140659774Y-115803937D01*
X140803937Y-115659774D01*
X140917205Y-115490256D01*
X140995226Y-115301898D01*
X141035000Y-115101939D01*
X141035000Y-114898061D01*
X148965000Y-114898061D01*
X148965000Y-115101939D01*
X149004774Y-115301898D01*
X149082795Y-115490256D01*
X149196063Y-115659774D01*
X149340226Y-115803937D01*
X149509744Y-115917205D01*
X149698102Y-115995226D01*
X149898061Y-116035000D01*
X150101939Y-116035000D01*
X150301898Y-115995226D01*
X150490256Y-115917205D01*
X150659774Y-115803937D01*
X150803937Y-115659774D01*
X150917205Y-115490256D01*
X150995226Y-115301898D01*
X151035000Y-115101939D01*
X151035000Y-114898061D01*
X150995226Y-114698102D01*
X150917205Y-114509744D01*
X150803937Y-114340226D01*
X150659774Y-114196063D01*
X150490256Y-114082795D01*
X150301898Y-114004774D01*
X150101939Y-113965000D01*
X149898061Y-113965000D01*
X149698102Y-114004774D01*
X149509744Y-114082795D01*
X149340226Y-114196063D01*
X149196063Y-114340226D01*
X149082795Y-114509744D01*
X149004774Y-114698102D01*
X148965000Y-114898061D01*
X141035000Y-114898061D01*
X140995226Y-114698102D01*
X140917205Y-114509744D01*
X140803937Y-114340226D01*
X140659774Y-114196063D01*
X140490256Y-114082795D01*
X140301898Y-114004774D01*
X140101939Y-113965000D01*
X139898061Y-113965000D01*
X139698102Y-114004774D01*
X139509744Y-114082795D01*
X139340226Y-114196063D01*
X139196063Y-114340226D01*
X139082795Y-114509744D01*
X139004774Y-114698102D01*
X138965000Y-114898061D01*
X133244169Y-114898061D01*
X133172240Y-114850000D01*
X133346632Y-114733475D01*
X133553475Y-114526632D01*
X133715990Y-114283411D01*
X133827932Y-114013158D01*
X133885000Y-113726260D01*
X133885000Y-113433740D01*
X133827932Y-113146842D01*
X133715990Y-112876589D01*
X133553475Y-112633368D01*
X133346632Y-112426525D01*
X133172240Y-112310000D01*
X133346632Y-112193475D01*
X133553475Y-111986632D01*
X133715990Y-111743411D01*
X133827932Y-111473158D01*
X133885000Y-111186260D01*
X133885000Y-110893740D01*
X133827932Y-110606842D01*
X133715990Y-110336589D01*
X133553475Y-110093368D01*
X133358168Y-109898061D01*
X163965000Y-109898061D01*
X163965000Y-110101939D01*
X164004774Y-110301898D01*
X164082795Y-110490256D01*
X164196063Y-110659774D01*
X164340226Y-110803937D01*
X164509744Y-110917205D01*
X164698102Y-110995226D01*
X164898061Y-111035000D01*
X165101939Y-111035000D01*
X165301898Y-110995226D01*
X165490256Y-110917205D01*
X165659774Y-110803937D01*
X165803937Y-110659774D01*
X165917205Y-110490256D01*
X165995226Y-110301898D01*
X166035000Y-110101939D01*
X166035000Y-109898061D01*
X165995226Y-109698102D01*
X165917205Y-109509744D01*
X165803937Y-109340226D01*
X165659774Y-109196063D01*
X165490256Y-109082795D01*
X165301898Y-109004774D01*
X165101939Y-108965000D01*
X164898061Y-108965000D01*
X164698102Y-109004774D01*
X164509744Y-109082795D01*
X164340226Y-109196063D01*
X164196063Y-109340226D01*
X164082795Y-109509744D01*
X164004774Y-109698102D01*
X163965000Y-109898061D01*
X133358168Y-109898061D01*
X133346632Y-109886525D01*
X133172240Y-109770000D01*
X133346632Y-109653475D01*
X133553475Y-109446632D01*
X133715990Y-109203411D01*
X133827932Y-108933158D01*
X133885000Y-108646260D01*
X133885000Y-108353740D01*
X133827932Y-108066842D01*
X133715990Y-107796589D01*
X133553475Y-107553368D01*
X133346632Y-107346525D01*
X133172240Y-107230000D01*
X133346632Y-107113475D01*
X133553475Y-106906632D01*
X133715990Y-106663411D01*
X133827932Y-106393158D01*
X133885000Y-106106260D01*
X133885000Y-105813740D01*
X133827932Y-105526842D01*
X133715990Y-105256589D01*
X133553475Y-105013368D01*
X133438168Y-104898061D01*
X138965000Y-104898061D01*
X138965000Y-105101939D01*
X139004774Y-105301898D01*
X139082795Y-105490256D01*
X139196063Y-105659774D01*
X139340226Y-105803937D01*
X139509744Y-105917205D01*
X139698102Y-105995226D01*
X139898061Y-106035000D01*
X140101939Y-106035000D01*
X140301898Y-105995226D01*
X140490256Y-105917205D01*
X140659774Y-105803937D01*
X140803937Y-105659774D01*
X140917205Y-105490256D01*
X140995226Y-105301898D01*
X141035000Y-105101939D01*
X141035000Y-104898061D01*
X153965000Y-104898061D01*
X153965000Y-105101939D01*
X154004774Y-105301898D01*
X154082795Y-105490256D01*
X154196063Y-105659774D01*
X154340226Y-105803937D01*
X154509744Y-105917205D01*
X154698102Y-105995226D01*
X154898061Y-106035000D01*
X155101939Y-106035000D01*
X155301898Y-105995226D01*
X155490256Y-105917205D01*
X155659774Y-105803937D01*
X155803937Y-105659774D01*
X155917205Y-105490256D01*
X155995226Y-105301898D01*
X156035000Y-105101939D01*
X156035000Y-104898061D01*
X155995226Y-104698102D01*
X155917205Y-104509744D01*
X155803937Y-104340226D01*
X155659774Y-104196063D01*
X155490256Y-104082795D01*
X155301898Y-104004774D01*
X155101939Y-103965000D01*
X154898061Y-103965000D01*
X154698102Y-104004774D01*
X154509744Y-104082795D01*
X154340226Y-104196063D01*
X154196063Y-104340226D01*
X154082795Y-104509744D01*
X154004774Y-104698102D01*
X153965000Y-104898061D01*
X141035000Y-104898061D01*
X140995226Y-104698102D01*
X140917205Y-104509744D01*
X140803937Y-104340226D01*
X140659774Y-104196063D01*
X140490256Y-104082795D01*
X140301898Y-104004774D01*
X140101939Y-103965000D01*
X139898061Y-103965000D01*
X139698102Y-104004774D01*
X139509744Y-104082795D01*
X139340226Y-104196063D01*
X139196063Y-104340226D01*
X139082795Y-104509744D01*
X139004774Y-104698102D01*
X138965000Y-104898061D01*
X133438168Y-104898061D01*
X133346632Y-104806525D01*
X133172240Y-104690000D01*
X133346632Y-104573475D01*
X133553475Y-104366632D01*
X133715990Y-104123411D01*
X133827932Y-103853158D01*
X133885000Y-103566260D01*
X133885000Y-103273740D01*
X133827932Y-102986842D01*
X133715990Y-102716589D01*
X133553475Y-102473368D01*
X133346632Y-102266525D01*
X133172240Y-102150000D01*
X133346632Y-102033475D01*
X133553475Y-101826632D01*
X133715990Y-101583411D01*
X133827932Y-101313158D01*
X133885000Y-101026260D01*
X133885000Y-100733740D01*
X133827932Y-100446842D01*
X133818885Y-100425000D01*
X143936928Y-100425000D01*
X143949188Y-100549482D01*
X143985498Y-100669180D01*
X144044463Y-100779494D01*
X144123815Y-100876185D01*
X144220506Y-100955537D01*
X144330820Y-101014502D01*
X144450518Y-101050812D01*
X144575000Y-101063072D01*
X144714250Y-101060000D01*
X144873000Y-100901250D01*
X144873000Y-100127000D01*
X145127000Y-100127000D01*
X145127000Y-100901250D01*
X145285750Y-101060000D01*
X145425000Y-101063072D01*
X145549482Y-101050812D01*
X145669180Y-101014502D01*
X145779494Y-100955537D01*
X145876185Y-100876185D01*
X145955537Y-100779494D01*
X146014502Y-100669180D01*
X146050812Y-100549482D01*
X146063072Y-100425000D01*
X148936928Y-100425000D01*
X148949188Y-100549482D01*
X148985498Y-100669180D01*
X149044463Y-100779494D01*
X149123815Y-100876185D01*
X149220506Y-100955537D01*
X149330820Y-101014502D01*
X149450518Y-101050812D01*
X149575000Y-101063072D01*
X149714250Y-101060000D01*
X149873000Y-100901250D01*
X149873000Y-100127000D01*
X150127000Y-100127000D01*
X150127000Y-100901250D01*
X150285750Y-101060000D01*
X150425000Y-101063072D01*
X150549482Y-101050812D01*
X150669180Y-101014502D01*
X150779494Y-100955537D01*
X150876185Y-100876185D01*
X150897674Y-100850000D01*
X163511928Y-100850000D01*
X163524188Y-100974482D01*
X163560498Y-101094180D01*
X163619463Y-101204494D01*
X163698815Y-101301185D01*
X163795506Y-101380537D01*
X163905820Y-101439502D01*
X164025518Y-101475812D01*
X164150000Y-101488072D01*
X164714250Y-101485000D01*
X164873000Y-101326250D01*
X164873000Y-100127000D01*
X165127000Y-100127000D01*
X165127000Y-101326250D01*
X165285750Y-101485000D01*
X165850000Y-101488072D01*
X165974482Y-101475812D01*
X166094180Y-101439502D01*
X166204494Y-101380537D01*
X166301185Y-101301185D01*
X166380537Y-101204494D01*
X166439502Y-101094180D01*
X166475812Y-100974482D01*
X166488072Y-100850000D01*
X166485000Y-100285750D01*
X166326250Y-100127000D01*
X165127000Y-100127000D01*
X164873000Y-100127000D01*
X163673750Y-100127000D01*
X163515000Y-100285750D01*
X163511928Y-100850000D01*
X150897674Y-100850000D01*
X150955537Y-100779494D01*
X151014502Y-100669180D01*
X151050812Y-100549482D01*
X151063072Y-100425000D01*
X151060000Y-100285750D01*
X150901250Y-100127000D01*
X150127000Y-100127000D01*
X149873000Y-100127000D01*
X149098750Y-100127000D01*
X148940000Y-100285750D01*
X148936928Y-100425000D01*
X146063072Y-100425000D01*
X146060000Y-100285750D01*
X145901250Y-100127000D01*
X145127000Y-100127000D01*
X144873000Y-100127000D01*
X144098750Y-100127000D01*
X143940000Y-100285750D01*
X143936928Y-100425000D01*
X133818885Y-100425000D01*
X133715990Y-100176589D01*
X133553475Y-99933368D01*
X133346632Y-99726525D01*
X133172240Y-99610000D01*
X133224621Y-99575000D01*
X143936928Y-99575000D01*
X143940000Y-99714250D01*
X144098750Y-99873000D01*
X144873000Y-99873000D01*
X144873000Y-99098750D01*
X145127000Y-99098750D01*
X145127000Y-99873000D01*
X145901250Y-99873000D01*
X146060000Y-99714250D01*
X146063072Y-99575000D01*
X148936928Y-99575000D01*
X148940000Y-99714250D01*
X149098750Y-99873000D01*
X149873000Y-99873000D01*
X149873000Y-99098750D01*
X150127000Y-99098750D01*
X150127000Y-99873000D01*
X150901250Y-99873000D01*
X151060000Y-99714250D01*
X151063072Y-99575000D01*
X151050812Y-99450518D01*
X151014502Y-99330820D01*
X150955537Y-99220506D01*
X150897675Y-99150000D01*
X163511928Y-99150000D01*
X163515000Y-99714250D01*
X163673750Y-99873000D01*
X164873000Y-99873000D01*
X164873000Y-98673750D01*
X165127000Y-98673750D01*
X165127000Y-99873000D01*
X166326250Y-99873000D01*
X166485000Y-99714250D01*
X166488072Y-99150000D01*
X166475812Y-99025518D01*
X166439502Y-98905820D01*
X166380537Y-98795506D01*
X166301185Y-98698815D01*
X166204494Y-98619463D01*
X166094180Y-98560498D01*
X165974482Y-98524188D01*
X165850000Y-98511928D01*
X165285750Y-98515000D01*
X165127000Y-98673750D01*
X164873000Y-98673750D01*
X164714250Y-98515000D01*
X164150000Y-98511928D01*
X164025518Y-98524188D01*
X163905820Y-98560498D01*
X163795506Y-98619463D01*
X163698815Y-98698815D01*
X163619463Y-98795506D01*
X163560498Y-98905820D01*
X163524188Y-99025518D01*
X163511928Y-99150000D01*
X150897675Y-99150000D01*
X150876185Y-99123815D01*
X150779494Y-99044463D01*
X150669180Y-98985498D01*
X150549482Y-98949188D01*
X150425000Y-98936928D01*
X150285750Y-98940000D01*
X150127000Y-99098750D01*
X149873000Y-99098750D01*
X149714250Y-98940000D01*
X149575000Y-98936928D01*
X149450518Y-98949188D01*
X149330820Y-98985498D01*
X149220506Y-99044463D01*
X149123815Y-99123815D01*
X149044463Y-99220506D01*
X148985498Y-99330820D01*
X148949188Y-99450518D01*
X148936928Y-99575000D01*
X146063072Y-99575000D01*
X146050812Y-99450518D01*
X146014502Y-99330820D01*
X145955537Y-99220506D01*
X145876185Y-99123815D01*
X145779494Y-99044463D01*
X145669180Y-98985498D01*
X145549482Y-98949188D01*
X145425000Y-98936928D01*
X145285750Y-98940000D01*
X145127000Y-99098750D01*
X144873000Y-99098750D01*
X144714250Y-98940000D01*
X144575000Y-98936928D01*
X144450518Y-98949188D01*
X144330820Y-98985498D01*
X144220506Y-99044463D01*
X144123815Y-99123815D01*
X144044463Y-99220506D01*
X143985498Y-99330820D01*
X143949188Y-99450518D01*
X143936928Y-99575000D01*
X133224621Y-99575000D01*
X133346632Y-99493475D01*
X133553475Y-99286632D01*
X133715990Y-99043411D01*
X133827932Y-98773158D01*
X133885000Y-98486260D01*
X133885000Y-98193740D01*
X133827932Y-97906842D01*
X133715990Y-97636589D01*
X133553475Y-97393368D01*
X133346632Y-97186525D01*
X133172240Y-97070000D01*
X133346632Y-96953475D01*
X133553475Y-96746632D01*
X133715990Y-96503411D01*
X133827932Y-96233158D01*
X133885000Y-95946260D01*
X133885000Y-95653740D01*
X133827932Y-95366842D01*
X133715990Y-95096589D01*
X133583338Y-94898061D01*
X138965000Y-94898061D01*
X138965000Y-95101939D01*
X139004774Y-95301898D01*
X139082795Y-95490256D01*
X139196063Y-95659774D01*
X139340226Y-95803937D01*
X139509744Y-95917205D01*
X139698102Y-95995226D01*
X139898061Y-96035000D01*
X140101939Y-96035000D01*
X140301898Y-95995226D01*
X140490256Y-95917205D01*
X140659774Y-95803937D01*
X140803937Y-95659774D01*
X140917205Y-95490256D01*
X140995226Y-95301898D01*
X141035000Y-95101939D01*
X141035000Y-94898061D01*
X153965000Y-94898061D01*
X153965000Y-95101939D01*
X154004774Y-95301898D01*
X154082795Y-95490256D01*
X154196063Y-95659774D01*
X154340226Y-95803937D01*
X154509744Y-95917205D01*
X154698102Y-95995226D01*
X154898061Y-96035000D01*
X155101939Y-96035000D01*
X155301898Y-95995226D01*
X155490256Y-95917205D01*
X155659774Y-95803937D01*
X155803937Y-95659774D01*
X155917205Y-95490256D01*
X155995226Y-95301898D01*
X156035000Y-95101939D01*
X156035000Y-94898061D01*
X163965000Y-94898061D01*
X163965000Y-95101939D01*
X164004774Y-95301898D01*
X164082795Y-95490256D01*
X164196063Y-95659774D01*
X164340226Y-95803937D01*
X164509744Y-95917205D01*
X164698102Y-95995226D01*
X164898061Y-96035000D01*
X165101939Y-96035000D01*
X165301898Y-95995226D01*
X165490256Y-95917205D01*
X165659774Y-95803937D01*
X165803937Y-95659774D01*
X165917205Y-95490256D01*
X165995226Y-95301898D01*
X166035000Y-95101939D01*
X166035000Y-94898061D01*
X165995226Y-94698102D01*
X165917205Y-94509744D01*
X165803937Y-94340226D01*
X165659774Y-94196063D01*
X165490256Y-94082795D01*
X165301898Y-94004774D01*
X165101939Y-93965000D01*
X164898061Y-93965000D01*
X164698102Y-94004774D01*
X164509744Y-94082795D01*
X164340226Y-94196063D01*
X164196063Y-94340226D01*
X164082795Y-94509744D01*
X164004774Y-94698102D01*
X163965000Y-94898061D01*
X156035000Y-94898061D01*
X155995226Y-94698102D01*
X155917205Y-94509744D01*
X155803937Y-94340226D01*
X155659774Y-94196063D01*
X155490256Y-94082795D01*
X155301898Y-94004774D01*
X155101939Y-93965000D01*
X154898061Y-93965000D01*
X154698102Y-94004774D01*
X154509744Y-94082795D01*
X154340226Y-94196063D01*
X154196063Y-94340226D01*
X154082795Y-94509744D01*
X154004774Y-94698102D01*
X153965000Y-94898061D01*
X141035000Y-94898061D01*
X140995226Y-94698102D01*
X140917205Y-94509744D01*
X140803937Y-94340226D01*
X140659774Y-94196063D01*
X140490256Y-94082795D01*
X140301898Y-94004774D01*
X140101939Y-93965000D01*
X139898061Y-93965000D01*
X139698102Y-94004774D01*
X139509744Y-94082795D01*
X139340226Y-94196063D01*
X139196063Y-94340226D01*
X139082795Y-94509744D01*
X139004774Y-94698102D01*
X138965000Y-94898061D01*
X133583338Y-94898061D01*
X133553475Y-94853368D01*
X133346632Y-94646525D01*
X133172240Y-94530000D01*
X133346632Y-94413475D01*
X133553475Y-94206632D01*
X133715990Y-93963411D01*
X133827932Y-93693158D01*
X133885000Y-93406260D01*
X133885000Y-93113740D01*
X133827932Y-92826842D01*
X133715990Y-92556589D01*
X133553475Y-92313368D01*
X133346632Y-92106525D01*
X133172240Y-91990000D01*
X133346632Y-91873475D01*
X133553475Y-91666632D01*
X133715990Y-91423411D01*
X133827932Y-91153158D01*
X133885000Y-90866260D01*
X133885000Y-90573740D01*
X133827932Y-90286842D01*
X133715990Y-90016589D01*
X133553475Y-89773368D01*
X133346632Y-89566525D01*
X133172240Y-89450000D01*
X133346632Y-89333475D01*
X133553475Y-89126632D01*
X133715990Y-88883411D01*
X133827932Y-88613158D01*
X133885000Y-88326260D01*
X133885000Y-88033740D01*
X133827932Y-87746842D01*
X133715990Y-87476589D01*
X133553475Y-87233368D01*
X133346632Y-87026525D01*
X133172240Y-86910000D01*
X133346632Y-86793475D01*
X133553475Y-86586632D01*
X133715990Y-86343411D01*
X133827932Y-86073158D01*
X133885000Y-85786260D01*
X133885000Y-85493740D01*
X133827932Y-85206842D01*
X133715990Y-84936589D01*
X133690247Y-84898061D01*
X138965000Y-84898061D01*
X138965000Y-85101939D01*
X139004774Y-85301898D01*
X139082795Y-85490256D01*
X139196063Y-85659774D01*
X139340226Y-85803937D01*
X139509744Y-85917205D01*
X139698102Y-85995226D01*
X139898061Y-86035000D01*
X140101939Y-86035000D01*
X140301898Y-85995226D01*
X140490256Y-85917205D01*
X140659774Y-85803937D01*
X140803937Y-85659774D01*
X140917205Y-85490256D01*
X140995226Y-85301898D01*
X141035000Y-85101939D01*
X141035000Y-84898061D01*
X153965000Y-84898061D01*
X153965000Y-85101939D01*
X154004774Y-85301898D01*
X154082795Y-85490256D01*
X154196063Y-85659774D01*
X154340226Y-85803937D01*
X154509744Y-85917205D01*
X154698102Y-85995226D01*
X154898061Y-86035000D01*
X155101939Y-86035000D01*
X155301898Y-85995226D01*
X155490256Y-85917205D01*
X155659774Y-85803937D01*
X155803937Y-85659774D01*
X155917205Y-85490256D01*
X155995226Y-85301898D01*
X156035000Y-85101939D01*
X156035000Y-84898061D01*
X155995226Y-84698102D01*
X155917205Y-84509744D01*
X155803937Y-84340226D01*
X155659774Y-84196063D01*
X155490256Y-84082795D01*
X155301898Y-84004774D01*
X155101939Y-83965000D01*
X154898061Y-83965000D01*
X154698102Y-84004774D01*
X154509744Y-84082795D01*
X154340226Y-84196063D01*
X154196063Y-84340226D01*
X154082795Y-84509744D01*
X154004774Y-84698102D01*
X153965000Y-84898061D01*
X141035000Y-84898061D01*
X140995226Y-84698102D01*
X140917205Y-84509744D01*
X140803937Y-84340226D01*
X140659774Y-84196063D01*
X140490256Y-84082795D01*
X140301898Y-84004774D01*
X140101939Y-83965000D01*
X139898061Y-83965000D01*
X139698102Y-84004774D01*
X139509744Y-84082795D01*
X139340226Y-84196063D01*
X139196063Y-84340226D01*
X139082795Y-84509744D01*
X139004774Y-84698102D01*
X138965000Y-84898061D01*
X133690247Y-84898061D01*
X133553475Y-84693368D01*
X133346632Y-84486525D01*
X133172240Y-84370000D01*
X133346632Y-84253475D01*
X133553475Y-84046632D01*
X133715990Y-83803411D01*
X133827932Y-83533158D01*
X133885000Y-83246260D01*
X133885000Y-82953740D01*
X133827932Y-82666842D01*
X133715990Y-82396589D01*
X133553475Y-82153368D01*
X133346632Y-81946525D01*
X133172240Y-81830000D01*
X133346632Y-81713475D01*
X133553475Y-81506632D01*
X133715990Y-81263411D01*
X133827932Y-80993158D01*
X133885000Y-80706260D01*
X133885000Y-80413740D01*
X133827932Y-80126842D01*
X133733169Y-79898061D01*
X158965000Y-79898061D01*
X158965000Y-80101939D01*
X159004774Y-80301898D01*
X159082795Y-80490256D01*
X159196063Y-80659774D01*
X159340226Y-80803937D01*
X159509744Y-80917205D01*
X159698102Y-80995226D01*
X159898061Y-81035000D01*
X160101939Y-81035000D01*
X160301898Y-80995226D01*
X160490256Y-80917205D01*
X160659774Y-80803937D01*
X160803937Y-80659774D01*
X160917205Y-80490256D01*
X160995226Y-80301898D01*
X161035000Y-80101939D01*
X161035000Y-79898061D01*
X160995226Y-79698102D01*
X160917205Y-79509744D01*
X160803937Y-79340226D01*
X160659774Y-79196063D01*
X160490256Y-79082795D01*
X160301898Y-79004774D01*
X160101939Y-78965000D01*
X159898061Y-78965000D01*
X159698102Y-79004774D01*
X159509744Y-79082795D01*
X159340226Y-79196063D01*
X159196063Y-79340226D01*
X159082795Y-79509744D01*
X159004774Y-79698102D01*
X158965000Y-79898061D01*
X133733169Y-79898061D01*
X133715990Y-79856589D01*
X133553475Y-79613368D01*
X133346632Y-79406525D01*
X133172240Y-79290000D01*
X133346632Y-79173475D01*
X133553475Y-78966632D01*
X133715990Y-78723411D01*
X133827932Y-78453158D01*
X133885000Y-78166260D01*
X133885000Y-77873740D01*
X133827932Y-77586842D01*
X133715990Y-77316589D01*
X133553475Y-77073368D01*
X133346632Y-76866525D01*
X133172240Y-76750000D01*
X133346632Y-76633475D01*
X133553475Y-76426632D01*
X133715990Y-76183411D01*
X133827932Y-75913158D01*
X133885000Y-75626260D01*
X133885000Y-75333740D01*
X133827932Y-75046842D01*
X133766306Y-74898061D01*
X138965000Y-74898061D01*
X138965000Y-75101939D01*
X139004774Y-75301898D01*
X139082795Y-75490256D01*
X139196063Y-75659774D01*
X139340226Y-75803937D01*
X139509744Y-75917205D01*
X139698102Y-75995226D01*
X139898061Y-76035000D01*
X140101939Y-76035000D01*
X140301898Y-75995226D01*
X140490256Y-75917205D01*
X140659774Y-75803937D01*
X140803937Y-75659774D01*
X140917205Y-75490256D01*
X140995226Y-75301898D01*
X141035000Y-75101939D01*
X141035000Y-74898061D01*
X148965000Y-74898061D01*
X148965000Y-75101939D01*
X149004774Y-75301898D01*
X149082795Y-75490256D01*
X149196063Y-75659774D01*
X149340226Y-75803937D01*
X149509744Y-75917205D01*
X149698102Y-75995226D01*
X149898061Y-76035000D01*
X150101939Y-76035000D01*
X150301898Y-75995226D01*
X150490256Y-75917205D01*
X150659774Y-75803937D01*
X150803937Y-75659774D01*
X150917205Y-75490256D01*
X150995226Y-75301898D01*
X151035000Y-75101939D01*
X151035000Y-74898061D01*
X153965000Y-74898061D01*
X153965000Y-75101939D01*
X154004774Y-75301898D01*
X154082795Y-75490256D01*
X154196063Y-75659774D01*
X154340226Y-75803937D01*
X154509744Y-75917205D01*
X154698102Y-75995226D01*
X154898061Y-76035000D01*
X155101939Y-76035000D01*
X155301898Y-75995226D01*
X155490256Y-75917205D01*
X155659774Y-75803937D01*
X155803937Y-75659774D01*
X155917205Y-75490256D01*
X155995226Y-75301898D01*
X156035000Y-75101939D01*
X156035000Y-74898061D01*
X155995226Y-74698102D01*
X155917205Y-74509744D01*
X155803937Y-74340226D01*
X155659774Y-74196063D01*
X155490256Y-74082795D01*
X155301898Y-74004774D01*
X155101939Y-73965000D01*
X154898061Y-73965000D01*
X154698102Y-74004774D01*
X154509744Y-74082795D01*
X154340226Y-74196063D01*
X154196063Y-74340226D01*
X154082795Y-74509744D01*
X154004774Y-74698102D01*
X153965000Y-74898061D01*
X151035000Y-74898061D01*
X150995226Y-74698102D01*
X150917205Y-74509744D01*
X150803937Y-74340226D01*
X150659774Y-74196063D01*
X150490256Y-74082795D01*
X150301898Y-74004774D01*
X150101939Y-73965000D01*
X149898061Y-73965000D01*
X149698102Y-74004774D01*
X149509744Y-74082795D01*
X149340226Y-74196063D01*
X149196063Y-74340226D01*
X149082795Y-74509744D01*
X149004774Y-74698102D01*
X148965000Y-74898061D01*
X141035000Y-74898061D01*
X140995226Y-74698102D01*
X140917205Y-74509744D01*
X140803937Y-74340226D01*
X140659774Y-74196063D01*
X140490256Y-74082795D01*
X140301898Y-74004774D01*
X140101939Y-73965000D01*
X139898061Y-73965000D01*
X139698102Y-74004774D01*
X139509744Y-74082795D01*
X139340226Y-74196063D01*
X139196063Y-74340226D01*
X139082795Y-74509744D01*
X139004774Y-74698102D01*
X138965000Y-74898061D01*
X133766306Y-74898061D01*
X133715990Y-74776589D01*
X133553475Y-74533368D01*
X133346632Y-74326525D01*
X133172240Y-74210000D01*
X133346632Y-74093475D01*
X133553475Y-73886632D01*
X133715990Y-73643411D01*
X133827932Y-73373158D01*
X133885000Y-73086260D01*
X133885000Y-72793740D01*
X133827932Y-72506842D01*
X133715990Y-72236589D01*
X133553475Y-71993368D01*
X133421620Y-71861513D01*
X133494180Y-71839502D01*
X133604494Y-71780537D01*
X133701185Y-71701185D01*
X133780537Y-71604494D01*
X133839502Y-71494180D01*
X133875812Y-71374482D01*
X133888072Y-71250000D01*
X133888072Y-70425000D01*
X153936928Y-70425000D01*
X153949188Y-70549482D01*
X153985498Y-70669180D01*
X154044463Y-70779494D01*
X154123815Y-70876185D01*
X154220506Y-70955537D01*
X154330820Y-71014502D01*
X154450518Y-71050812D01*
X154575000Y-71063072D01*
X154714250Y-71060000D01*
X154873000Y-70901250D01*
X154873000Y-70290064D01*
X154980453Y-70290064D01*
X155056632Y-70483394D01*
X155127000Y-70592768D01*
X155127000Y-70901250D01*
X155285750Y-71060000D01*
X155425000Y-71063072D01*
X155549482Y-71050812D01*
X155669180Y-71014502D01*
X155677917Y-71009832D01*
X155709938Y-71019540D01*
X155873000Y-70892257D01*
X155873000Y-70878799D01*
X155876185Y-70876185D01*
X155955537Y-70779494D01*
X156014502Y-70669180D01*
X156050812Y-70549482D01*
X156057229Y-70484323D01*
X156127000Y-70592768D01*
X156127000Y-70892257D01*
X156290062Y-71019540D01*
X156325250Y-71008872D01*
X156500000Y-70932912D01*
X156674750Y-71008872D01*
X156709938Y-71019540D01*
X156873000Y-70892257D01*
X156873000Y-70592768D01*
X156943368Y-70483394D01*
X157019547Y-70290064D01*
X156893621Y-70127000D01*
X157127000Y-70127000D01*
X157127000Y-70892257D01*
X157290062Y-71019540D01*
X157325250Y-71008872D01*
X157515822Y-70926034D01*
X157686571Y-70807609D01*
X157830936Y-70658148D01*
X157943368Y-70483394D01*
X158019547Y-70290064D01*
X157893621Y-70127000D01*
X157127000Y-70127000D01*
X156893621Y-70127000D01*
X156106379Y-70127000D01*
X156016995Y-70242745D01*
X155901250Y-70127000D01*
X155106379Y-70127000D01*
X154980453Y-70290064D01*
X154873000Y-70290064D01*
X154873000Y-70127000D01*
X154098750Y-70127000D01*
X153940000Y-70285750D01*
X153936928Y-70425000D01*
X133888072Y-70425000D01*
X133888072Y-69898061D01*
X163965000Y-69898061D01*
X163965000Y-70101939D01*
X164004774Y-70301898D01*
X164082795Y-70490256D01*
X164196063Y-70659774D01*
X164340226Y-70803937D01*
X164509744Y-70917205D01*
X164698102Y-70995226D01*
X164898061Y-71035000D01*
X165101939Y-71035000D01*
X165301898Y-70995226D01*
X165490256Y-70917205D01*
X165659774Y-70803937D01*
X165803937Y-70659774D01*
X165917205Y-70490256D01*
X165995226Y-70301898D01*
X166035000Y-70101939D01*
X166035000Y-69898061D01*
X165995226Y-69698102D01*
X165917205Y-69509744D01*
X165803937Y-69340226D01*
X165659774Y-69196063D01*
X165490256Y-69082795D01*
X165301898Y-69004774D01*
X165101939Y-68965000D01*
X164898061Y-68965000D01*
X164698102Y-69004774D01*
X164509744Y-69082795D01*
X164340226Y-69196063D01*
X164196063Y-69340226D01*
X164082795Y-69509744D01*
X164004774Y-69698102D01*
X163965000Y-69898061D01*
X133888072Y-69898061D01*
X133888072Y-69575000D01*
X153936928Y-69575000D01*
X153940000Y-69714250D01*
X154098750Y-69873000D01*
X154873000Y-69873000D01*
X154873000Y-69709936D01*
X154980453Y-69709936D01*
X155106379Y-69873000D01*
X155901250Y-69873000D01*
X156016995Y-69757255D01*
X156106379Y-69873000D01*
X156893621Y-69873000D01*
X157019547Y-69709936D01*
X156943368Y-69516606D01*
X156873000Y-69407232D01*
X156873000Y-69107743D01*
X157127000Y-69107743D01*
X157127000Y-69873000D01*
X157893621Y-69873000D01*
X158019547Y-69709936D01*
X157943368Y-69516606D01*
X157830936Y-69341852D01*
X157686571Y-69192391D01*
X157515822Y-69073966D01*
X157325250Y-68991128D01*
X157290062Y-68980460D01*
X157127000Y-69107743D01*
X156873000Y-69107743D01*
X156709938Y-68980460D01*
X156674750Y-68991128D01*
X156500000Y-69067088D01*
X156325250Y-68991128D01*
X156290062Y-68980460D01*
X156127000Y-69107743D01*
X156127000Y-69407232D01*
X156057229Y-69515677D01*
X156050812Y-69450518D01*
X156014502Y-69330820D01*
X155955537Y-69220506D01*
X155876185Y-69123815D01*
X155873000Y-69121201D01*
X155873000Y-69107743D01*
X155709938Y-68980460D01*
X155677917Y-68990168D01*
X155669180Y-68985498D01*
X155549482Y-68949188D01*
X155425000Y-68936928D01*
X155285750Y-68940000D01*
X155127000Y-69098750D01*
X155127000Y-69407232D01*
X155056632Y-69516606D01*
X154980453Y-69709936D01*
X154873000Y-69709936D01*
X154873000Y-69098750D01*
X154714250Y-68940000D01*
X154575000Y-68936928D01*
X154450518Y-68949188D01*
X154330820Y-68985498D01*
X154220506Y-69044463D01*
X154123815Y-69123815D01*
X154044463Y-69220506D01*
X153985498Y-69330820D01*
X153949188Y-69450518D01*
X153936928Y-69575000D01*
X133888072Y-69575000D01*
X133888072Y-69550000D01*
X133875812Y-69425518D01*
X133839502Y-69305820D01*
X133780537Y-69195506D01*
X133701185Y-69098815D01*
X133604494Y-69019463D01*
X133494180Y-68960498D01*
X133374482Y-68924188D01*
X133250000Y-68911928D01*
X131550000Y-68911928D01*
X131425518Y-68924188D01*
X131305820Y-68960498D01*
X131195506Y-69019463D01*
X131098815Y-69098815D01*
X131019463Y-69195506D01*
X130960498Y-69305820D01*
X130924188Y-69425518D01*
X130911928Y-69550000D01*
X120933880Y-69550000D01*
X120917205Y-69509744D01*
X120803937Y-69340226D01*
X120659774Y-69196063D01*
X120490256Y-69082795D01*
X120301898Y-69004774D01*
X120101939Y-68965000D01*
X119898061Y-68965000D01*
X119698102Y-69004774D01*
X119509744Y-69082795D01*
X119340226Y-69196063D01*
X119196063Y-69340226D01*
X119082795Y-69509744D01*
X119004774Y-69698102D01*
X118965000Y-69898061D01*
X116035000Y-69898061D01*
X115995226Y-69698102D01*
X115917205Y-69509744D01*
X115803937Y-69340226D01*
X115659774Y-69196063D01*
X115490256Y-69082795D01*
X115301898Y-69004774D01*
X115101939Y-68965000D01*
X114898061Y-68965000D01*
X114698102Y-69004774D01*
X114509744Y-69082795D01*
X114340226Y-69196063D01*
X114196063Y-69340226D01*
X114082795Y-69509744D01*
X114004774Y-69698102D01*
X113965000Y-69898061D01*
X105127000Y-69898061D01*
X105127000Y-65127000D01*
X138969985Y-65127000D01*
X139004774Y-65301898D01*
G37*
%TD.AperFunction*%
%TD*%
M02*
